<?xml version="1.0" encoding="UTF-8"?>
<svg xmlns="http://www.w3.org/2000/svg" xmlns:xlink="http://www.w3.org/1999/xlink" width="900" height="600" viewBox="0 0 900 600">
<defs>
<g>
<g id="glyph-0-0-376a6186">
<path d="M 10.65625 0 C 10.65625 0 9.421875 0 9.421875 0 C 9.421875 0 9.421875 -8.546875 9.421875 -8.546875 C 9.421875 -8.546875 6.546875 0 6.546875 0 C 6.546875 0 5.1875 0 5.1875 0 C 5.1875 0 2.28125 -8.546875 2.28125 -8.546875 C 2.28125 -8.546875 2.28125 0 2.28125 0 C 2.28125 0 1.046875 0 1.046875 0 C 1.046875 0 1.046875 -10.203125 1.046875 -10.203125 C 1.046875 -10.203125 2.859375 -10.203125 2.859375 -10.203125 C 2.859375 -10.203125 5.875 -1.3125 5.875 -1.3125 C 5.875 -1.3125 8.84375 -10.203125 8.84375 -10.203125 C 8.84375 -10.203125 10.65625 -10.203125 10.65625 -10.203125 C 10.65625 -10.203125 10.65625 0 10.65625 0 Z M 10.65625 0 "/>
</g>
<g id="glyph-0-1-376a6186">
<path d="M 2.140625 0 C 2.140625 0 0.984375 0 0.984375 0 C 0.984375 0 0.984375 -7.34375 0.984375 -7.34375 C 0.984375 -7.34375 2.140625 -7.34375 2.140625 -7.34375 C 2.140625 -7.34375 2.140625 0 2.140625 0 Z M 2.296875 -8.4375 C 2.296875 -8.4375 0.84375 -8.4375 0.84375 -8.4375 C 0.84375 -8.4375 0.84375 -9.890625 0.84375 -9.890625 C 0.84375 -9.890625 2.296875 -9.890625 2.296875 -9.890625 C 2.296875 -9.890625 2.296875 -8.4375 2.296875 -8.4375 Z M 2.296875 -8.4375 "/>
</g>
<g id="glyph-0-2-376a6186">
<path d="M 6.421875 -2.0625 C 6.421875 -0.640625 5.25 0.203125 3.40625 0.203125 C 1.484375 0.203125 0.53125 -0.546875 0.46875 -2.234375 C 0.46875 -2.234375 1.703125 -2.234375 1.703125 -2.234375 C 1.859375 -1.125 2.453125 -0.875 3.5 -0.875 C 4.515625 -0.875 5.203125 -1.28125 5.203125 -1.953125 C 5.203125 -2.484375 4.890625 -2.734375 4.078125 -2.921875 C 4.078125 -2.921875 2.984375 -3.1875 2.984375 -3.1875 C 1.25 -3.609375 0.65625 -4.15625 0.65625 -5.3125 C 0.65625 -6.65625 1.765625 -7.546875 3.46875 -7.546875 C 5.171875 -7.546875 6.125 -6.734375 6.125 -5.296875 C 6.125 -5.296875 4.90625 -5.296875 4.90625 -5.296875 C 4.875 -6.0625 4.375 -6.46875 3.4375 -6.46875 C 2.484375 -6.46875 1.875 -6.03125 1.875 -5.359375 C 1.875 -4.84375 2.28125 -4.53125 3.234375 -4.3125 C 3.234375 -4.3125 4.359375 -4.046875 4.359375 -4.046875 C 5.8125 -3.703125 6.421875 -3.15625 6.421875 -2.0625 Z M 6.421875 -2.0625 "/>
</g>
<g id="glyph-0-3-376a6186">
<path d="M 6.671875 -2.515625 C 6.53125 -0.84375 5.4375 0.203125 3.6875 0.203125 C 1.6875 0.203125 0.4375 -1.234375 0.4375 -3.59375 C 0.4375 -6.03125 1.71875 -7.546875 3.703125 -7.546875 C 5.328125 -7.546875 6.453125 -6.65625 6.59375 -4.875 C 6.59375 -4.875 5.421875 -4.875 5.421875 -4.875 C 5.28125 -5.890625 4.65625 -6.46875 3.6875 -6.46875 C 2.40625 -6.46875 1.65625 -5.4375 1.65625 -3.59375 C 1.65625 -1.859375 2.421875 -0.875 3.703125 -0.875 C 4.703125 -0.875 5.3125 -1.34375 5.5 -2.515625 C 5.5 -2.515625 6.671875 -2.515625 6.671875 -2.515625 Z M 6.671875 -2.515625 "/>
</g>
<g id="glyph-0-4-376a6186">
<path d="M 7.484375 -0.03125 C 7.109375 0.0625 6.9375 0.09375 6.6875 0.09375 C 6.125 0.09375 5.609375 -0.3125 5.484375 -0.875 C 4.84375 -0.1875 3.9375 0.203125 3 0.203125 C 1.515625 0.203125 0.59375 -0.578125 0.59375 -1.90625 C 0.59375 -2.796875 1.015625 -3.453125 1.875 -3.8125 C 2.328125 -3.984375 2.578125 -4.046875 4.234375 -4.25 C 5.15625 -4.375 5.453125 -4.578125 5.453125 -5.0625 C 5.453125 -5.0625 5.453125 -5.375 5.453125 -5.375 C 5.453125 -6.078125 4.859375 -6.46875 3.8125 -6.46875 C 2.71875 -6.46875 2.1875 -6.0625 2.09375 -5.171875 C 2.09375 -5.171875 0.90625 -5.171875 0.90625 -5.171875 C 0.984375 -6.859375 2.078125 -7.546875 3.84375 -7.546875 C 5.65625 -7.546875 6.609375 -6.84375 6.609375 -5.546875 C 6.609375 -5.546875 6.609375 -1.453125 6.609375 -1.453125 C 6.609375 -1.09375 6.828125 -0.875 7.234375 -0.875 C 7.3125 -0.875 7.359375 -0.875 7.484375 -0.90625 C 7.484375 -0.90625 7.484375 -0.03125 7.484375 -0.03125 Z M 5.453125 -2.53125 C 5.453125 -2.53125 5.453125 -3.625 5.453125 -3.625 C 5.046875 -3.4375 4.796875 -3.390625 3.5625 -3.21875 C 2.328125 -3.03125 1.8125 -2.703125 1.8125 -1.9375 C 1.8125 -1.140625 2.34375 -0.8125 3.25 -0.8125 C 4.375 -0.8125 5.453125 -1.484375 5.453125 -2.53125 Z M 5.453125 -2.53125 "/>
</g>
<g id="glyph-0-5-376a6186">
<path d="M 2.109375 0 C 2.109375 0 0.953125 0 0.953125 0 C 0.953125 0 0.953125 -10.203125 0.953125 -10.203125 C 0.953125 -10.203125 2.109375 -10.203125 2.109375 -10.203125 C 2.109375 -10.203125 2.109375 0 2.109375 0 Z M 2.109375 0 "/>
</g>
<g id="glyph-0-6-376a6186">
<path d="M 7.1875 -3.328125 C 7.1875 -3.328125 1.78125 -3.328125 1.78125 -3.328125 C 1.8125 -1.65625 2.71875 -0.875 3.9375 -0.875 C 4.875 -0.875 5.53125 -1.265625 5.859375 -2.21875 C 5.859375 -2.21875 7.03125 -2.21875 7.03125 -2.21875 C 6.734375 -0.734375 5.578125 0.203125 3.890625 0.203125 C 1.828125 0.203125 0.5625 -1.21875 0.5625 -3.625 C 0.5625 -6.03125 1.875 -7.546875 3.921875 -7.546875 C 5.296875 -7.546875 6.40625 -6.8125 6.890625 -5.609375 C 7.09375 -5.0625 7.1875 -4.390625 7.1875 -3.328125 Z M 5.9375 -4.375 C 5.9375 -5.515625 5.046875 -6.46875 3.90625 -6.46875 C 2.734375 -6.46875 1.90625 -5.59375 1.8125 -4.28125 C 1.8125 -4.28125 5.921875 -4.28125 5.921875 -4.28125 C 5.9375 -4.3125 5.9375 -4.375 5.9375 -4.375 Z M 5.9375 -4.375 "/>
</g>
<g id="glyph-0-7-376a6186">
<path d="M 6.9375 0 C 6.9375 0 5.890625 0 5.890625 0 C 5.890625 0 5.890625 -1.078125 5.890625 -1.078125 C 5.265625 -0.171875 4.5625 0.203125 3.5625 0.203125 C 1.578125 0.203125 0.359375 -1.265625 0.359375 -3.734375 C 0.359375 -6.078125 1.609375 -7.546875 3.515625 -7.546875 C 4.5 -7.546875 5.28125 -7.15625 5.765625 -6.40625 C 5.765625 -6.40625 5.765625 -10.203125 5.765625 -10.203125 C 5.765625 -10.203125 6.9375 -10.203125 6.9375 -10.203125 C 6.9375 -10.203125 6.9375 0 6.9375 0 Z M 5.765625 -3.640625 C 5.765625 -5.328125 4.96875 -6.453125 3.703125 -6.453125 C 2.4375 -6.453125 1.578125 -5.375 1.578125 -3.671875 C 1.578125 -1.953125 2.4375 -0.875 3.71875 -0.875 C 4.953125 -0.875 5.765625 -1.953125 5.765625 -3.640625 Z M 5.765625 -3.640625 "/>
</g>
<g id="glyph-0-8-376a6186">
</g>
<g id="glyph-0-9-376a6186">
<path d="M 9.140625 0 C 9.140625 0 7.6875 0 7.6875 0 C 7.6875 0 6.640625 -3.0625 6.640625 -3.0625 C 6.640625 -3.0625 2.703125 -3.0625 2.703125 -3.0625 C 2.703125 -3.0625 1.625 0 1.625 0 C 1.625 0 0.234375 0 0.234375 0 C 0.234375 0 3.875 -10.203125 3.875 -10.203125 C 3.875 -10.203125 5.5625 -10.203125 5.5625 -10.203125 C 5.5625 -10.203125 9.140625 0 9.140625 0 Z M 6.265625 -4.15625 C 6.265625 -4.15625 4.703125 -8.8125 4.703125 -8.8125 C 4.703125 -8.8125 3.03125 -4.15625 3.03125 -4.15625 C 3.03125 -4.15625 6.265625 -4.15625 6.265625 -4.15625 Z M 6.265625 -4.15625 "/>
</g>
<g id="glyph-0-10-376a6186">
<path d="M 4.078125 2.96875 C 4.078125 2.96875 3.296875 2.96875 3.296875 2.96875 C 1.90625 1.140625 1.015625 -1.40625 1.015625 -3.625 C 1.015625 -5.828125 1.90625 -8.375 3.296875 -10.203125 C 3.296875 -10.203125 4.078125 -10.203125 4.078125 -10.203125 C 2.84375 -8.21875 2.15625 -5.859375 2.15625 -3.625 C 2.15625 -1.390625 2.84375 0.96875 4.078125 2.96875 Z M 4.078125 2.96875 "/>
</g>
<g id="glyph-0-11-376a6186">
<path d="M 6.75 0 C 6.75 0 5.703125 0 5.703125 0 C 5.703125 0 5.703125 -1.140625 5.703125 -1.140625 C 5.015625 -0.171875 4.328125 0.203125 3.25 0.203125 C 1.8125 0.203125 0.90625 -0.578125 0.90625 -1.796875 C 0.90625 -1.796875 0.90625 -7.34375 0.90625 -7.34375 C 0.90625 -7.34375 2.078125 -7.34375 2.078125 -7.34375 C 2.078125 -7.34375 2.078125 -2.25 2.078125 -2.25 C 2.078125 -1.375 2.65625 -0.8125 3.578125 -0.8125 C 4.796875 -0.8125 5.59375 -1.796875 5.59375 -3.296875 C 5.59375 -3.296875 5.59375 -7.34375 5.59375 -7.34375 C 5.59375 -7.34375 6.75 -7.34375 6.75 -7.34375 C 6.75 -7.34375 6.75 0 6.75 0 Z M 6.75 0 "/>
</g>
<g id="glyph-0-12-376a6186">
<path d="M 10.640625 0 C 10.640625 0 9.484375 0 9.484375 0 C 9.484375 0 9.484375 -5.046875 9.484375 -5.046875 C 9.484375 -5.984375 8.984375 -6.53125 8.140625 -6.53125 C 7.1875 -6.53125 6.390625 -5.671875 6.390625 -4.609375 C 6.390625 -4.609375 6.390625 0 6.390625 0 C 6.390625 0 5.234375 0 5.234375 0 C 5.234375 0 5.234375 -5.046875 5.234375 -5.046875 C 5.234375 -5.984375 4.75 -6.53125 3.875 -6.53125 C 2.921875 -6.53125 2.15625 -5.671875 2.15625 -4.609375 C 2.15625 -4.609375 2.15625 0 2.15625 0 C 2.15625 0 1 0 1 0 C 1 0 1 -7.34375 1 -7.34375 C 1 -7.34375 2.0625 -7.34375 2.0625 -7.34375 C 2.0625 -7.34375 2.0625 -6.296875 2.0625 -6.296875 C 2.6875 -7.1875 3.328125 -7.546875 4.3125 -7.546875 C 5.265625 -7.546875 5.859375 -7.203125 6.28125 -6.421875 C 6.96875 -7.25 7.5625 -7.546875 8.546875 -7.546875 C 9.90625 -7.546875 10.640625 -6.8125 10.640625 -5.5 C 10.640625 -5.5 10.640625 0 10.640625 0 Z M 10.640625 0 "/>
</g>
<g id="glyph-0-13-376a6186">
<path d="M 4.5 -6.3125 C 2.6875 -6.28125 2.140625 -5.453125 2.140625 -3.8125 C 2.140625 -3.8125 2.140625 0 2.140625 0 C 2.140625 0 0.984375 0 0.984375 0 C 0.984375 0 0.984375 -7.34375 0.984375 -7.34375 C 0.984375 -7.34375 2.046875 -7.34375 2.046875 -7.34375 C 2.046875 -7.34375 2.046875 -6 2.046875 -6 C 2.71875 -7.09375 3.296875 -7.546875 4.046875 -7.546875 C 4.203125 -7.546875 4.296875 -7.53125 4.5 -7.5 C 4.5 -7.5 4.5 -6.3125 4.5 -6.3125 Z M 4.5 -6.3125 "/>
</g>
<g id="glyph-0-14-376a6186">
<path d="M 7.140625 -3.609375 C 7.140625 -1.203125 5.875 0.203125 3.828125 0.203125 C 1.734375 0.203125 0.5 -1.203125 0.5 -3.671875 C 0.5 -6.125 1.75 -7.546875 3.8125 -7.546875 C 5.921875 -7.546875 7.140625 -6.140625 7.140625 -3.609375 Z M 5.921875 -3.625 C 5.921875 -5.453125 5.140625 -6.46875 3.828125 -6.46875 C 2.515625 -6.46875 1.71875 -5.4375 1.71875 -3.671875 C 1.71875 -1.890625 2.515625 -0.875 3.828125 -0.875 C 5.109375 -0.875 5.921875 -1.90625 5.921875 -3.625 Z M 5.921875 -3.625 "/>
</g>
<g id="glyph-0-15-376a6186">
<path d="M 3.5625 0 C 3.15625 0.0625 2.890625 0.09375 2.609375 0.09375 C 1.6875 0.09375 1.1875 -0.328125 1.1875 -1.0625 C 1.1875 -1.0625 1.1875 -6.390625 1.1875 -6.390625 C 1.1875 -6.390625 0.203125 -6.390625 0.203125 -6.390625 C 0.203125 -6.390625 0.203125 -7.34375 0.203125 -7.34375 C 0.203125 -7.34375 1.1875 -7.34375 1.1875 -7.34375 C 1.1875 -7.34375 1.1875 -9.359375 1.1875 -9.359375 C 1.1875 -9.359375 2.359375 -9.359375 2.359375 -9.359375 C 2.359375 -9.359375 2.359375 -7.34375 2.359375 -7.34375 C 2.359375 -7.34375 3.5625 -7.34375 3.5625 -7.34375 C 3.5625 -7.34375 3.5625 -6.390625 3.5625 -6.390625 C 3.5625 -6.390625 2.359375 -6.390625 2.359375 -6.390625 C 2.359375 -6.390625 2.359375 -1.578125 2.359375 -1.578125 C 2.359375 -1.0625 2.484375 -0.921875 3 -0.921875 C 3.21875 -0.921875 3.40625 -0.9375 3.5625 -0.984375 C 3.5625 -0.984375 3.5625 0 3.5625 0 Z M 3.5625 0 "/>
</g>
<g id="glyph-0-16-376a6186">
<path d="M 3.578125 -3.609375 C 3.578125 -1.40625 2.703125 1.140625 1.296875 2.96875 C 1.296875 2.96875 0.53125 2.96875 0.53125 2.96875 C 1.765625 0.984375 2.453125 -1.390625 2.453125 -3.609375 C 2.453125 -5.859375 1.765625 -8.203125 0.53125 -10.203125 C 0.53125 -10.203125 1.296875 -10.203125 1.296875 -10.203125 C 2.703125 -8.375 3.578125 -5.828125 3.578125 -3.609375 Z M 3.578125 -3.609375 "/>
</g>
<g id="glyph-0-17-376a6186">
<path d="M 7.09375 -4.78125 C 7.09375 -1.515625 5.953125 0.203125 3.84375 0.203125 C 1.71875 0.203125 0.609375 -1.515625 0.609375 -4.859375 C 0.609375 -8.1875 1.703125 -9.921875 3.84375 -9.921875 C 6 -9.921875 7.09375 -8.21875 7.09375 -4.78125 Z M 5.84375 -4.890625 C 5.84375 -7.546875 5.1875 -8.828125 3.84375 -8.828125 C 2.515625 -8.828125 1.859375 -7.5625 1.859375 -4.84375 C 1.859375 -2.125 2.515625 -0.8125 3.828125 -0.8125 C 5.1875 -0.8125 5.84375 -2.078125 5.84375 -4.890625 Z M 5.84375 -4.890625 "/>
</g>
<g id="glyph-0-18-376a6186">
<path d="M 7.15625 -7.015625 C 7.15625 -5.796875 6.4375 -4.765625 5.046875 -4.015625 C 5.046875 -4.015625 3.65625 -3.265625 3.65625 -3.265625 C 2.4375 -2.546875 1.984375 -2.03125 1.859375 -1.21875 C 1.859375 -1.21875 7.078125 -1.21875 7.078125 -1.21875 C 7.078125 -1.21875 7.078125 0 7.078125 0 C 7.078125 0 0.46875 0 0.46875 0 C 0.59375 -2.1875 1.1875 -3.125 3.265625 -4.296875 C 3.265625 -4.296875 4.546875 -5.03125 4.546875 -5.03125 C 5.4375 -5.53125 5.890625 -6.203125 5.890625 -6.984375 C 5.890625 -8.046875 5.046875 -8.84375 3.9375 -8.84375 C 2.71875 -8.84375 2.03125 -8.140625 1.9375 -6.484375 C 1.9375 -6.484375 0.703125 -6.484375 0.703125 -6.484375 C 0.765625 -8.890625 1.953125 -9.921875 3.96875 -9.921875 C 5.859375 -9.921875 7.15625 -8.6875 7.15625 -7.015625 Z M 7.15625 -7.015625 "/>
</g>
<g id="glyph-0-19-376a6186">
<path d="M 7.28125 -2.375 C 7.28125 -2.375 5.8125 -2.375 5.8125 -2.375 C 5.8125 -2.375 5.8125 0 5.8125 0 C 5.8125 0 4.578125 0 4.578125 0 C 4.578125 0 4.578125 -2.375 4.578125 -2.375 C 4.578125 -2.375 0.390625 -2.375 0.390625 -2.375 C 0.390625 -2.375 0.390625 -3.6875 0.390625 -3.6875 C 0.390625 -3.6875 4.90625 -9.921875 4.90625 -9.921875 C 4.90625 -9.921875 5.8125 -9.921875 5.8125 -9.921875 C 5.8125 -9.921875 5.8125 -3.484375 5.8125 -3.484375 C 5.8125 -3.484375 7.28125 -3.484375 7.28125 -3.484375 C 7.28125 -3.484375 7.28125 -2.375 7.28125 -2.375 Z M 4.578125 -3.484375 C 4.578125 -3.484375 4.578125 -7.828125 4.578125 -7.828125 C 4.578125 -7.828125 1.46875 -3.484375 1.46875 -3.484375 C 1.46875 -3.484375 4.578125 -3.484375 4.578125 -3.484375 Z M 4.578125 -3.484375 "/>
</g>
<g id="glyph-0-20-376a6186">
<path d="M 6.796875 0 C 6.796875 0 5.640625 0 5.640625 0 C 5.640625 0 5.640625 -5.078125 5.640625 -5.078125 C 5.640625 -6.046875 4.953125 -6.53125 4.125 -6.53125 C 2.921875 -6.53125 2.140625 -5.546875 2.140625 -4.046875 C 2.140625 -4.046875 2.140625 0 2.140625 0 C 2.140625 0 0.984375 0 0.984375 0 C 0.984375 0 0.984375 -10.203125 0.984375 -10.203125 C 0.984375 -10.203125 2.140625 -10.203125 2.140625 -10.203125 C 2.140625 -10.203125 2.140625 -6.328125 2.140625 -6.328125 C 2.828125 -7.21875 3.453125 -7.546875 4.5 -7.546875 C 5.921875 -7.546875 6.796875 -6.78125 6.796875 -5.546875 C 6.796875 -5.546875 6.796875 0 6.796875 0 Z M 6.796875 0 "/>
</g>
<g id="glyph-0-21-376a6186">
<path d="M 7.328125 -3.59375 C 7.328125 -1.265625 6.078125 0.203125 4.1875 0.203125 C 3.234375 0.203125 2.546875 -0.125 1.9375 -0.875 C 1.9375 -0.875 1.9375 3.046875 1.9375 3.046875 C 1.9375 3.046875 0.765625 3.046875 0.765625 3.046875 C 0.765625 3.046875 0.765625 -7.34375 0.765625 -7.34375 C 0.765625 -7.34375 1.828125 -7.34375 1.828125 -7.34375 C 1.828125 -7.34375 1.828125 -6.234375 1.828125 -6.234375 C 2.375 -7.09375 3.171875 -7.546875 4.171875 -7.546875 C 6.125 -7.546875 7.328125 -6.0625 7.328125 -3.59375 Z M 6.109375 -3.625 C 6.109375 -5.375 5.265625 -6.453125 3.96875 -6.453125 C 2.75 -6.453125 1.9375 -5.328125 1.9375 -3.609375 C 1.9375 -1.890625 2.75 -0.875 3.96875 -0.875 C 5.25 -0.875 6.109375 -1.953125 6.109375 -3.625 Z M 6.109375 -3.625 "/>
</g>
<g id="glyph-0-22-376a6186">
<path d="M 6.796875 -7.34375 C 6.796875 -7.34375 3.984375 0 3.984375 0 C 3.984375 0 2.71875 0 2.71875 0 C 2.71875 0 0.140625 -7.34375 0.140625 -7.34375 C 0.140625 -7.34375 1.453125 -7.34375 1.453125 -7.34375 C 1.453125 -7.34375 3.421875 -1.390625 3.421875 -1.390625 C 3.421875 -1.390625 5.484375 -7.34375 5.484375 -7.34375 C 5.484375 -7.34375 6.796875 -7.34375 6.796875 -7.34375 Z M 6.796875 -7.34375 "/>
</g>
<g id="glyph-0-23-376a6186">
<path d="M 7.328125 -3.75 C 7.328125 -1.375 6.0625 0.203125 4.125 0.203125 C 3.109375 0.203125 2.359375 -0.203125 1.8125 -1.046875 C 1.8125 -1.046875 1.8125 0 1.8125 0 C 1.8125 0 0.75 0 0.75 0 C 0.75 0 0.75 -10.203125 0.75 -10.203125 C 0.75 -10.203125 1.921875 -10.203125 1.921875 -10.203125 C 1.921875 -10.203125 1.921875 -6.34375 1.921875 -6.34375 C 2.46875 -7.171875 3.171875 -7.546875 4.1875 -7.546875 C 6.125 -7.546875 7.328125 -6.125 7.328125 -3.75 Z M 6.109375 -3.6875 C 6.109375 -5.3125 5.265625 -6.453125 3.96875 -6.453125 C 2.734375 -6.515625 1.921875 -5.390625 1.921875 -3.671875 C 1.921875 -2 2.734375 -0.875 3.96875 -0.875 C 5.234375 -0.875 6.109375 -2.015625 6.109375 -3.6875 Z M 6.109375 -3.6875 "/>
</g>
<g id="glyph-0-24-376a6186">
<path d="M 3.609375 -6.390625 C 3.609375 -6.390625 2.390625 -6.390625 2.390625 -6.390625 C 2.390625 -6.390625 2.390625 0 2.390625 0 C 2.390625 0 1.234375 0 1.234375 0 C 1.234375 0 1.234375 -6.390625 1.234375 -6.390625 C 1.234375 -6.390625 0.25 -6.390625 0.25 -6.390625 C 0.25 -6.390625 0.25 -7.34375 0.25 -7.34375 C 0.25 -7.34375 1.234375 -7.34375 1.234375 -7.34375 C 1.234375 -7.34375 1.234375 -8.578125 1.234375 -8.578125 C 1.234375 -9.625 1.875 -10.25 2.953125 -10.25 C 3.1875 -10.25 3.34375 -10.234375 3.609375 -10.171875 C 3.609375 -10.171875 3.609375 -9.21875 3.609375 -9.21875 C 3.34375 -9.21875 3.296875 -9.21875 3.203125 -9.21875 C 2.671875 -9.21875 2.390625 -8.96875 2.390625 -8.484375 C 2.390625 -8.484375 2.390625 -7.34375 2.390625 -7.34375 C 2.390625 -7.34375 3.609375 -7.34375 3.609375 -7.34375 C 3.609375 -7.34375 3.609375 -6.390625 3.609375 -6.390625 Z M 3.609375 -6.390625 "/>
</g>
<g id="glyph-0-25-376a6186">
<path d="M 6.9375 3.046875 C 6.9375 3.046875 5.765625 3.046875 5.765625 3.046875 C 5.765625 3.046875 5.765625 -0.953125 5.765625 -0.953125 C 5.21875 -0.15625 4.515625 0.203125 3.5 0.203125 C 1.5625 0.203125 0.359375 -1.203125 0.359375 -3.578125 C 0.359375 -6.015625 1.625 -7.546875 3.5625 -7.546875 C 4.515625 -7.546875 5.34375 -7.125 5.890625 -6.359375 C 5.890625 -6.359375 5.890625 -7.34375 5.890625 -7.34375 C 5.890625 -7.34375 6.9375 -7.34375 6.9375 -7.34375 C 6.9375 -7.34375 6.9375 3.046875 6.9375 3.046875 Z M 5.765625 -3.625 C 5.765625 -5.328125 4.96875 -6.453125 3.71875 -6.453125 C 2.4375 -6.453125 1.578125 -5.359375 1.578125 -3.671875 C 1.578125 -1.953125 2.4375 -0.875 3.71875 -0.875 C 4.953125 -0.875 5.765625 -1.953125 5.765625 -3.625 Z M 5.765625 -3.625 "/>
</g>
<g id="glyph-0-26-376a6186">
<path d="M 8.296875 -9.0625 C 8.296875 -9.0625 4.953125 -9.0625 4.953125 -9.0625 C 4.953125 -9.0625 4.953125 0 4.953125 0 C 4.953125 0 3.65625 0 3.65625 0 C 3.65625 0 3.65625 -9.0625 3.65625 -9.0625 C 3.65625 -9.0625 0.296875 -9.0625 0.296875 -9.0625 C 0.296875 -9.0625 0.296875 -10.203125 0.296875 -10.203125 C 0.296875 -10.203125 8.296875 -10.203125 8.296875 -10.203125 C 8.296875 -10.203125 8.296875 -9.0625 8.296875 -9.0625 Z M 8.296875 -9.0625 "/>
</g>
<g id="glyph-0-27-376a6186">
<path d="M 9.21875 0 C 9.21875 0 7.671875 0 7.671875 0 C 7.671875 0 4.078125 -5.234375 4.078125 -5.234375 C 4.078125 -5.234375 2.40625 -3.5625 2.40625 -3.5625 C 2.40625 -3.5625 2.40625 0 2.40625 0 C 2.40625 0 1.109375 0 1.109375 0 C 1.109375 0 1.109375 -10.203125 1.109375 -10.203125 C 1.109375 -10.203125 2.40625 -10.203125 2.40625 -10.203125 C 2.40625 -10.203125 2.40625 -5.046875 2.40625 -5.046875 C 2.40625 -5.046875 7.484375 -10.203125 7.484375 -10.203125 C 7.484375 -10.203125 9.171875 -10.203125 9.171875 -10.203125 C 9.171875 -10.203125 5.015625 -6.046875 5.015625 -6.046875 C 5.015625 -6.046875 9.21875 0 9.21875 0 Z M 9.21875 0 "/>
</g>
<g id="glyph-0-28-376a6186">
<path d="M 6.6875 -7.34375 C 6.6875 -7.34375 3.4375 1.546875 3.4375 1.546875 C 3.03125 2.59375 2.359375 3.046875 1.546875 3.046875 C 1.234375 3.046875 1 3 0.75 2.875 C 0.75 2.875 0.75 1.8125 0.75 1.8125 C 1.015625 1.875 1.203125 1.90625 1.375 1.90625 C 1.875 1.90625 2.109375 1.703125 2.3125 1.1875 C 2.3125 1.1875 2.765625 0.03125 2.765625 0.03125 C 2.765625 0.03125 0.28125 -7.34375 0.28125 -7.34375 C 0.28125 -7.34375 1.53125 -7.34375 1.53125 -7.34375 C 1.53125 -7.34375 3.40625 -1.625 3.40625 -1.625 C 3.40625 -1.625 5.4375 -7.34375 5.4375 -7.34375 C 5.4375 -7.34375 6.6875 -7.34375 6.6875 -7.34375 Z M 6.6875 -7.34375 "/>
</g>
<g id="glyph-0-29-376a6186">
<path d="M 8.71875 -2.90625 C 8.71875 -1.234375 7.546875 0 5.71875 0 C 5.71875 0 1.109375 0 1.109375 0 C 1.109375 0 1.109375 -10.203125 1.109375 -10.203125 C 1.109375 -10.203125 5.25 -10.203125 5.25 -10.203125 C 7.1875 -10.203125 8.28125 -9.09375 8.28125 -7.609375 C 8.28125 -6.578125 7.78125 -5.828125 6.859375 -5.390625 C 8.15625 -4.890625 8.71875 -4.140625 8.71875 -2.90625 Z M 6.96875 -7.4375 C 6.96875 -8.46875 6.375 -9.0625 4.921875 -9.0625 C 4.921875 -9.0625 2.40625 -9.0625 2.40625 -9.0625 C 2.40625 -9.0625 2.40625 -5.8125 2.40625 -5.8125 C 2.40625 -5.8125 4.921875 -5.8125 4.921875 -5.8125 C 6.375 -5.8125 6.96875 -6.390625 6.96875 -7.4375 Z M 7.421875 -2.890625 C 7.421875 -3.890625 6.8125 -4.65625 5.59375 -4.65625 C 5.59375 -4.65625 2.40625 -4.65625 2.40625 -4.65625 C 2.40625 -4.65625 2.40625 -1.140625 2.40625 -1.140625 C 2.40625 -1.140625 5.59375 -1.140625 5.59375 -1.140625 C 6.8125 -1.140625 7.421875 -1.921875 7.421875 -2.890625 Z M 7.421875 -2.890625 "/>
</g>
<g id="glyph-0-30-376a6186">
<path d="M 9.484375 -3.71875 C 9.171875 -1.0625 7.765625 0.25 5.28125 0.25 C 2.28125 0.25 0.671875 -2 0.671875 -4.984375 C 0.671875 -7.96875 2.234375 -10.453125 5.328125 -10.453125 C 7.578125 -10.453125 8.859375 -9.28125 9.265625 -7.046875 C 9.265625 -7.046875 7.9375 -7.046875 7.9375 -7.046875 C 7.609375 -8.59375 6.78125 -9.3125 5.1875 -9.3125 C 3.203125 -9.3125 1.96875 -7.609375 1.96875 -5 C 1.96875 -2.453125 3.265625 -0.890625 5.296875 -0.890625 C 7.015625 -0.890625 7.828125 -1.796875 8.140625 -3.71875 C 8.140625 -3.71875 9.484375 -3.71875 9.484375 -3.71875 Z M 9.484375 -3.71875 "/>
</g>
<g id="glyph-0-31-376a6186">
<path d="M 9.34375 -5.109375 C 9.34375 -1.9375 7.75 0 5.1875 0 C 5.1875 0 1.25 0 1.25 0 C 1.25 0 1.25 -10.203125 1.25 -10.203125 C 1.25 -10.203125 5.1875 -10.203125 5.1875 -10.203125 C 7.765625 -10.203125 9.34375 -8.28125 9.34375 -5.109375 Z M 8.03125 -5.09375 C 8.03125 -7.703125 6.96875 -9.0625 4.953125 -9.0625 C 4.953125 -9.0625 2.546875 -9.0625 2.546875 -9.0625 C 2.546875 -9.0625 2.546875 -1.140625 2.546875 -1.140625 C 2.546875 -1.140625 4.953125 -1.140625 4.953125 -1.140625 C 6.96875 -1.140625 8.03125 -2.515625 8.03125 -5.09375 Z M 8.03125 -5.09375 "/>
</g>
<g id="glyph-0-32-376a6186">
<path d="M 9.5 0 C 9.5 0 7.921875 0 7.921875 0 C 7.734375 -0.421875 7.609375 -1.03125 7.625 -1.671875 C 7.625 -1.671875 7.640625 -2.578125 7.640625 -2.578125 C 7.65625 -3.84375 7.109375 -4.390625 5.96875 -4.390625 C 5.96875 -4.390625 2.609375 -4.390625 2.609375 -4.390625 C 2.609375 -4.390625 2.609375 0 2.609375 0 C 2.609375 0 1.296875 0 1.296875 0 C 1.296875 0 1.296875 -10.203125 1.296875 -10.203125 C 1.296875 -10.203125 6 -10.203125 6 -10.203125 C 8.015625 -10.203125 9.109375 -9.234375 9.109375 -7.46875 C 9.109375 -6.3125 8.65625 -5.59375 7.5 -5.046875 C 8.609375 -4.5625 8.859375 -4.0625 8.890625 -2.375 C 8.90625 -1.015625 9.015625 -0.65625 9.5 -0.328125 C 9.5 -0.328125 9.5 0 9.5 0 Z M 7.75 -7.296875 C 7.75 -8.4375 7.203125 -9.0625 5.75 -9.0625 C 5.75 -9.0625 2.609375 -9.0625 2.609375 -9.0625 C 2.609375 -9.0625 2.609375 -5.546875 2.609375 -5.546875 C 2.609375 -5.546875 5.75 -5.546875 5.75 -5.546875 C 7.140625 -5.546875 7.75 -6.09375 7.75 -7.296875 Z M 7.75 -7.296875 "/>
</g>
<g id="glyph-0-33-376a6186">
<path d="M 4.859375 0 C 4.859375 0 3.625 0 3.625 0 C 3.625 0 3.625 -7.0625 3.625 -7.0625 C 3.625 -7.0625 1.421875 -7.0625 1.421875 -7.0625 C 1.421875 -7.0625 1.421875 -7.953125 1.421875 -7.953125 C 3.328125 -8.1875 3.609375 -8.40625 4.046875 -9.921875 C 4.046875 -9.921875 4.859375 -9.921875 4.859375 -9.921875 C 4.859375 -9.921875 4.859375 0 4.859375 0 Z M 4.859375 0 "/>
</g>
<g id="glyph-0-34-376a6186">
<path d="M 10.390625 -5.046875 C 10.390625 -3.4375 9.90625 -2.203125 8.953125 -1.140625 C 8.953125 -1.140625 10.265625 -0.0625 10.265625 -0.0625 C 10.265625 -0.0625 9.609375 0.75 9.609375 0.75 C 9.609375 0.75 8.140625 -0.46875 8.140625 -0.46875 C 7.3125 0.03125 6.46875 0.25 5.453125 0.25 C 2.515625 0.25 0.53125 -1.828125 0.53125 -5.03125 C 0.53125 -8.21875 2.515625 -10.453125 5.453125 -10.453125 C 8.40625 -10.453125 10.390625 -8.21875 10.390625 -5.046875 Z M 9.09375 -5.046875 C 9.09375 -7.546875 7.625 -9.3125 5.453125 -9.3125 C 3.296875 -9.3125 1.828125 -7.546875 1.828125 -5.03125 C 1.828125 -2.5 3.28125 -0.890625 5.453125 -0.890625 C 6.0625 -0.890625 6.53125 -1.015625 7.125 -1.28125 C 7.125 -1.28125 6.09375 -2.15625 6.09375 -2.15625 C 6.09375 -2.15625 6.734375 -2.9375 6.734375 -2.9375 C 6.734375 -2.9375 7.984375 -1.921875 7.984375 -1.921875 C 8.734375 -2.765625 9.09375 -3.71875 9.09375 -5.046875 Z M 9.09375 -5.046875 "/>
</g>
<g id="glyph-1-0-376a6186">
<path d="M 6.8125 0 C 6.8125 0 5.65625 0 5.65625 0 C 5.65625 0 5.65625 -5.078125 5.65625 -5.078125 C 5.65625 -5.96875 5.0625 -6.53125 4.140625 -6.53125 C 2.953125 -6.53125 2.140625 -5.546875 2.140625 -4.046875 C 2.140625 -4.046875 2.140625 0 2.140625 0 C 2.140625 0 0.984375 0 0.984375 0 C 0.984375 0 0.984375 -7.34375 0.984375 -7.34375 C 0.984375 -7.34375 2.0625 -7.34375 2.0625 -7.34375 C 2.0625 -7.34375 2.0625 -6.109375 2.0625 -6.109375 C 2.703125 -7.125 3.40625 -7.546875 4.5 -7.546875 C 5.90625 -7.546875 6.8125 -6.765625 6.8125 -5.546875 C 6.8125 -5.546875 6.8125 0 6.8125 0 Z M 6.8125 0 "/>
</g>
<g id="glyph-1-1-376a6186">
<path d="M 6.9375 3.046875 C 6.9375 3.046875 5.765625 3.046875 5.765625 3.046875 C 5.765625 3.046875 5.765625 -0.953125 5.765625 -0.953125 C 5.21875 -0.15625 4.515625 0.203125 3.5 0.203125 C 1.5625 0.203125 0.359375 -1.203125 0.359375 -3.578125 C 0.359375 -6.015625 1.625 -7.546875 3.5625 -7.546875 C 4.515625 -7.546875 5.34375 -7.125 5.890625 -6.359375 C 5.890625 -6.359375 5.890625 -7.34375 5.890625 -7.34375 C 5.890625 -7.34375 6.9375 -7.34375 6.9375 -7.34375 C 6.9375 -7.34375 6.9375 3.046875 6.9375 3.046875 Z M 5.765625 -3.625 C 5.765625 -5.328125 4.96875 -6.453125 3.71875 -6.453125 C 2.4375 -6.453125 1.578125 -5.359375 1.578125 -3.671875 C 1.578125 -1.953125 2.4375 -0.875 3.71875 -0.875 C 4.953125 -0.875 5.765625 -1.953125 5.765625 -3.625 Z M 5.765625 -3.625 "/>
</g>
<g id="glyph-1-2-376a6186">
<path d="M 7.1875 -3.328125 C 7.1875 -3.328125 1.78125 -3.328125 1.78125 -3.328125 C 1.8125 -1.65625 2.71875 -0.875 3.9375 -0.875 C 4.875 -0.875 5.53125 -1.265625 5.859375 -2.21875 C 5.859375 -2.21875 7.03125 -2.21875 7.03125 -2.21875 C 6.734375 -0.734375 5.578125 0.203125 3.890625 0.203125 C 1.828125 0.203125 0.5625 -1.21875 0.5625 -3.625 C 0.5625 -6.03125 1.875 -7.546875 3.921875 -7.546875 C 5.296875 -7.546875 6.40625 -6.8125 6.890625 -5.609375 C 7.09375 -5.0625 7.1875 -4.390625 7.1875 -3.328125 Z M 5.9375 -4.375 C 5.9375 -5.515625 5.046875 -6.46875 3.90625 -6.46875 C 2.734375 -6.46875 1.90625 -5.59375 1.8125 -4.28125 C 1.8125 -4.28125 5.921875 -4.28125 5.921875 -4.28125 C 5.9375 -4.3125 5.9375 -4.375 5.9375 -4.375 Z M 5.9375 -4.375 "/>
</g>
<g id="glyph-1-3-376a6186">
<path d="M 2.109375 0 C 2.109375 0 0.953125 0 0.953125 0 C 0.953125 0 0.953125 -10.203125 0.953125 -10.203125 C 0.953125 -10.203125 2.109375 -10.203125 2.109375 -10.203125 C 2.109375 -10.203125 2.109375 0 2.109375 0 Z M 2.109375 0 "/>
</g>
<g id="glyph-1-4-376a6186">
<path d="M 7.484375 -0.03125 C 7.109375 0.0625 6.9375 0.09375 6.6875 0.09375 C 6.125 0.09375 5.609375 -0.3125 5.484375 -0.875 C 4.84375 -0.1875 3.9375 0.203125 3 0.203125 C 1.515625 0.203125 0.59375 -0.578125 0.59375 -1.90625 C 0.59375 -2.796875 1.015625 -3.453125 1.875 -3.8125 C 2.328125 -3.984375 2.578125 -4.046875 4.234375 -4.25 C 5.15625 -4.375 5.453125 -4.578125 5.453125 -5.0625 C 5.453125 -5.0625 5.453125 -5.375 5.453125 -5.375 C 5.453125 -6.078125 4.859375 -6.46875 3.8125 -6.46875 C 2.71875 -6.46875 2.1875 -6.0625 2.09375 -5.171875 C 2.09375 -5.171875 0.90625 -5.171875 0.90625 -5.171875 C 0.984375 -6.859375 2.078125 -7.546875 3.84375 -7.546875 C 5.65625 -7.546875 6.609375 -6.84375 6.609375 -5.546875 C 6.609375 -5.546875 6.609375 -1.453125 6.609375 -1.453125 C 6.609375 -1.09375 6.828125 -0.875 7.234375 -0.875 C 7.3125 -0.875 7.359375 -0.875 7.484375 -0.90625 C 7.484375 -0.90625 7.484375 -0.03125 7.484375 -0.03125 Z M 5.453125 -2.53125 C 5.453125 -2.53125 5.453125 -3.625 5.453125 -3.625 C 5.046875 -3.4375 4.796875 -3.390625 3.5625 -3.21875 C 2.328125 -3.03125 1.8125 -2.703125 1.8125 -1.9375 C 1.8125 -1.140625 2.34375 -0.8125 3.25 -0.8125 C 4.375 -0.8125 5.453125 -1.484375 5.453125 -2.53125 Z M 5.453125 -2.53125 "/>
</g>
<g id="glyph-1-5-376a6186">
<path d="M 4.859375 0 C 4.859375 0 3.625 0 3.625 0 C 3.625 0 3.625 -7.0625 3.625 -7.0625 C 3.625 -7.0625 1.421875 -7.0625 1.421875 -7.0625 C 1.421875 -7.0625 1.421875 -7.953125 1.421875 -7.953125 C 3.328125 -8.1875 3.609375 -8.40625 4.046875 -9.921875 C 4.046875 -9.921875 4.859375 -9.921875 4.859375 -9.921875 C 4.859375 -9.921875 4.859375 0 4.859375 0 Z M 4.859375 0 "/>
</g>
<g id="glyph-2-0-376a6186">
<path d="M 7.484375 -0.03125 C 7.109375 0.0625 6.9375 0.09375 6.6875 0.09375 C 6.125 0.09375 5.609375 -0.3125 5.484375 -0.875 C 4.84375 -0.1875 3.9375 0.203125 3 0.203125 C 1.515625 0.203125 0.59375 -0.578125 0.59375 -1.90625 C 0.59375 -2.796875 1.015625 -3.453125 1.875 -3.8125 C 2.328125 -3.984375 2.578125 -4.046875 4.234375 -4.25 C 5.15625 -4.375 5.453125 -4.578125 5.453125 -5.0625 C 5.453125 -5.0625 5.453125 -5.375 5.453125 -5.375 C 5.453125 -6.078125 4.859375 -6.46875 3.8125 -6.46875 C 2.71875 -6.46875 2.1875 -6.0625 2.09375 -5.171875 C 2.09375 -5.171875 0.90625 -5.171875 0.90625 -5.171875 C 0.984375 -6.859375 2.078125 -7.546875 3.84375 -7.546875 C 5.65625 -7.546875 6.609375 -6.84375 6.609375 -5.546875 C 6.609375 -5.546875 6.609375 -1.453125 6.609375 -1.453125 C 6.609375 -1.09375 6.828125 -0.875 7.234375 -0.875 C 7.3125 -0.875 7.359375 -0.875 7.484375 -0.90625 C 7.484375 -0.90625 7.484375 -0.03125 7.484375 -0.03125 Z M 5.453125 -2.53125 C 5.453125 -2.53125 5.453125 -3.625 5.453125 -3.625 C 5.046875 -3.4375 4.796875 -3.390625 3.5625 -3.21875 C 2.328125 -3.03125 1.8125 -2.703125 1.8125 -1.9375 C 1.8125 -1.140625 2.34375 -0.8125 3.25 -0.8125 C 4.375 -0.8125 5.453125 -1.484375 5.453125 -2.53125 Z M 5.453125 -2.53125 "/>
</g>
<g id="glyph-2-1-376a6186">
<path d="M 4.5 -6.3125 C 2.6875 -6.28125 2.140625 -5.453125 2.140625 -3.8125 C 2.140625 -3.8125 2.140625 0 2.140625 0 C 2.140625 0 0.984375 0 0.984375 0 C 0.984375 0 0.984375 -7.34375 0.984375 -7.34375 C 0.984375 -7.34375 2.046875 -7.34375 2.046875 -7.34375 C 2.046875 -7.34375 2.046875 -6 2.046875 -6 C 2.71875 -7.09375 3.296875 -7.546875 4.046875 -7.546875 C 4.203125 -7.546875 4.296875 -7.53125 4.5 -7.5 C 4.5 -7.5 4.5 -6.3125 4.5 -6.3125 Z M 4.5 -6.3125 "/>
</g>
<g id="glyph-2-2-376a6186">
<path d="M 6.671875 -2.515625 C 6.53125 -0.84375 5.4375 0.203125 3.6875 0.203125 C 1.6875 0.203125 0.4375 -1.234375 0.4375 -3.59375 C 0.4375 -6.03125 1.71875 -7.546875 3.703125 -7.546875 C 5.328125 -7.546875 6.453125 -6.65625 6.59375 -4.875 C 6.59375 -4.875 5.421875 -4.875 5.421875 -4.875 C 5.28125 -5.890625 4.65625 -6.46875 3.6875 -6.46875 C 2.40625 -6.46875 1.65625 -5.4375 1.65625 -3.59375 C 1.65625 -1.859375 2.421875 -0.875 3.703125 -0.875 C 4.703125 -0.875 5.3125 -1.34375 5.5 -2.515625 C 5.5 -2.515625 6.671875 -2.515625 6.671875 -2.515625 Z M 6.671875 -2.515625 "/>
</g>
<g id="glyph-2-3-376a6186">
<path d="M 6.421875 -2.0625 C 6.421875 -0.640625 5.25 0.203125 3.40625 0.203125 C 1.484375 0.203125 0.53125 -0.546875 0.46875 -2.234375 C 0.46875 -2.234375 1.703125 -2.234375 1.703125 -2.234375 C 1.859375 -1.125 2.453125 -0.875 3.5 -0.875 C 4.515625 -0.875 5.203125 -1.28125 5.203125 -1.953125 C 5.203125 -2.484375 4.890625 -2.734375 4.078125 -2.921875 C 4.078125 -2.921875 2.984375 -3.1875 2.984375 -3.1875 C 1.25 -3.609375 0.65625 -4.15625 0.65625 -5.3125 C 0.65625 -6.65625 1.765625 -7.546875 3.46875 -7.546875 C 5.171875 -7.546875 6.125 -6.734375 6.125 -5.296875 C 6.125 -5.296875 4.90625 -5.296875 4.90625 -5.296875 C 4.875 -6.0625 4.375 -6.46875 3.4375 -6.46875 C 2.484375 -6.46875 1.875 -6.03125 1.875 -5.359375 C 1.875 -4.84375 2.28125 -4.53125 3.234375 -4.3125 C 3.234375 -4.3125 4.359375 -4.046875 4.359375 -4.046875 C 5.8125 -3.703125 6.421875 -3.15625 6.421875 -2.0625 Z M 6.421875 -2.0625 "/>
</g>
<g id="glyph-3-0-376a6186">
<path d="M 7.484375 -0.03125 C 7.109375 0.0625 6.9375 0.09375 6.6875 0.09375 C 6.125 0.09375 5.609375 -0.3125 5.484375 -0.875 C 4.84375 -0.1875 3.9375 0.203125 3 0.203125 C 1.515625 0.203125 0.59375 -0.578125 0.59375 -1.90625 C 0.59375 -2.796875 1.015625 -3.453125 1.875 -3.8125 C 2.328125 -3.984375 2.578125 -4.046875 4.234375 -4.25 C 5.15625 -4.375 5.453125 -4.578125 5.453125 -5.0625 C 5.453125 -5.0625 5.453125 -5.375 5.453125 -5.375 C 5.453125 -6.078125 4.859375 -6.46875 3.8125 -6.46875 C 2.71875 -6.46875 2.1875 -6.0625 2.09375 -5.171875 C 2.09375 -5.171875 0.90625 -5.171875 0.90625 -5.171875 C 0.984375 -6.859375 2.078125 -7.546875 3.84375 -7.546875 C 5.65625 -7.546875 6.609375 -6.84375 6.609375 -5.546875 C 6.609375 -5.546875 6.609375 -1.453125 6.609375 -1.453125 C 6.609375 -1.09375 6.828125 -0.875 7.234375 -0.875 C 7.3125 -0.875 7.359375 -0.875 7.484375 -0.90625 C 7.484375 -0.90625 7.484375 -0.03125 7.484375 -0.03125 Z M 5.453125 -2.53125 C 5.453125 -2.53125 5.453125 -3.625 5.453125 -3.625 C 5.046875 -3.4375 4.796875 -3.390625 3.5625 -3.21875 C 2.328125 -3.03125 1.8125 -2.703125 1.8125 -1.9375 C 1.8125 -1.140625 2.34375 -0.8125 3.25 -0.8125 C 4.375 -0.8125 5.453125 -1.484375 5.453125 -2.53125 Z M 5.453125 -2.53125 "/>
</g>
<g id="glyph-4-0-376a6186">
<path d="M 4.5 -6.3125 C 2.6875 -6.28125 2.140625 -5.453125 2.140625 -3.8125 C 2.140625 -3.8125 2.140625 0 2.140625 0 C 2.140625 0 0.984375 0 0.984375 0 C 0.984375 0 0.984375 -7.34375 0.984375 -7.34375 C 0.984375 -7.34375 2.046875 -7.34375 2.046875 -7.34375 C 2.046875 -7.34375 2.046875 -6 2.046875 -6 C 2.71875 -7.09375 3.296875 -7.546875 4.046875 -7.546875 C 4.203125 -7.546875 4.296875 -7.53125 4.5 -7.5 C 4.5 -7.5 4.5 -6.3125 4.5 -6.3125 Z M 4.5 -6.3125 "/>
</g>
<g id="glyph-5-0-376a6186">
<path d="M 8.203125 -8.453125 C 8.203125 -8.453125 3.140625 -8.453125 3.140625 -8.453125 C 3.140625 -8.453125 3.140625 -6.140625 3.140625 -6.140625 C 3.140625 -6.140625 7.609375 -6.140625 7.609375 -6.140625 C 7.609375 -6.140625 7.609375 -4.390625 7.609375 -4.390625 C 7.609375 -4.390625 3.140625 -4.390625 3.140625 -4.390625 C 3.140625 -4.390625 3.140625 0 3.140625 0 C 3.140625 0 1.03125 0 1.03125 0 C 1.03125 0 1.03125 -10.203125 1.03125 -10.203125 C 1.03125 -10.203125 8.203125 -10.203125 8.203125 -10.203125 C 8.203125 -10.203125 8.203125 -8.453125 8.203125 -8.453125 Z M 8.203125 -8.453125 "/>
</g>
<g id="glyph-5-1-376a6186">
<path d="M 2.890625 0 C 2.890625 0 0.9375 0 0.9375 0 C 0.9375 0 0.9375 -7.5625 0.9375 -7.5625 C 0.9375 -7.5625 2.890625 -7.5625 2.890625 -7.5625 C 2.890625 -7.5625 2.890625 0 2.890625 0 Z M 2.921875 -8.46875 C 2.921875 -8.46875 0.96875 -8.46875 0.96875 -8.46875 C 0.96875 -8.46875 0.96875 -10.4375 0.96875 -10.4375 C 0.96875 -10.4375 2.921875 -10.4375 2.921875 -10.4375 C 2.921875 -10.4375 2.921875 -8.46875 2.921875 -8.46875 Z M 2.921875 -8.46875 "/>
</g>
<g id="glyph-5-2-376a6186">
<path d="M 7.578125 0.25 C 7.578125 2.03125 6.265625 3.046875 3.96875 3.046875 C 1.90625 3.046875 0.65625 2.140625 0.625 0.90625 C 0.625 0.90625 2.65625 0.90625 2.65625 0.90625 C 2.8125 1.484375 3.296875 1.796875 4.046875 1.796875 C 5.03125 1.796875 5.71875 1.15625 5.71875 0.25 C 5.71875 0.25 5.71875 -0.875 5.71875 -0.875 C 4.984375 -0.140625 4.453125 0.125 3.5625 0.125 C 1.703125 0.125 0.46875 -1.34375 0.46875 -3.703125 C 0.46875 -6.03125 1.8125 -7.6875 3.609375 -7.6875 C 4.484375 -7.6875 5.125 -7.296875 5.71875 -6.390625 C 5.71875 -6.390625 5.71875 -7.5625 5.71875 -7.5625 C 5.71875 -7.5625 7.578125 -7.5625 7.578125 -7.5625 C 7.578125 -7.5625 7.578125 0.25 7.578125 0.25 Z M 5.734375 -3.71875 C 5.734375 -5.125 5.015625 -6.046875 4.03125 -6.046875 C 3.078125 -6.046875 2.4375 -5.15625 2.4375 -3.71875 C 2.4375 -2.359375 3.078125 -1.515625 4 -1.515625 C 5.03125 -1.515625 5.734375 -2.359375 5.734375 -3.71875 Z M 5.734375 -3.71875 "/>
</g>
<g id="glyph-5-3-376a6186">
</g>
<g id="glyph-5-4-376a6186">
<path d="M 7.265625 -3.421875 C 7.265625 -1.265625 5.921875 0.125 3.953125 0.125 C 2.765625 0.125 1.734375 -0.328125 1.15625 -1.25 C 0.65625 -2.046875 0.453125 -3.015625 0.453125 -4.71875 C 0.453125 -8.28125 1.71875 -10.140625 4.109375 -10.140625 C 5.734375 -10.140625 6.84375 -9.3125 7.09375 -7.671875 C 7.09375 -7.671875 5.28125 -7.671875 5.28125 -7.671875 C 5.03125 -8.296875 4.6875 -8.546875 4.0625 -8.546875 C 2.84375 -8.546875 2.484375 -7.65625 2.40625 -5.65625 C 3.03125 -6.296875 3.5625 -6.53125 4.375 -6.53125 C 6.09375 -6.53125 7.265625 -5.3125 7.265625 -3.421875 Z M 5.40625 -3.296875 C 5.40625 -4.375 4.8125 -5 3.90625 -5 C 3 -5 2.375 -4.34375 2.375 -3.25 C 2.375 -2.203125 3 -1.546875 3.890625 -1.546875 C 4.765625 -1.546875 5.40625 -2.21875 5.40625 -3.296875 Z M 5.40625 -3.296875 "/>
</g>
<g id="glyph-5-5-376a6186">
<path d="M 7.34375 0 C 7.34375 0 5.203125 0 5.203125 0 C 5.03125 -0.21875 4.984375 -0.5625 4.984375 -0.953125 C 4.296875 -0.234375 3.53125 0.125 2.6875 0.125 C 1.421875 0.125 0.390625 -0.578125 0.390625 -2.046875 C 0.390625 -3.421875 1.125 -4.0625 2.625 -4.328125 C 2.625 -4.328125 3.40625 -4.46875 3.40625 -4.46875 C 4.375 -4.640625 4.96875 -4.546875 4.96875 -5.34375 C 4.96875 -5.859375 4.59375 -6.109375 3.84375 -6.109375 C 2.875 -6.109375 2.546875 -5.859375 2.453125 -5.0625 C 2.453125 -5.0625 0.5625 -5.0625 0.5625 -5.0625 C 0.6875 -6.8125 1.75 -7.6875 3.796875 -7.6875 C 5.84375 -7.6875 6.890625 -6.90625 6.890625 -5.359375 C 6.890625 -5.359375 6.890625 -1.15625 6.890625 -1.15625 C 6.890625 -0.765625 6.984375 -0.5625 7.34375 -0.234375 C 7.34375 -0.234375 7.34375 0 7.34375 0 Z M 4.96875 -3.234375 C 4.96875 -3.234375 4.96875 -3.5625 4.96875 -3.5625 C 4.75 -3.453125 4.65625 -3.4375 4.140625 -3.328125 C 4.140625 -3.328125 3.46875 -3.203125 3.46875 -3.203125 C 2.65625 -3.046875 2.359375 -2.84375 2.359375 -2.265625 C 2.359375 -1.703125 2.765625 -1.453125 3.421875 -1.453125 C 4.40625 -1.453125 4.96875 -2.09375 4.96875 -3.234375 Z M 4.96875 -3.234375 "/>
</g>
<g id="glyph-5-6-376a6186">
<path d="M 3.390625 0 C 3.390625 0 1.28125 0 1.28125 0 C 1.28125 0 1.28125 -2.046875 1.28125 -2.046875 C 1.28125 -2.046875 3.390625 -2.046875 3.390625 -2.046875 C 3.390625 -2.046875 3.390625 0 3.390625 0 Z M 3.390625 -5.234375 C 3.390625 -5.234375 1.28125 -5.234375 1.28125 -5.234375 C 1.28125 -5.234375 1.28125 -7.28125 1.28125 -7.28125 C 1.28125 -7.28125 3.390625 -7.28125 3.390625 -7.28125 C 3.390625 -7.28125 3.390625 -5.234375 3.390625 -5.234375 Z M 3.390625 -5.234375 "/>
</g>
<g id="glyph-5-7-376a6186">
<path d="M 10.859375 0 C 10.859375 0 8.765625 0 8.765625 0 C 8.765625 0 8.765625 -7.953125 8.765625 -7.953125 C 8.765625 -7.953125 6.953125 0 6.953125 0 C 6.953125 0 4.859375 0 4.859375 0 C 4.859375 0 3.03125 -7.953125 3.03125 -7.953125 C 3.03125 -7.953125 3.03125 0 3.03125 0 C 3.03125 0 0.921875 0 0.921875 0 C 0.921875 0 0.921875 -10.203125 0.921875 -10.203125 C 0.921875 -10.203125 4.0625 -10.203125 4.0625 -10.203125 C 4.0625 -10.203125 5.90625 -2.09375 5.90625 -2.09375 C 5.90625 -2.09375 7.703125 -10.203125 7.703125 -10.203125 C 7.703125 -10.203125 10.859375 -10.203125 10.859375 -10.203125 C 10.859375 -10.203125 10.859375 0 10.859375 0 Z M 10.859375 0 "/>
</g>
<g id="glyph-5-8-376a6186">
<path d="M 7.28125 -2.234375 C 7.28125 -0.71875 6.109375 0.125 3.96875 0.125 C 1.6875 0.125 0.46875 -0.734375 0.40625 -2.390625 C 0.40625 -2.390625 2.328125 -2.390625 2.328125 -2.390625 C 2.484375 -1.578125 2.96875 -1.40625 3.859375 -1.40625 C 4.78125 -1.40625 5.3125 -1.59375 5.3125 -2.0625 C 5.3125 -2.265625 5.15625 -2.421875 4.65625 -2.578125 C 4.65625 -2.578125 2.328125 -3.296875 2.328125 -3.296875 C 0.921875 -3.734375 0.671875 -4.234375 0.671875 -5.171875 C 0.671875 -6.71875 1.859375 -7.6875 3.78125 -7.6875 C 5.8125 -7.6875 7.046875 -6.71875 7.0625 -5.125 C 7.0625 -5.125 5.1875 -5.125 5.1875 -5.125 C 5.171875 -5.8125 4.703125 -6.140625 3.765625 -6.140625 C 3.078125 -6.140625 2.625 -5.859375 2.625 -5.453125 C 2.625 -5.140625 2.765625 -5.015625 3.3125 -4.859375 C 3.3125 -4.859375 5.796875 -4.140625 5.796875 -4.140625 C 6.796875 -3.84375 7.28125 -3.203125 7.28125 -2.34375 C 7.28125 -2.34375 7.28125 -2.234375 7.28125 -2.234375 Z M 7.28125 -2.234375 "/>
</g>
<g id="glyph-5-9-376a6186">
<path d="M 7.3125 -2.625 C 7.125 -1.015625 5.859375 0.125 4.015625 0.125 C 1.78125 0.125 0.46875 -1.234375 0.46875 -3.71875 C 0.46875 -6.296875 1.796875 -7.6875 4.046875 -7.6875 C 5.9375 -7.6875 7.171875 -6.578125 7.3125 -4.734375 C 7.3125 -4.734375 5.4375 -4.734375 5.4375 -4.734375 C 5.203125 -5.71875 4.828125 -6.109375 4.03125 -6.109375 C 2.796875 -6.109375 2.4375 -5.109375 2.4375 -3.71875 C 2.4375 -2.25 3.03125 -1.453125 4.03125 -1.453125 C 4.78125 -1.453125 5.1875 -1.828125 5.4375 -2.625 C 5.4375 -2.625 7.3125 -2.625 7.3125 -2.625 Z M 7.3125 -2.625 "/>
</g>
<g id="glyph-5-10-376a6186">
<path d="M 2.890625 0 C 2.890625 0 0.9375 0 0.9375 0 C 0.9375 0 0.9375 -10.203125 0.9375 -10.203125 C 0.9375 -10.203125 2.890625 -10.203125 2.890625 -10.203125 C 2.890625 -10.203125 2.890625 0 2.890625 0 Z M 2.890625 0 "/>
</g>
<g id="glyph-5-11-376a6186">
<path d="M 7.34375 -3.5 C 7.34375 -3.5 7.34375 -3.265625 7.34375 -3.265625 C 7.34375 -3.265625 2.265625 -3.265625 2.265625 -3.265625 C 2.328125 -1.796875 2.90625 -1.375 3.84375 -1.375 C 4.546875 -1.375 5.171875 -1.578125 5.328125 -2.125 C 5.328125 -2.125 7.265625 -2.125 7.265625 -2.125 C 6.828125 -0.640625 5.453125 0.125 3.765625 0.125 C 1.625 0.125 0.3125 -1.265625 0.3125 -3.6875 C 0.3125 -6.21875 1.640625 -7.6875 3.8125 -7.6875 C 6.03125 -7.6875 7.34375 -6.109375 7.34375 -3.5 Z M 5.3125 -4.5625 C 5.203125 -5.640625 4.625 -6.1875 3.78125 -6.1875 C 2.90625 -6.1875 2.421875 -5.609375 2.296875 -4.5625 C 2.296875 -4.5625 5.3125 -4.5625 5.3125 -4.5625 Z M 5.3125 -4.5625 "/>
</g>
<g id="glyph-5-12-376a6186">
<path d="M 7.625 0 C 7.625 0 5.671875 0 5.671875 0 C 5.671875 0 5.671875 -0.875 5.671875 -0.875 C 5.1875 -0.21875 4.515625 0.125 3.578125 0.125 C 1.578125 0.125 0.40625 -1.625 0.40625 -3.765625 C 0.40625 -6.046875 1.78125 -7.6875 3.578125 -7.6875 C 4.515625 -7.6875 5.1875 -7.34375 5.671875 -6.578125 C 5.671875 -6.578125 5.671875 -10.203125 5.671875 -10.203125 C 5.671875 -10.203125 7.625 -10.203125 7.625 -10.203125 C 7.625 -10.203125 7.625 0 7.625 0 Z M 5.671875 -3.734375 C 5.671875 -5.1875 5.015625 -6.046875 4.015625 -6.046875 C 3.03125 -6.046875 2.359375 -5.171875 2.359375 -3.765625 C 2.359375 -2.375 3.03125 -1.515625 4.015625 -1.515625 C 5 -1.515625 5.671875 -2.359375 5.671875 -3.734375 Z M 5.671875 -3.734375 "/>
</g>
<g id="glyph-5-13-376a6186">
<path d="M 9.84375 0 C 9.84375 0 7.6875 0 7.6875 0 C 7.6875 0 7.015625 -2.0625 7.015625 -2.0625 C 7.015625 -2.0625 3.1875 -2.0625 3.1875 -2.0625 C 3.1875 -2.0625 2.5 0 2.5 0 C 2.5 0 0.359375 0 0.359375 0 C 0.359375 0 3.984375 -10.203125 3.984375 -10.203125 C 3.984375 -10.203125 6.3125 -10.203125 6.3125 -10.203125 C 6.3125 -10.203125 9.84375 0 9.84375 0 Z M 6.4375 -3.8125 C 6.4375 -3.8125 5.109375 -7.796875 5.109375 -7.796875 C 5.109375 -7.796875 3.78125 -3.8125 3.78125 -3.8125 C 3.78125 -3.8125 6.4375 -3.8125 6.4375 -3.8125 Z M 6.4375 -3.8125 "/>
</g>
<g id="glyph-5-14-376a6186">
<path d="M 8.03125 -3.78125 C 8.03125 -1.484375 6.6875 0.125 4.875 0.125 C 3.921875 0.125 3.25 -0.171875 2.765625 -1.015625 C 2.765625 -1.015625 2.765625 3.046875 2.765625 3.046875 C 2.765625 3.046875 0.8125 3.046875 0.8125 3.046875 C 0.8125 3.046875 0.8125 -7.5625 0.8125 -7.5625 C 0.8125 -7.5625 2.765625 -7.5625 2.765625 -7.5625 C 2.765625 -7.5625 2.765625 -6.4375 2.765625 -6.4375 C 3.25 -7.28125 3.921875 -7.6875 4.875 -7.6875 C 6.84375 -7.6875 8.03125 -6.015625 8.03125 -3.78125 Z M 6.078125 -3.75 C 6.078125 -5.1875 5.421875 -6.046875 4.421875 -6.046875 C 3.4375 -6.046875 2.765625 -5.1875 2.765625 -3.78125 C 2.765625 -2.359375 3.4375 -1.515625 4.421875 -1.515625 C 5.390625 -1.515625 6.078125 -2.375 6.078125 -3.75 Z M 6.078125 -3.75 "/>
</g>
<g id="glyph-5-15-376a6186">
<path d="M 5.1875 -5.6875 C 4.90625 -5.71875 4.78125 -5.734375 4.5625 -5.734375 C 3.421875 -5.734375 2.84375 -5.171875 2.84375 -4.015625 C 2.84375 -4.015625 2.84375 0 2.84375 0 C 2.84375 0 0.875 0 0.875 0 C 0.875 0 0.875 -7.5625 0.875 -7.5625 C 0.875 -7.5625 2.84375 -7.5625 2.84375 -7.5625 C 2.84375 -7.5625 2.84375 -6.078125 2.84375 -6.078125 C 3.265625 -7.09375 4.046875 -7.6875 4.9375 -7.6875 C 5 -7.6875 5.0625 -7.6875 5.1875 -7.671875 C 5.1875 -7.671875 5.1875 -5.6875 5.1875 -5.6875 Z M 5.1875 -5.6875 "/>
</g>
<g id="glyph-5-16-376a6186">
<path d="M 8.109375 0 C 8.109375 0 1.125 0 1.125 0 C 1.125 0 1.125 -10.203125 1.125 -10.203125 C 1.125 -10.203125 3.21875 -10.203125 3.21875 -10.203125 C 3.21875 -10.203125 3.21875 -1.75 3.21875 -1.75 C 3.21875 -1.75 8.109375 -1.75 8.109375 -1.75 C 8.109375 -1.75 8.109375 0 8.109375 0 Z M 8.109375 0 "/>
</g>
<g id="glyph-5-17-376a6186">
<path d="M 7.96875 -3.71875 C 7.96875 -1.296875 6.53125 0.125 4.234375 0.125 C 1.90625 0.125 0.484375 -1.28125 0.484375 -3.78125 C 0.484375 -6.265625 1.90625 -7.6875 4.21875 -7.6875 C 6.578125 -7.6875 7.96875 -6.28125 7.96875 -3.71875 Z M 6 -3.75 C 6 -5.234375 5.3125 -6.109375 4.234375 -6.109375 C 3.15625 -6.109375 2.453125 -5.21875 2.453125 -3.78125 C 2.453125 -2.34375 3.15625 -1.453125 4.234375 -1.453125 C 5.28125 -1.453125 6 -2.34375 6 -3.75 Z M 6 -3.75 "/>
</g>
<g id="glyph-5-18-376a6186">
<path d="M 7.578125 0 C 7.578125 0 5.609375 0 5.609375 0 C 5.609375 0 5.609375 -1 5.609375 -1 C 5.046875 -0.25 4.375 0.125 3.34375 0.125 C 1.734375 0.125 0.8125 -0.828125 0.8125 -2.484375 C 0.8125 -2.484375 0.8125 -7.5625 0.8125 -7.5625 C 0.8125 -7.5625 2.765625 -7.5625 2.765625 -7.5625 C 2.765625 -7.5625 2.765625 -2.890625 2.765625 -2.890625 C 2.765625 -1.984375 3.1875 -1.546875 4.03125 -1.546875 C 4.984375 -1.546875 5.609375 -2.125 5.609375 -3.03125 C 5.609375 -3.03125 5.609375 -7.5625 5.609375 -7.5625 C 5.609375 -7.5625 7.578125 -7.5625 7.578125 -7.5625 C 7.578125 -7.5625 7.578125 0 7.578125 0 Z M 7.578125 0 "/>
</g>
<g id="glyph-5-19-376a6186">
<path d="M 8.046875 -3.6875 C 8.046875 -1.40625 6.671875 0.125 4.875 0.125 C 3.921875 0.125 3.265625 -0.21875 2.78125 -0.875 C 2.78125 -0.875 2.78125 0 2.78125 0 C 2.78125 0 0.828125 0 0.828125 0 C 0.828125 0 0.828125 -10.203125 0.828125 -10.203125 C 0.828125 -10.203125 2.78125 -10.203125 2.78125 -10.203125 C 2.78125 -10.203125 2.78125 -6.578125 2.78125 -6.578125 C 3.265625 -7.34375 3.9375 -7.6875 4.875 -7.6875 C 6.859375 -7.6875 8.046875 -5.828125 8.046875 -3.6875 Z M 6.09375 -3.765625 C 6.09375 -5.171875 5.40625 -6.046875 4.4375 -6.046875 C 3.453125 -6.046875 2.78125 -5.1875 2.78125 -3.8125 C 2.78125 -2.359375 3.4375 -1.515625 4.4375 -1.515625 C 5.40625 -1.515625 6.09375 -2.390625 6.09375 -3.765625 Z M 6.09375 -3.765625 "/>
</g>
<g id="glyph-5-20-376a6186">
<path d="M 7.53125 -7.5625 C 7.53125 -7.5625 4.421875 1.390625 4.421875 1.390625 C 3.90625 2.828125 3.21875 3.0625 1.90625 3.0625 C 1.671875 3.0625 1.5 3.046875 1.203125 3.015625 C 1.203125 3.015625 1.203125 1.546875 1.203125 1.546875 C 1.453125 1.609375 1.5625 1.625 1.71875 1.625 C 2.40625 1.625 2.9375 1.078125 2.9375 0.359375 C 2.9375 0.359375 2.9375 0.328125 2.9375 0.328125 C 2.9375 0.328125 0.125 -7.5625 0.125 -7.5625 C 0.125 -7.5625 2.28125 -7.5625 2.28125 -7.5625 C 2.28125 -7.5625 3.953125 -2.0625 3.953125 -2.0625 C 3.953125 -2.0625 5.515625 -7.5625 5.515625 -7.5625 C 5.515625 -7.5625 7.53125 -7.5625 7.53125 -7.5625 Z M 7.53125 -7.5625 "/>
</g>
<g id="glyph-5-21-376a6186">
<path d="M 8.375 -8.453125 C 8.375 -8.453125 5.390625 -8.453125 5.390625 -8.453125 C 5.390625 -8.453125 5.390625 0 5.390625 0 C 5.390625 0 3.296875 0 3.296875 0 C 3.296875 0 3.296875 -8.453125 3.296875 -8.453125 C 3.296875 -8.453125 0.203125 -8.453125 0.203125 -8.453125 C 0.203125 -8.453125 0.203125 -10.203125 0.203125 -10.203125 C 0.203125 -10.203125 8.375 -10.203125 8.375 -10.203125 C 8.375 -10.203125 8.375 -8.453125 8.375 -8.453125 Z M 8.375 -8.453125 "/>
</g>
<g id="glyph-6-0-376a6186">
</g>
</g>
</defs>
<rect x="-90" y="-60" width="1080" height="720" fill="rgb(100%, 100%, 100%)" fill-opacity="1"/>
<path fill-rule="nonzero" fill="rgb(100%, 100%, 100%)" fill-opacity="1" d="M 81 541 L 884 541 L 884 36 L 81 36 Z M 81 541 "/>
<path fill="none" stroke-width="1" stroke-linecap="butt" stroke-linejoin="miter" stroke="rgb(0%, 0%, 0%)" stroke-opacity="0.12" stroke-miterlimit="1.154701" d="M 117.5 541 L 117.5 36 "/>
<path fill="none" stroke-width="1" stroke-linecap="butt" stroke-linejoin="miter" stroke="rgb(0%, 0%, 0%)" stroke-opacity="0.12" stroke-miterlimit="1.154701" d="M 416.679688 541 L 416.679688 36 "/>
<path fill="none" stroke-width="1" stroke-linecap="butt" stroke-linejoin="miter" stroke="rgb(0%, 0%, 0%)" stroke-opacity="0.12" stroke-miterlimit="1.154701" d="M 715.859375 541 L 715.859375 36 "/>
<path fill="none" stroke-width="1" stroke-linecap="butt" stroke-linejoin="miter" stroke="rgb(0%, 0%, 0%)" stroke-opacity="0.12" stroke-miterlimit="1.154701" d="M 81 502.867188 L 884 502.867188 "/>
<path fill="none" stroke-width="1" stroke-linecap="butt" stroke-linejoin="miter" stroke="rgb(0%, 0%, 0%)" stroke-opacity="0.12" stroke-miterlimit="1.154701" d="M 81 459.996094 L 884 459.996094 "/>
<path fill="none" stroke-width="1" stroke-linecap="butt" stroke-linejoin="miter" stroke="rgb(0%, 0%, 0%)" stroke-opacity="0.12" stroke-miterlimit="1.154701" d="M 81 417.121094 L 884 417.121094 "/>
<path fill="none" stroke-width="1" stroke-linecap="butt" stroke-linejoin="miter" stroke="rgb(0%, 0%, 0%)" stroke-opacity="0.12" stroke-miterlimit="1.154701" d="M 81 374.246094 L 884 374.246094 "/>
<path fill="none" stroke-width="1" stroke-linecap="butt" stroke-linejoin="miter" stroke="rgb(0%, 0%, 0%)" stroke-opacity="0.12" stroke-miterlimit="1.154701" d="M 81 331.375 L 884 331.375 "/>
<path fill="none" stroke-width="1" stroke-linecap="butt" stroke-linejoin="miter" stroke="rgb(0%, 0%, 0%)" stroke-opacity="0.12" stroke-miterlimit="1.154701" d="M 81 288.5 L 884 288.5 "/>
<path fill="none" stroke-width="1" stroke-linecap="butt" stroke-linejoin="miter" stroke="rgb(0%, 0%, 0%)" stroke-opacity="0.12" stroke-miterlimit="1.154701" d="M 81 245.625 L 884 245.625 "/>
<path fill="none" stroke-width="1" stroke-linecap="butt" stroke-linejoin="miter" stroke="rgb(0%, 0%, 0%)" stroke-opacity="0.12" stroke-miterlimit="1.154701" d="M 81 202.753906 L 884 202.753906 "/>
<path fill="none" stroke-width="1" stroke-linecap="butt" stroke-linejoin="miter" stroke="rgb(0%, 0%, 0%)" stroke-opacity="0.12" stroke-miterlimit="1.154701" d="M 81 159.878906 L 884 159.878906 "/>
<path fill="none" stroke-width="1" stroke-linecap="butt" stroke-linejoin="miter" stroke="rgb(0%, 0%, 0%)" stroke-opacity="0.12" stroke-miterlimit="1.154701" d="M 81 117.003906 L 884 117.003906 "/>
<path fill="none" stroke-width="1" stroke-linecap="butt" stroke-linejoin="miter" stroke="rgb(0%, 0%, 0%)" stroke-opacity="0.12" stroke-miterlimit="1.154701" d="M 81 74.132812 L 884 74.132812 "/>
<g fill="rgb(0%, 0%, 0%)" fill-opacity="1">
<use xlink:href="#glyph-0-0-376a6186" x="346.357034" y="581.567999"/>
<use xlink:href="#glyph-0-1-376a6186" x="358.019036" y="581.567999"/>
<use xlink:href="#glyph-0-2-376a6186" x="361.127031" y="581.567999"/>
<use xlink:href="#glyph-0-3-376a6186" x="368.127038" y="581.567999"/>
<use xlink:href="#glyph-0-4-376a6186" x="375.127039" y="581.567999"/>
<use xlink:href="#glyph-0-5-376a6186" x="382.911035" y="581.567999"/>
<use xlink:href="#glyph-0-5-376a6186" x="386.019037" y="581.567999"/>
<use xlink:href="#glyph-0-6-376a6186" x="389.127039" y="581.567999"/>
<use xlink:href="#glyph-0-7-376a6186" x="396.911036" y="581.567999"/>
<use xlink:href="#glyph-0-8-376a6186" x="404.69504" y="581.567999"/>
<use xlink:href="#glyph-0-9-376a6186" x="408.587038" y="581.567999"/>
<use xlink:href="#glyph-0-5-376a6186" x="417.925036" y="581.567999"/>
<use xlink:href="#glyph-0-5-376a6186" x="421.033038" y="581.567999"/>
<use xlink:href="#glyph-0-6-376a6186" x="424.14104" y="581.567999"/>
<use xlink:href="#glyph-0-5-376a6186" x="431.925036" y="581.567999"/>
<use xlink:href="#glyph-0-6-376a6186" x="435.033038" y="581.567999"/>
<use xlink:href="#glyph-0-2-376a6186" x="442.817035" y="581.567999"/>
<use xlink:href="#glyph-0-8-376a6186" x="449.817035" y="581.567999"/>
<use xlink:href="#glyph-0-10-376a6186" x="453.709034" y="581.567999"/>
<use xlink:href="#glyph-0-2-376a6186" x="458.371036" y="581.567999"/>
<use xlink:href="#glyph-0-11-376a6186" x="465.371036" y="581.567999"/>
<use xlink:href="#glyph-0-12-376a6186" x="473.155033" y="581.567999"/>
<use xlink:href="#glyph-0-12-376a6186" x="484.817028" y="581.567999"/>
<use xlink:href="#glyph-0-6-376a6186" x="496.479031" y="581.567999"/>
<use xlink:href="#glyph-0-7-376a6186" x="504.263028" y="581.567999"/>
<use xlink:href="#glyph-0-8-376a6186" x="512.047025" y="581.567999"/>
<use xlink:href="#glyph-0-4-376a6186" x="515.939023" y="581.567999"/>
<use xlink:href="#glyph-0-3-376a6186" x="523.72302" y="581.567999"/>
<use xlink:href="#glyph-0-13-376a6186" x="530.72302" y="581.567999"/>
<use xlink:href="#glyph-0-14-376a6186" x="535.385023" y="581.567999"/>
<use xlink:href="#glyph-0-2-376a6186" x="543.16902" y="581.567999"/>
<use xlink:href="#glyph-0-2-376a6186" x="550.16902" y="581.567999"/>
<use xlink:href="#glyph-0-8-376a6186" x="557.16902" y="581.567999"/>
<use xlink:href="#glyph-0-7-376a6186" x="561.061018" y="581.567999"/>
<use xlink:href="#glyph-0-4-376a6186" x="568.845015" y="581.567999"/>
<use xlink:href="#glyph-0-15-376a6186" x="576.629012" y="581.567999"/>
<use xlink:href="#glyph-0-4-376a6186" x="580.52101" y="581.567999"/>
<use xlink:href="#glyph-0-2-376a6186" x="588.305007" y="581.567999"/>
<use xlink:href="#glyph-0-6-376a6186" x="595.305007" y="581.567999"/>
<use xlink:href="#glyph-0-15-376a6186" x="603.089004" y="581.567999"/>
<use xlink:href="#glyph-0-2-376a6186" x="606.981002" y="581.567999"/>
<use xlink:href="#glyph-0-16-376a6186" x="613.981002" y="581.567999"/>
</g>
<g fill="rgb(0%, 0%, 0%)" fill-opacity="1">
<use xlink:href="#glyph-0-17-376a6186" x="113.608003" y="562.257999"/>
</g>
<g fill="rgb(0%, 0%, 0%)" fill-opacity="1">
<use xlink:href="#glyph-0-18-376a6186" x="405.004339" y="562.257999"/>
<use xlink:href="#glyph-0-17-376a6186" x="412.788339" y="562.257999"/>
<use xlink:href="#glyph-0-17-376a6186" x="420.572339" y="562.257999"/>
</g>
<g fill="rgb(0%, 0%, 0%)" fill-opacity="1">
<use xlink:href="#glyph-0-19-376a6186" x="704.184674" y="562.257999"/>
<use xlink:href="#glyph-0-17-376a6186" x="711.968674" y="562.257999"/>
<use xlink:href="#glyph-0-17-376a6186" x="719.752674" y="562.257999"/>
</g>
<g fill="rgb(0%, 0%, 0%)" fill-opacity="1">
<use xlink:href="#glyph-0-20-376a6186" x="17.323998" y="507.971185"/>
<use xlink:href="#glyph-0-5-376a6186" x="25.107999" y="507.971185"/>
<use xlink:href="#glyph-0-4-376a6186" x="28.215996" y="507.971185"/>
<use xlink:href="#glyph-0-12-376a6186" x="36.000001" y="507.971185"/>
<use xlink:href="#glyph-0-1-376a6186" x="47.662" y="507.971185"/>
</g>
<g fill="rgb(0%, 0%, 0%)" fill-opacity="1">
<use xlink:href="#glyph-1-0-376a6186" x="50.770002" y="507.971185"/>
</g>
<g fill="rgb(0%, 0%, 0%)" fill-opacity="1">
<use xlink:href="#glyph-0-6-376a6186" x="58.554002" y="507.971185"/>
<use xlink:href="#glyph-0-13-376a6186" x="66.338003" y="507.971185"/>
</g>
<g fill="rgb(0%, 0%, 0%)" fill-opacity="1">
<use xlink:href="#glyph-0-21-376a6186" x="40.648" y="465.09755"/>
<use xlink:href="#glyph-0-20-376a6186" x="48.432" y="465.09755"/>
<use xlink:href="#glyph-0-5-376a6186" x="56.216" y="465.09755"/>
<use xlink:href="#glyph-0-4-376a6186" x="59.324001" y="465.09755"/>
<use xlink:href="#glyph-0-15-376a6186" x="67.108001" y="465.09755"/>
</g>
<g fill="rgb(0%, 0%, 0%)" fill-opacity="1">
<use xlink:href="#glyph-0-20-376a6186" x="14.972" y="422.223907"/>
<use xlink:href="#glyph-0-5-376a6186" x="22.756001" y="422.223907"/>
<use xlink:href="#glyph-0-4-376a6186" x="25.863999" y="422.223907"/>
<use xlink:href="#glyph-0-22-376a6186" x="33.648003" y="422.223907"/>
<use xlink:href="#glyph-0-23-376a6186" x="40.648002" y="422.223907"/>
<use xlink:href="#glyph-0-2-376a6186" x="48.432" y="422.223907"/>
<use xlink:href="#glyph-0-6-376a6186" x="55.432001" y="422.223907"/>
</g>
<g fill="rgb(0%, 0%, 0%)" fill-opacity="1">
<use xlink:href="#glyph-1-1-376a6186" x="63.216001" y="422.223907"/>
</g>
<g fill="rgb(0%, 0%, 0%)" fill-opacity="1">
<use xlink:href="#glyph-0-20-376a6186" x="17.310002" y="379.350263"/>
<use xlink:href="#glyph-0-5-376a6186" x="25.094002" y="379.350263"/>
<use xlink:href="#glyph-0-4-376a6186" x="28.202004" y="379.350263"/>
<use xlink:href="#glyph-0-24-376a6186" x="35.986001" y="379.350263"/>
<use xlink:href="#glyph-0-14-376a6186" x="39.878003" y="379.350263"/>
<use xlink:href="#glyph-0-13-376a6186" x="47.662004" y="379.350263"/>
</g>
<g fill="rgb(0%, 0%, 0%)" fill-opacity="1">
<use xlink:href="#glyph-1-2-376a6186" x="52.324003" y="379.350263"/>
</g>
<g fill="rgb(0%, 0%, 0%)" fill-opacity="1">
<use xlink:href="#glyph-0-2-376a6186" x="60.108003" y="379.350263"/>
<use xlink:href="#glyph-0-15-376a6186" x="67.108003" y="379.350263"/>
</g>
<g fill="rgb(0%, 0%, 0%)" fill-opacity="1">
<use xlink:href="#glyph-0-2-376a6186" x="21.971997" y="336.47662"/>
<use xlink:href="#glyph-0-6-376a6186" x="28.971997" y="336.47662"/>
<use xlink:href="#glyph-0-25-376a6186" x="36.755998" y="336.47662"/>
<use xlink:href="#glyph-0-18-376a6186" x="44.539998" y="336.47662"/>
<use xlink:href="#glyph-0-20-376a6186" x="52.323999" y="336.47662"/>
</g>
<g fill="rgb(0%, 0%, 0%)" fill-opacity="1">
<use xlink:href="#glyph-1-3-376a6186" x="60.107999" y="336.47662"/>
<use xlink:href="#glyph-1-4-376a6186" x="63.216001" y="336.47662"/>
</g>
<g fill="rgb(0%, 0%, 0%)" fill-opacity="1">
<use xlink:href="#glyph-0-20-376a6186" x="41.432" y="293.602993"/>
<use xlink:href="#glyph-0-1-376a6186" x="49.216001" y="293.602993"/>
<use xlink:href="#glyph-0-2-376a6186" x="52.324001" y="293.602993"/>
<use xlink:href="#glyph-0-4-376a6186" x="59.324001" y="293.602993"/>
<use xlink:href="#glyph-0-15-376a6186" x="67.108001" y="293.602993"/>
</g>
<g fill="rgb(0%, 0%, 0%)" fill-opacity="1">
<use xlink:href="#glyph-2-0-376a6186" x="36.770001" y="250.729365"/>
<use xlink:href="#glyph-2-1-376a6186" x="44.554002" y="250.729365"/>
<use xlink:href="#glyph-2-2-376a6186" x="49.216001" y="250.729365"/>
</g>
<g fill="rgb(0%, 0%, 0%)" fill-opacity="1">
<use xlink:href="#glyph-3-0-376a6186" x="56.216001" y="250.729365"/>
</g>
<g fill="rgb(0%, 0%, 0%)" fill-opacity="1">
<use xlink:href="#glyph-2-3-376a6186" x="64.000002" y="250.729365"/>
</g>
<g fill="rgb(0%, 0%, 0%)" fill-opacity="1">
<use xlink:href="#glyph-0-26-376a6186" x="45.324002" y="207.855707"/>
</g>
<g fill="rgb(0%, 0%, 0%)" fill-opacity="1">
<use xlink:href="#glyph-1-5-376a6186" x="53.878003" y="207.855707"/>
</g>
<g fill="rgb(0%, 0%, 0%)" fill-opacity="1">
<use xlink:href="#glyph-0-27-376a6186" x="61.662002" y="207.855707"/>
</g>
<g fill="rgb(0%, 0%, 0%)" fill-opacity="1">
<use xlink:href="#glyph-0-20-376a6186" x="36.756001" y="164.982079"/>
<use xlink:href="#glyph-0-5-376a6186" x="44.540002" y="164.982079"/>
<use xlink:href="#glyph-0-4-376a6186" x="47.648002" y="164.982079"/>
<use xlink:href="#glyph-0-20-376a6186" x="55.432002" y="164.982079"/>
<use xlink:href="#glyph-0-7-376a6186" x="63.216003" y="164.982079"/>
</g>
<g fill="rgb(0%, 0%, 0%)" fill-opacity="1">
<use xlink:href="#glyph-0-20-376a6186" x="25.094002" y="122.108451"/>
<use xlink:href="#glyph-0-5-376a6186" x="32.878003" y="122.108451"/>
<use xlink:href="#glyph-0-4-376a6186" x="35.986001" y="122.108451"/>
<use xlink:href="#glyph-0-21-376a6186" x="43.770003" y="122.108451"/>
<use xlink:href="#glyph-0-6-376a6186" x="51.554004" y="122.108451"/>
</g>
<g fill="rgb(0%, 0%, 0%)" fill-opacity="1">
<use xlink:href="#glyph-4-0-376a6186" x="59.338003" y="122.108451"/>
</g>
<g fill="rgb(0%, 0%, 0%)" fill-opacity="1">
<use xlink:href="#glyph-0-2-376a6186" x="64.000002" y="122.108451"/>
</g>
<g fill="rgb(0%, 0%, 0%)" fill-opacity="1">
<use xlink:href="#glyph-0-14-376a6186" x="21.972001" y="79.234823"/>
<use xlink:href="#glyph-0-21-376a6186" x="29.756001" y="79.234823"/>
<use xlink:href="#glyph-0-15-376a6186" x="37.540002" y="79.234823"/>
<use xlink:href="#glyph-0-1-376a6186" x="41.432" y="79.234823"/>
<use xlink:href="#glyph-0-15-376a6186" x="44.54" y="79.234823"/>
<use xlink:href="#glyph-0-28-376a6186" x="48.432" y="79.234823"/>
<use xlink:href="#glyph-0-21-376a6186" x="55.432001" y="79.234823"/>
</g>
<g fill="rgb(0%, 0%, 0%)" fill-opacity="1">
<use xlink:href="#glyph-1-2-376a6186" x="63.216001" y="79.234823"/>
</g>
<g fill="rgb(0%, 0%, 0%)" fill-opacity="1">
<use xlink:href="#glyph-5-0-376a6186" x="339.728051" y="28.947986"/>
<use xlink:href="#glyph-5-1-376a6186" x="348.282052" y="28.947986"/>
<use xlink:href="#glyph-5-2-376a6186" x="352.17405" y="28.947986"/>
<use xlink:href="#glyph-5-3-376a6186" x="360.728051" y="28.947986"/>
<use xlink:href="#glyph-5-4-376a6186" x="364.62005" y="28.947986"/>
<use xlink:href="#glyph-5-5-376a6186" x="372.404046" y="28.947986"/>
<use xlink:href="#glyph-5-6-376a6186" x="380.188051" y="28.947986"/>
<use xlink:href="#glyph-5-3-376a6186" x="384.850046" y="28.947986"/>
<use xlink:href="#glyph-5-7-376a6186" x="388.742044" y="28.947986"/>
<use xlink:href="#glyph-5-1-376a6186" x="400.404047" y="28.947986"/>
<use xlink:href="#glyph-5-8-376a6186" x="404.296046" y="28.947986"/>
<use xlink:href="#glyph-5-9-376a6186" x="412.080042" y="28.947986"/>
<use xlink:href="#glyph-5-5-376a6186" x="419.864039" y="28.947986"/>
<use xlink:href="#glyph-5-10-376a6186" x="427.648036" y="28.947986"/>
<use xlink:href="#glyph-5-10-376a6186" x="431.540034" y="28.947986"/>
<use xlink:href="#glyph-5-11-376a6186" x="435.432033" y="28.947986"/>
<use xlink:href="#glyph-5-12-376a6186" x="443.216029" y="28.947986"/>
<use xlink:href="#glyph-5-3-376a6186" x="451.77003" y="28.947986"/>
<use xlink:href="#glyph-5-13-376a6186" x="455.662029" y="28.947986"/>
<use xlink:href="#glyph-5-10-376a6186" x="465.770031" y="28.947986"/>
<use xlink:href="#glyph-5-10-376a6186" x="469.662029" y="28.947986"/>
<use xlink:href="#glyph-5-11-376a6186" x="473.554028" y="28.947986"/>
<use xlink:href="#glyph-5-10-376a6186" x="481.338024" y="28.947986"/>
<use xlink:href="#glyph-5-11-376a6186" x="485.230023" y="28.947986"/>
<use xlink:href="#glyph-5-8-376a6186" x="493.01402" y="28.947986"/>
</g>
<g fill="rgb(0%, 0%, 0%)" fill-opacity="1">
<use xlink:href="#glyph-6-0-376a6186" x="500.798016" y="28.947986"/>
</g>
<g fill="rgb(0%, 0%, 0%)" fill-opacity="1">
<use xlink:href="#glyph-5-14-376a6186" x="504.690015" y="28.947986"/>
<use xlink:href="#glyph-5-11-376a6186" x="513.244016" y="28.947986"/>
<use xlink:href="#glyph-5-15-376a6186" x="521.028012" y="28.947986"/>
<use xlink:href="#glyph-5-3-376a6186" x="526.474012" y="28.947986"/>
<use xlink:href="#glyph-5-16-376a6186" x="530.36601" y="28.947986"/>
<use xlink:href="#glyph-5-17-376a6186" x="538.920011" y="28.947986"/>
<use xlink:href="#glyph-5-9-376a6186" x="547.474012" y="28.947986"/>
<use xlink:href="#glyph-5-18-376a6186" x="555.258009" y="28.947986"/>
<use xlink:href="#glyph-5-8-376a6186" x="563.81201" y="28.947986"/>
<use xlink:href="#glyph-5-3-376a6186" x="571.596007" y="28.947986"/>
<use xlink:href="#glyph-5-19-376a6186" x="575.488005" y="28.947986"/>
<use xlink:href="#glyph-5-20-376a6186" x="584.042006" y="28.947986"/>
<use xlink:href="#glyph-5-3-376a6186" x="591.826003" y="28.947986"/>
<use xlink:href="#glyph-5-21-376a6186" x="595.718001" y="28.947986"/>
<use xlink:href="#glyph-5-17-376a6186" x="604.272003" y="28.947986"/>
<use xlink:href="#glyph-5-17-376a6186" x="612.825988" y="28.947986"/>
<use xlink:href="#glyph-5-10-376a6186" x="621.379974" y="28.947986"/>
</g>
<path fill-rule="nonzero" fill="rgb(89.411765%, 10.196079%, 10.980392%)" fill-opacity="1" d="M 117.5 518.046875 L 733.8125 518.046875 L 733.8125 513.417969 L 117.5 513.417969 Z M 117.5 518.046875 "/>
<path fill-rule="nonzero" fill="rgb(89.411765%, 10.196079%, 10.980392%)" fill-opacity="1" d="M 117.5 475.171875 L 135.449219 475.171875 L 135.449219 470.542969 L 117.5 470.542969 Z M 117.5 475.171875 "/>
<path fill-rule="nonzero" fill="rgb(89.411765%, 10.196079%, 10.980392%)" fill-opacity="1" d="M 117.5 432.296875 L 144.425781 432.296875 L 144.425781 427.667969 L 117.5 427.667969 Z M 117.5 432.296875 "/>
<path fill-rule="nonzero" fill="rgb(89.411765%, 10.196079%, 10.980392%)" fill-opacity="1" d="M 117.5 389.425781 L 133.953125 389.425781 L 133.953125 384.796875 L 117.5 384.796875 Z M 117.5 389.425781 "/>
<path fill-rule="nonzero" fill="rgb(89.411765%, 10.196079%, 10.980392%)" fill-opacity="1" d="M 117.5 346.550781 L 121.988281 346.550781 L 121.988281 341.921875 L 117.5 341.921875 Z M 117.5 346.550781 "/>
<path fill-rule="nonzero" fill="rgb(89.411765%, 10.196079%, 10.980392%)" fill-opacity="1" d="M 117.5 303.675781 L 120.492188 303.675781 L 120.492188 299.046875 L 117.5 299.046875 Z M 117.5 303.675781 "/>
<path fill-rule="nonzero" fill="rgb(89.411765%, 10.196079%, 10.980392%)" fill-opacity="1" d="M 117.5 260.804688 L 123.484375 260.804688 L 123.484375 256.175781 L 117.5 256.175781 Z M 117.5 260.804688 "/>
<path fill-rule="nonzero" fill="rgb(89.411765%, 10.196079%, 10.980392%)" fill-opacity="1" d="M 117.5 217.929688 L 123.484375 217.929688 L 123.484375 213.300781 L 117.5 213.300781 Z M 117.5 217.929688 "/>
<path fill-rule="nonzero" fill="rgb(89.411765%, 10.196079%, 10.980392%)" fill-opacity="1" d="M 117.5 175.054688 L 124.980469 175.054688 L 124.980469 170.425781 L 117.5 170.425781 Z M 117.5 175.054688 "/>
<path fill-rule="nonzero" fill="rgb(89.411765%, 10.196079%, 10.980392%)" fill-opacity="1" d="M 117.5 132.183594 L 123.484375 132.183594 L 123.484375 127.554688 L 117.5 127.554688 Z M 117.5 132.183594 "/>
<path fill-rule="nonzero" fill="rgb(89.411765%, 10.196079%, 10.980392%)" fill-opacity="1" d="M 117.5 89.308594 L 123.484375 89.308594 L 123.484375 84.679688 L 117.5 84.679688 Z M 117.5 89.308594 "/>
<path fill-rule="nonzero" fill="rgb(21.568628%, 49.411765%, 72.156864%)" fill-opacity="1" d="M 117.5 511.613281 L 599.179688 511.613281 L 599.179688 506.984375 L 117.5 506.984375 Z M 117.5 511.613281 "/>
<path fill-rule="nonzero" fill="rgb(21.568628%, 49.411765%, 72.156864%)" fill-opacity="1" d="M 117.5 468.742188 L 196.78125 468.742188 L 196.78125 464.113281 L 117.5 464.113281 Z M 117.5 468.742188 "/>
<path fill-rule="nonzero" fill="rgb(21.568628%, 49.411765%, 72.156864%)" fill-opacity="1" d="M 117.5 425.867188 L 234.179688 425.867188 L 234.179688 421.238281 L 117.5 421.238281 Z M 117.5 425.867188 "/>
<path fill-rule="nonzero" fill="rgb(21.568628%, 49.411765%, 72.156864%)" fill-opacity="1" d="M 117.5 382.992188 L 267.089844 382.992188 L 267.089844 378.363281 L 117.5 378.363281 Z M 117.5 382.992188 "/>
<path fill-rule="nonzero" fill="rgb(21.568628%, 49.411765%, 72.156864%)" fill-opacity="1" d="M 117.5 340.121094 L 156.394531 340.121094 L 156.394531 335.492188 L 117.5 335.492188 Z M 117.5 340.121094 "/>
<path fill-rule="nonzero" fill="rgb(21.568628%, 49.411765%, 72.156864%)" fill-opacity="1" d="M 117.5 297.246094 L 145.921875 297.246094 L 145.921875 292.617188 L 117.5 292.617188 Z M 117.5 297.246094 "/>
<path fill-rule="nonzero" fill="rgb(21.568628%, 49.411765%, 72.156864%)" fill-opacity="1" d="M 117.5 254.371094 L 144.425781 254.371094 L 144.425781 249.742188 L 117.5 249.742188 Z M 117.5 254.371094 "/>
<path fill-rule="nonzero" fill="rgb(21.568628%, 49.411765%, 72.156864%)" fill-opacity="1" d="M 117.5 211.5 L 141.433594 211.5 L 141.433594 206.871094 L 117.5 206.871094 Z M 117.5 211.5 "/>
<path fill-rule="nonzero" fill="rgb(21.568628%, 49.411765%, 72.156864%)" fill-opacity="1" d="M 117.5 168.625 L 147.417969 168.625 L 147.417969 163.996094 L 117.5 163.996094 Z M 117.5 168.625 "/>
<path fill-rule="nonzero" fill="rgb(21.568628%, 49.411765%, 72.156864%)" fill-opacity="1" d="M 117.5 125.75 L 142.929688 125.75 L 142.929688 121.121094 L 117.5 121.121094 Z M 117.5 125.75 "/>
<path fill-rule="nonzero" fill="rgb(21.568628%, 49.411765%, 72.156864%)" fill-opacity="1" d="M 117.5 82.878906 L 147.417969 82.878906 L 147.417969 78.25 L 117.5 78.25 Z M 117.5 82.878906 "/>
<path fill-rule="nonzero" fill="rgb(30.19608%, 68.627453%, 29.019609%)" fill-opacity="1" d="M 117.5 505.183594 L 666.496094 505.183594 L 666.496094 500.554688 L 117.5 500.554688 Z M 117.5 505.183594 "/>
<path fill-rule="nonzero" fill="rgb(30.19608%, 68.627453%, 29.019609%)" fill-opacity="1" d="M 117.5 462.308594 L 168.359375 462.308594 L 168.359375 457.679688 L 117.5 457.679688 Z M 117.5 462.308594 "/>
<path fill-rule="nonzero" fill="rgb(30.19608%, 68.627453%, 29.019609%)" fill-opacity="1" d="M 117.5 419.4375 L 183.320312 419.4375 L 183.320312 414.808594 L 117.5 414.808594 Z M 117.5 419.4375 "/>
<path fill-rule="nonzero" fill="rgb(30.19608%, 68.627453%, 29.019609%)" fill-opacity="1" d="M 117.5 376.5625 L 279.058594 376.5625 L 279.058594 371.933594 L 117.5 371.933594 Z M 117.5 376.5625 "/>
<path fill-rule="nonzero" fill="rgb(30.19608%, 68.627453%, 29.019609%)" fill-opacity="1" d="M 117.5 333.6875 L 153.402344 333.6875 L 153.402344 329.058594 L 117.5 329.058594 Z M 117.5 333.6875 "/>
<path fill-rule="nonzero" fill="rgb(30.19608%, 68.627453%, 29.019609%)" fill-opacity="1" d="M 117.5 290.816406 L 160.882812 290.816406 L 160.882812 286.1875 L 117.5 286.1875 Z M 117.5 290.816406 "/>
<path fill-rule="nonzero" fill="rgb(30.19608%, 68.627453%, 29.019609%)" fill-opacity="1" d="M 117.5 247.941406 L 160.882812 247.941406 L 160.882812 243.3125 L 117.5 243.3125 Z M 117.5 247.941406 "/>
<path fill-rule="nonzero" fill="rgb(30.19608%, 68.627453%, 29.019609%)" fill-opacity="1" d="M 117.5 205.066406 L 154.898438 205.066406 L 154.898438 200.4375 L 117.5 200.4375 Z M 117.5 205.066406 "/>
<path fill-rule="nonzero" fill="rgb(30.19608%, 68.627453%, 29.019609%)" fill-opacity="1" d="M 117.5 162.195312 L 166.863281 162.195312 L 166.863281 157.566406 L 117.5 157.566406 Z M 117.5 162.195312 "/>
<path fill-rule="nonzero" fill="rgb(30.19608%, 68.627453%, 29.019609%)" fill-opacity="1" d="M 117.5 119.320312 L 147.417969 119.320312 L 147.417969 114.691406 L 117.5 114.691406 Z M 117.5 119.320312 "/>
<path fill-rule="nonzero" fill="rgb(30.19608%, 68.627453%, 29.019609%)" fill-opacity="1" d="M 117.5 76.445312 L 138.441406 76.445312 L 138.441406 71.816406 L 117.5 71.816406 Z M 117.5 76.445312 "/>
<path fill-rule="nonzero" fill="rgb(100%, 49.803922%, 0%)" fill-opacity="1" d="M 117.5 498.753906 L 688.933594 498.753906 L 688.933594 494.125 L 117.5 494.125 Z M 117.5 498.753906 "/>
<path fill-rule="nonzero" fill="rgb(100%, 49.803922%, 0%)" fill-opacity="1" d="M 117.5 455.878906 L 165.367188 455.878906 L 165.367188 451.25 L 117.5 451.25 Z M 117.5 455.878906 "/>
<path fill-rule="nonzero" fill="rgb(100%, 49.803922%, 0%)" fill-opacity="1" d="M 117.5 413.003906 L 446.597656 413.003906 L 446.597656 408.375 L 117.5 408.375 Z M 117.5 413.003906 "/>
<path fill-rule="nonzero" fill="rgb(100%, 49.803922%, 0%)" fill-opacity="1" d="M 117.5 370.132812 L 183.320312 370.132812 L 183.320312 365.503906 L 117.5 365.503906 Z M 117.5 370.132812 "/>
<path fill-rule="nonzero" fill="rgb(100%, 49.803922%, 0%)" fill-opacity="1" d="M 117.5 327.257812 L 196.78125 327.257812 L 196.78125 322.628906 L 117.5 322.628906 Z M 117.5 327.257812 "/>
<path fill-rule="nonzero" fill="rgb(100%, 49.803922%, 0%)" fill-opacity="1" d="M 117.5 284.382812 L 165.367188 284.382812 L 165.367188 279.753906 L 117.5 279.753906 Z M 117.5 284.382812 "/>
<path fill-rule="nonzero" fill="rgb(100%, 49.803922%, 0%)" fill-opacity="1" d="M 117.5 241.511719 L 145.921875 241.511719 L 145.921875 236.882812 L 117.5 236.882812 Z M 117.5 241.511719 "/>
<path fill-rule="nonzero" fill="rgb(100%, 49.803922%, 0%)" fill-opacity="1" d="M 117.5 198.636719 L 151.90625 198.636719 L 151.90625 194.007812 L 117.5 194.007812 Z M 117.5 198.636719 "/>
<path fill-rule="nonzero" fill="rgb(100%, 49.803922%, 0%)" fill-opacity="1" d="M 117.5 155.761719 L 145.921875 155.761719 L 145.921875 151.132812 L 117.5 151.132812 Z M 117.5 155.761719 "/>
<path fill-rule="nonzero" fill="rgb(59.607846%, 30.588236%, 63.921571%)" fill-opacity="1" d="M 117.5 492.320312 L 847.5 492.320312 L 847.5 487.691406 L 117.5 487.691406 Z M 117.5 492.320312 "/>
<path fill-rule="nonzero" fill="rgb(59.607846%, 30.588236%, 63.921571%)" fill-opacity="1" d="M 117.5 449.449219 L 723.339844 449.449219 L 723.339844 444.820312 L 117.5 444.820312 Z M 117.5 449.449219 "/>
<path fill-rule="nonzero" fill="rgb(59.607846%, 30.588236%, 63.921571%)" fill-opacity="1" d="M 117.5 406.574219 L 213.238281 406.574219 L 213.238281 401.945312 L 117.5 401.945312 Z M 117.5 406.574219 "/>
<path fill-rule="nonzero" fill="rgb(59.607846%, 30.588236%, 63.921571%)" fill-opacity="1" d="M 117.5 363.699219 L 252.132812 363.699219 L 252.132812 359.070312 L 117.5 359.070312 Z M 117.5 363.699219 "/>
<path fill-rule="nonzero" fill="rgb(59.607846%, 30.588236%, 63.921571%)" fill-opacity="1" d="M 117.5 320.828125 L 199.773438 320.828125 L 199.773438 316.199219 L 117.5 316.199219 Z M 117.5 320.828125 "/>
<path fill-rule="nonzero" fill="rgb(59.607846%, 30.588236%, 63.921571%)" fill-opacity="1" d="M 117.5 277.953125 L 219.222656 277.953125 L 219.222656 273.324219 L 117.5 273.324219 Z M 117.5 277.953125 "/>
<path fill-rule="nonzero" fill="rgb(59.607846%, 30.588236%, 63.921571%)" fill-opacity="1" d="M 117.5 235.078125 L 220.71875 235.078125 L 220.71875 230.449219 L 117.5 230.449219 Z M 117.5 235.078125 "/>
<path fill-rule="nonzero" fill="rgb(59.607846%, 30.588236%, 63.921571%)" fill-opacity="1" d="M 117.5 192.207031 L 220.71875 192.207031 L 220.71875 187.578125 L 117.5 187.578125 Z M 117.5 192.207031 "/>
<path fill-rule="nonzero" fill="rgb(59.607846%, 30.588236%, 63.921571%)" fill-opacity="1" d="M 117.5 149.332031 L 199.773438 149.332031 L 199.773438 144.703125 L 117.5 144.703125 Z M 117.5 149.332031 "/>
<path fill-rule="nonzero" fill="rgb(100%, 100%, 100%)" fill-opacity="1" stroke-width="1" stroke-linecap="butt" stroke-linejoin="miter" stroke="rgb(0%, 0%, 0%)" stroke-opacity="1" stroke-miterlimit="2" d="M 803 535 L 878 535 L 878 411 L 803 411 Z M 803 535 "/>
<path fill="none" stroke-width="1" stroke-linecap="butt" stroke-linejoin="miter" stroke="rgb(0%, 0%, 0%)" stroke-opacity="1" stroke-miterlimit="1.154701" d="M 117.5 541.5 L 117.5 546.5 "/>
<path fill="none" stroke-width="1" stroke-linecap="butt" stroke-linejoin="miter" stroke="rgb(0%, 0%, 0%)" stroke-opacity="1" stroke-miterlimit="1.154701" d="M 416.679688 541.5 L 416.679688 546.5 "/>
<path fill="none" stroke-width="1" stroke-linecap="butt" stroke-linejoin="miter" stroke="rgb(0%, 0%, 0%)" stroke-opacity="1" stroke-miterlimit="1.154701" d="M 715.859375 541.5 L 715.859375 546.5 "/>
<path fill="none" stroke-width="1" stroke-linecap="butt" stroke-linejoin="miter" stroke="rgb(0%, 0%, 0%)" stroke-opacity="1" stroke-miterlimit="1.154701" d="M 80.5 502.867188 L 75.5 502.867188 "/>
<path fill="none" stroke-width="1" stroke-linecap="butt" stroke-linejoin="miter" stroke="rgb(0%, 0%, 0%)" stroke-opacity="1" stroke-miterlimit="1.154701" d="M 80.5 459.996094 L 75.5 459.996094 "/>
<path fill="none" stroke-width="1" stroke-linecap="butt" stroke-linejoin="miter" stroke="rgb(0%, 0%, 0%)" stroke-opacity="1" stroke-miterlimit="1.154701" d="M 80.5 417.121094 L 75.5 417.121094 "/>
<path fill="none" stroke-width="1" stroke-linecap="butt" stroke-linejoin="miter" stroke="rgb(0%, 0%, 0%)" stroke-opacity="1" stroke-miterlimit="1.154701" d="M 80.5 374.246094 L 75.5 374.246094 "/>
<path fill="none" stroke-width="1" stroke-linecap="butt" stroke-linejoin="miter" stroke="rgb(0%, 0%, 0%)" stroke-opacity="1" stroke-miterlimit="1.154701" d="M 80.5 331.375 L 75.5 331.375 "/>
<path fill="none" stroke-width="1" stroke-linecap="butt" stroke-linejoin="miter" stroke="rgb(0%, 0%, 0%)" stroke-opacity="1" stroke-miterlimit="1.154701" d="M 80.5 288.5 L 75.5 288.5 "/>
<path fill="none" stroke-width="1" stroke-linecap="butt" stroke-linejoin="miter" stroke="rgb(0%, 0%, 0%)" stroke-opacity="1" stroke-miterlimit="1.154701" d="M 80.5 245.625 L 75.5 245.625 "/>
<path fill="none" stroke-width="1" stroke-linecap="butt" stroke-linejoin="miter" stroke="rgb(0%, 0%, 0%)" stroke-opacity="1" stroke-miterlimit="1.154701" d="M 80.5 202.753906 L 75.5 202.753906 "/>
<path fill="none" stroke-width="1" stroke-linecap="butt" stroke-linejoin="miter" stroke="rgb(0%, 0%, 0%)" stroke-opacity="1" stroke-miterlimit="1.154701" d="M 80.5 159.878906 L 75.5 159.878906 "/>
<path fill="none" stroke-width="1" stroke-linecap="butt" stroke-linejoin="miter" stroke="rgb(0%, 0%, 0%)" stroke-opacity="1" stroke-miterlimit="1.154701" d="M 80.5 117.003906 L 75.5 117.003906 "/>
<path fill="none" stroke-width="1" stroke-linecap="butt" stroke-linejoin="miter" stroke="rgb(0%, 0%, 0%)" stroke-opacity="1" stroke-miterlimit="1.154701" d="M 80.5 74.132812 L 75.5 74.132812 "/>
<path fill-rule="nonzero" fill="rgb(89.411765%, 10.196079%, 10.980392%)" fill-opacity="1" d="M 808.9375 437 L 828.9375 437 L 828.9375 417 L 808.9375 417 Z M 808.9375 437 "/>
<path fill-rule="nonzero" fill="rgb(21.568628%, 49.411765%, 72.156864%)" fill-opacity="1" d="M 808.9375 460 L 828.9375 460 L 828.9375 440 L 808.9375 440 Z M 808.9375 460 "/>
<path fill-rule="nonzero" fill="rgb(30.19608%, 68.627453%, 29.019609%)" fill-opacity="1" d="M 808.9375 483 L 828.9375 483 L 828.9375 463 L 808.9375 463 Z M 808.9375 483 "/>
<path fill-rule="nonzero" fill="rgb(100%, 49.803922%, 0%)" fill-opacity="1" d="M 808.9375 506 L 828.9375 506 L 828.9375 486 L 808.9375 486 Z M 808.9375 506 "/>
<path fill-rule="nonzero" fill="rgb(59.607846%, 30.588236%, 63.921571%)" fill-opacity="1" d="M 808.9375 529 L 828.9375 529 L 828.9375 509 L 808.9375 509 Z M 808.9375 529 "/>
<g fill="rgb(0%, 0%, 0%)" fill-opacity="1">
<use xlink:href="#glyph-0-9-376a6186" x="833.939052" y="432.102996"/>
</g>
<g fill="rgb(0%, 0%, 0%)" fill-opacity="1">
<use xlink:href="#glyph-0-29-376a6186" x="833.939052" y="455.102997"/>
</g>
<g fill="rgb(0%, 0%, 0%)" fill-opacity="1">
<use xlink:href="#glyph-0-30-376a6186" x="833.939062" y="478.102997"/>
</g>
<g fill="rgb(0%, 0%, 0%)" fill-opacity="1">
<use xlink:href="#glyph-0-31-376a6186" x="833.939052" y="501.102998"/>
<use xlink:href="#glyph-0-32-376a6186" x="844.047052" y="501.102998"/>
<use xlink:href="#glyph-0-29-376a6186" x="854.155052" y="501.102998"/>
<use xlink:href="#glyph-0-33-376a6186" x="863.493053" y="501.102998"/>
</g>
<g fill="rgb(0%, 0%, 0%)" fill-opacity="1">
<use xlink:href="#glyph-0-31-376a6186" x="833.939019" y="524.102998"/>
<use xlink:href="#glyph-0-34-376a6186" x="844.047019" y="524.102998"/>
<use xlink:href="#glyph-0-29-376a6186" x="854.93902" y="524.102998"/>
<use xlink:href="#glyph-0-33-376a6186" x="864.277021" y="524.102998"/>
</g>
<path fill="none" stroke-width="1" stroke-linecap="butt" stroke-linejoin="miter" stroke="rgb(0%, 0%, 0%)" stroke-opacity="1" stroke-miterlimit="1.154701" d="M 80.5 541 L 884.5 541 "/>
<path fill="none" stroke-width="1" stroke-linecap="butt" stroke-linejoin="miter" stroke="rgb(0%, 0%, 0%)" stroke-opacity="1" stroke-miterlimit="1.154701" d="M 81 541.5 L 81 35.5 "/>
<path fill="none" stroke-width="1" stroke-linecap="butt" stroke-linejoin="miter" stroke="rgb(0%, 0%, 0%)" stroke-opacity="1" stroke-miterlimit="1.154701" d="M 80.5 36 L 884.5 36 "/>
<path fill="none" stroke-width="1" stroke-linecap="butt" stroke-linejoin="miter" stroke="rgb(0%, 0%, 0%)" stroke-opacity="1" stroke-miterlimit="1.154701" d="M 884 541.5 L 884 35.5 "/>
</svg>
