<?xml version="1.0" encoding="utf-8" standalone="no"?>
<!DOCTYPE svg PUBLIC "-//W3C//DTD SVG 1.1//EN"
  "http://www.w3.org/Graphics/SVG/1.1/DTD/svg11.dtd">
<svg xmlns:xlink="http://www.w3.org/1999/xlink" width="1286.83165pt" height="423.566374pt" viewBox="0 0 1286.83165 423.566374" xmlns="http://www.w3.org/2000/svg" version="1.1">
 <metadata>
  <rdf:RDF xmlns:dc="http://purl.org/dc/elements/1.1/" xmlns:cc="http://creativecommons.org/ns#" xmlns:rdf="http://www.w3.org/1999/02/22-rdf-syntax-ns#">
   <cc:Work>
    <dc:type rdf:resource="http://purl.org/dc/dcmitype/StillImage"/>
    <dc:date>2026-09-11T11:40:06.164921</dc:date>
    <dc:format>image/svg+xml</dc:format>
    <dc:creator>
     <cc:Agent>
      <dc:title>Matplotlib v3.10.9, https://matplotlib.org/</dc:title>
     </cc:Agent>
    </dc:creator>
   </cc:Work>
  </rdf:RDF>
 </metadata>
 <defs>
  <style type="text/css">*{stroke-linejoin: round; stroke-linecap: butt}</style>
 </defs>
 <g id="figure_1">
  <g id="patch_1">
   <path d="M 0 423.566374 
L 1286.83165 423.566374 
L 1286.83165 0 
L 0 0 
z
" style="fill: #ffffff"/>
  </g>
  <g id="axes_1">
   <g id="patch_2">
    <path d="M 63.610625 338.190082 
L 609.318425 338.190082 
L 609.318425 26.877187 
L 63.610625 26.877187 
z
" style="fill: #ffffff"/>
   </g>
   <g id="matplotlib.axis_1">
    <g id="xtick_1">
     <g id="text_1">
      <!-- hlaminer -->
      <g style="fill: #262626" transform="translate(44.14282 412.627547) rotate(-45) scale(0.18 -0.18)">
       <defs>
        <path id="DejaVuSans-68" d="M 3513 2113 
L 3513 0 
L 2938 0 
L 2938 2094 
Q 2938 2591 2744 2837 
Q 2550 3084 2163 3084 
Q 1697 3084 1428 2787 
Q 1159 2491 1159 1978 
L 1159 0 
L 581 0 
L 581 4863 
L 1159 4863 
L 1159 2956 
Q 1366 3272 1645 3428 
Q 1925 3584 2291 3584 
Q 2894 3584 3203 3211 
Q 3513 2838 3513 2113 
z
" transform="scale(0.015625)"/>
        <path id="DejaVuSans-6c" d="M 603 4863 
L 1178 4863 
L 1178 0 
L 603 0 
L 603 4863 
z
" transform="scale(0.015625)"/>
        <path id="DejaVuSans-61" d="M 2194 1759 
Q 1497 1759 1228 1600 
Q 959 1441 959 1056 
Q 959 750 1161 570 
Q 1363 391 1709 391 
Q 2188 391 2477 730 
Q 2766 1069 2766 1631 
L 2766 1759 
L 2194 1759 
z
M 3341 1997 
L 3341 0 
L 2766 0 
L 2766 531 
Q 2569 213 2275 61 
Q 1981 -91 1556 -91 
Q 1019 -91 701 211 
Q 384 513 384 1019 
Q 384 1609 779 1909 
Q 1175 2209 1959 2209 
L 2766 2209 
L 2766 2266 
Q 2766 2663 2505 2880 
Q 2244 3097 1772 3097 
Q 1472 3097 1187 3025 
Q 903 2953 641 2809 
L 641 3341 
Q 956 3463 1253 3523 
Q 1550 3584 1831 3584 
Q 2591 3584 2966 3190 
Q 3341 2797 3341 1997 
z
" transform="scale(0.015625)"/>
        <path id="DejaVuSans-6d" d="M 3328 2828 
Q 3544 3216 3844 3400 
Q 4144 3584 4550 3584 
Q 5097 3584 5394 3201 
Q 5691 2819 5691 2113 
L 5691 0 
L 5113 0 
L 5113 2094 
Q 5113 2597 4934 2840 
Q 4756 3084 4391 3084 
Q 3944 3084 3684 2787 
Q 3425 2491 3425 1978 
L 3425 0 
L 2847 0 
L 2847 2094 
Q 2847 2600 2669 2842 
Q 2491 3084 2119 3084 
Q 1678 3084 1418 2786 
Q 1159 2488 1159 1978 
L 1159 0 
L 581 0 
L 581 3500 
L 1159 3500 
L 1159 2956 
Q 1356 3278 1631 3431 
Q 1906 3584 2284 3584 
Q 2666 3584 2933 3390 
Q 3200 3197 3328 2828 
z
" transform="scale(0.015625)"/>
        <path id="DejaVuSans-69" d="M 603 3500 
L 1178 3500 
L 1178 0 
L 603 0 
L 603 3500 
z
M 603 4863 
L 1178 4863 
L 1178 4134 
L 603 4134 
L 603 4863 
z
" transform="scale(0.015625)"/>
        <path id="DejaVuSans-6e" d="M 3513 2113 
L 3513 0 
L 2938 0 
L 2938 2094 
Q 2938 2591 2744 2837 
Q 2550 3084 2163 3084 
Q 1697 3084 1428 2787 
Q 1159 2491 1159 1978 
L 1159 0 
L 581 0 
L 581 3500 
L 1159 3500 
L 1159 2956 
Q 1366 3272 1645 3428 
Q 1925 3584 2291 3584 
Q 2894 3584 3203 3211 
Q 3513 2838 3513 2113 
z
" transform="scale(0.015625)"/>
        <path id="DejaVuSans-65" d="M 3597 1894 
L 3597 1613 
L 953 1613 
Q 991 1019 1311 708 
Q 1631 397 2203 397 
Q 2534 397 2845 478 
Q 3156 559 3463 722 
L 3463 178 
Q 3153 47 2828 -22 
Q 2503 -91 2169 -91 
Q 1331 -91 842 396 
Q 353 884 353 1716 
Q 353 2575 817 3079 
Q 1281 3584 2069 3584 
Q 2775 3584 3186 3129 
Q 3597 2675 3597 1894 
z
M 3022 2063 
Q 3016 2534 2758 2815 
Q 2500 3097 2075 3097 
Q 1594 3097 1305 2825 
Q 1016 2553 972 2059 
L 3022 2063 
z
" transform="scale(0.015625)"/>
        <path id="DejaVuSans-72" d="M 2631 2963 
Q 2534 3019 2420 3045 
Q 2306 3072 2169 3072 
Q 1681 3072 1420 2755 
Q 1159 2438 1159 1844 
L 1159 0 
L 581 0 
L 581 3500 
L 1159 3500 
L 1159 2956 
Q 1341 3275 1631 3429 
Q 1922 3584 2338 3584 
Q 2397 3584 2469 3576 
Q 2541 3569 2628 3553 
L 2631 2963 
z
" transform="scale(0.015625)"/>
       </defs>
       <use xlink:href="#DejaVuSans-68"/>
       <use xlink:href="#DejaVuSans-6c" transform="translate(63.378906 0)"/>
       <use xlink:href="#DejaVuSans-61" transform="translate(91.162109 0)"/>
       <use xlink:href="#DejaVuSans-6d" transform="translate(152.441406 0)"/>
       <use xlink:href="#DejaVuSans-69" transform="translate(249.853516 0)"/>
       <use xlink:href="#DejaVuSans-6e" transform="translate(277.636719 0)"/>
       <use xlink:href="#DejaVuSans-65" transform="translate(341.015625 0)"/>
       <use xlink:href="#DejaVuSans-72" transform="translate(402.539062 0)"/>
      </g>
     </g>
    </g>
    <g id="xtick_2">
     <g id="text_2">
      <!-- optitype -->
      <g style="fill: #262626" transform="translate(90.18176 408.990146) rotate(-45) scale(0.18 -0.18)">
       <defs>
        <path id="DejaVuSans-6f" d="M 1959 3097 
Q 1497 3097 1228 2736 
Q 959 2375 959 1747 
Q 959 1119 1226 758 
Q 1494 397 1959 397 
Q 2419 397 2687 759 
Q 2956 1122 2956 1747 
Q 2956 2369 2687 2733 
Q 2419 3097 1959 3097 
z
M 1959 3584 
Q 2709 3584 3137 3096 
Q 3566 2609 3566 1747 
Q 3566 888 3137 398 
Q 2709 -91 1959 -91 
Q 1206 -91 779 398 
Q 353 888 353 1747 
Q 353 2609 779 3096 
Q 1206 3584 1959 3584 
z
" transform="scale(0.015625)"/>
        <path id="DejaVuSans-70" d="M 1159 525 
L 1159 -1331 
L 581 -1331 
L 581 3500 
L 1159 3500 
L 1159 2969 
Q 1341 3281 1617 3432 
Q 1894 3584 2278 3584 
Q 2916 3584 3314 3078 
Q 3713 2572 3713 1747 
Q 3713 922 3314 415 
Q 2916 -91 2278 -91 
Q 1894 -91 1617 61 
Q 1341 213 1159 525 
z
M 3116 1747 
Q 3116 2381 2855 2742 
Q 2594 3103 2138 3103 
Q 1681 3103 1420 2742 
Q 1159 2381 1159 1747 
Q 1159 1113 1420 752 
Q 1681 391 2138 391 
Q 2594 391 2855 752 
Q 3116 1113 3116 1747 
z
" transform="scale(0.015625)"/>
        <path id="DejaVuSans-74" d="M 1172 4494 
L 1172 3500 
L 2356 3500 
L 2356 3053 
L 1172 3053 
L 1172 1153 
Q 1172 725 1289 603 
Q 1406 481 1766 481 
L 2356 481 
L 2356 0 
L 1766 0 
Q 1100 0 847 248 
Q 594 497 594 1153 
L 594 3053 
L 172 3053 
L 172 3500 
L 594 3500 
L 594 4494 
L 1172 4494 
z
" transform="scale(0.015625)"/>
        <path id="DejaVuSans-79" d="M 2059 -325 
Q 1816 -950 1584 -1140 
Q 1353 -1331 966 -1331 
L 506 -1331 
L 506 -850 
L 844 -850 
Q 1081 -850 1212 -737 
Q 1344 -625 1503 -206 
L 1606 56 
L 191 3500 
L 800 3500 
L 1894 763 
L 2988 3500 
L 3597 3500 
L 2059 -325 
z
" transform="scale(0.015625)"/>
       </defs>
       <use xlink:href="#DejaVuSans-6f"/>
       <use xlink:href="#DejaVuSans-70" transform="translate(61.181641 0)"/>
       <use xlink:href="#DejaVuSans-74" transform="translate(124.658203 0)"/>
       <use xlink:href="#DejaVuSans-69" transform="translate(163.867188 0)"/>
       <use xlink:href="#DejaVuSans-74" transform="translate(191.650391 0)"/>
       <use xlink:href="#DejaVuSans-79" transform="translate(230.859375 0)"/>
       <use xlink:href="#DejaVuSans-70" transform="translate(290.039062 0)"/>
       <use xlink:href="#DejaVuSans-65" transform="translate(353.515625 0)"/>
      </g>
     </g>
    </g>
    <g id="xtick_3">
     <g id="text_3">
      <!-- phlat -->
      <g style="fill: #262626" transform="translate(152.940019 388.633425) rotate(-45) scale(0.18 -0.18)">
       <use xlink:href="#DejaVuSans-70"/>
       <use xlink:href="#DejaVuSans-68" transform="translate(63.476562 0)"/>
       <use xlink:href="#DejaVuSans-6c" transform="translate(126.855469 0)"/>
       <use xlink:href="#DejaVuSans-61" transform="translate(154.638672 0)"/>
       <use xlink:href="#DejaVuSans-74" transform="translate(215.917969 0)"/>
      </g>
     </g>
    </g>
    <g id="xtick_4">
     <g id="text_4">
      <!-- hlavbseq -->
      <g style="fill: #262626" transform="translate(170.255619 413.719364) rotate(-45) scale(0.18 -0.18)">
       <defs>
        <path id="DejaVuSans-76" d="M 191 3500 
L 800 3500 
L 1894 563 
L 2988 3500 
L 3597 3500 
L 2284 0 
L 1503 0 
L 191 3500 
z
" transform="scale(0.015625)"/>
        <path id="DejaVuSans-62" d="M 3116 1747 
Q 3116 2381 2855 2742 
Q 2594 3103 2138 3103 
Q 1681 3103 1420 2742 
Q 1159 2381 1159 1747 
Q 1159 1113 1420 752 
Q 1681 391 2138 391 
Q 2594 391 2855 752 
Q 3116 1113 3116 1747 
z
M 1159 2969 
Q 1341 3281 1617 3432 
Q 1894 3584 2278 3584 
Q 2916 3584 3314 3078 
Q 3713 2572 3713 1747 
Q 3713 922 3314 415 
Q 2916 -91 2278 -91 
Q 1894 -91 1617 61 
Q 1341 213 1159 525 
L 1159 0 
L 581 0 
L 581 4863 
L 1159 4863 
L 1159 2969 
z
" transform="scale(0.015625)"/>
        <path id="DejaVuSans-73" d="M 2834 3397 
L 2834 2853 
Q 2591 2978 2328 3040 
Q 2066 3103 1784 3103 
Q 1356 3103 1142 2972 
Q 928 2841 928 2578 
Q 928 2378 1081 2264 
Q 1234 2150 1697 2047 
L 1894 2003 
Q 2506 1872 2764 1633 
Q 3022 1394 3022 966 
Q 3022 478 2636 193 
Q 2250 -91 1575 -91 
Q 1294 -91 989 -36 
Q 684 19 347 128 
L 347 722 
Q 666 556 975 473 
Q 1284 391 1588 391 
Q 1994 391 2212 530 
Q 2431 669 2431 922 
Q 2431 1156 2273 1281 
Q 2116 1406 1581 1522 
L 1381 1569 
Q 847 1681 609 1914 
Q 372 2147 372 2553 
Q 372 3047 722 3315 
Q 1072 3584 1716 3584 
Q 2034 3584 2315 3537 
Q 2597 3491 2834 3397 
z
" transform="scale(0.015625)"/>
        <path id="DejaVuSans-71" d="M 947 1747 
Q 947 1113 1208 752 
Q 1469 391 1925 391 
Q 2381 391 2643 752 
Q 2906 1113 2906 1747 
Q 2906 2381 2643 2742 
Q 2381 3103 1925 3103 
Q 1469 3103 1208 2742 
Q 947 2381 947 1747 
z
M 2906 525 
Q 2725 213 2448 61 
Q 2172 -91 1784 -91 
Q 1150 -91 751 415 
Q 353 922 353 1747 
Q 353 2572 751 3078 
Q 1150 3584 1784 3584 
Q 2172 3584 2448 3432 
Q 2725 3281 2906 2969 
L 2906 3500 
L 3481 3500 
L 3481 -1331 
L 2906 -1331 
L 2906 525 
z
" transform="scale(0.015625)"/>
       </defs>
       <use xlink:href="#DejaVuSans-68"/>
       <use xlink:href="#DejaVuSans-6c" transform="translate(63.378906 0)"/>
       <use xlink:href="#DejaVuSans-61" transform="translate(91.162109 0)"/>
       <use xlink:href="#DejaVuSans-76" transform="translate(152.441406 0)"/>
       <use xlink:href="#DejaVuSans-62" transform="translate(211.621094 0)"/>
       <use xlink:href="#DejaVuSans-73" transform="translate(275.097656 0)"/>
       <use xlink:href="#DejaVuSans-65" transform="translate(327.197266 0)"/>
       <use xlink:href="#DejaVuSans-71" transform="translate(388.720703 0)"/>
      </g>
     </g>
    </g>
    <g id="xtick_5">
     <g id="text_5">
      <!-- hlaforest -->
      <g style="fill: #262626" transform="translate(214.146722 412.2298) rotate(-45) scale(0.18 -0.18)">
       <defs>
        <path id="DejaVuSans-66" d="M 2375 4863 
L 2375 4384 
L 1825 4384 
Q 1516 4384 1395 4259 
Q 1275 4134 1275 3809 
L 1275 3500 
L 2222 3500 
L 2222 3053 
L 1275 3053 
L 1275 0 
L 697 0 
L 697 3053 
L 147 3053 
L 147 3500 
L 697 3500 
L 697 3744 
Q 697 4328 969 4595 
Q 1241 4863 1831 4863 
L 2375 4863 
z
" transform="scale(0.015625)"/>
       </defs>
       <use xlink:href="#DejaVuSans-68"/>
       <use xlink:href="#DejaVuSans-6c" transform="translate(63.378906 0)"/>
       <use xlink:href="#DejaVuSans-61" transform="translate(91.162109 0)"/>
       <use xlink:href="#DejaVuSans-66" transform="translate(152.441406 0)"/>
       <use xlink:href="#DejaVuSans-6f" transform="translate(187.646484 0)"/>
       <use xlink:href="#DejaVuSans-72" transform="translate(248.828125 0)"/>
       <use xlink:href="#DejaVuSans-65" transform="translate(287.691406 0)"/>
       <use xlink:href="#DejaVuSans-73" transform="translate(349.214844 0)"/>
       <use xlink:href="#DejaVuSans-74" transform="translate(401.314453 0)"/>
      </g>
     </g>
    </g>
    <g id="xtick_6">
     <g id="text_6">
      <!-- seq2hla -->
      <g style="fill: #262626" transform="translate(262.574136 406.203924) rotate(-45) scale(0.18 -0.18)">
       <defs>
        <path id="DejaVuSans-32" d="M 1228 531 
L 3431 531 
L 3431 0 
L 469 0 
L 469 531 
Q 828 903 1448 1529 
Q 2069 2156 2228 2338 
Q 2531 2678 2651 2914 
Q 2772 3150 2772 3378 
Q 2772 3750 2511 3984 
Q 2250 4219 1831 4219 
Q 1534 4219 1204 4116 
Q 875 4013 500 3803 
L 500 4441 
Q 881 4594 1212 4672 
Q 1544 4750 1819 4750 
Q 2544 4750 2975 4387 
Q 3406 4025 3406 3419 
Q 3406 3131 3298 2873 
Q 3191 2616 2906 2266 
Q 2828 2175 2409 1742 
Q 1991 1309 1228 531 
z
" transform="scale(0.015625)"/>
       </defs>
       <use xlink:href="#DejaVuSans-73"/>
       <use xlink:href="#DejaVuSans-65" transform="translate(52.099609 0)"/>
       <use xlink:href="#DejaVuSans-71" transform="translate(113.623047 0)"/>
       <use xlink:href="#DejaVuSans-32" transform="translate(177.099609 0)"/>
       <use xlink:href="#DejaVuSans-68" transform="translate(240.722656 0)"/>
       <use xlink:href="#DejaVuSans-6c" transform="translate(304.101562 0)"/>
       <use xlink:href="#DejaVuSans-61" transform="translate(331.884766 0)"/>
      </g>
     </g>
    </g>
    <g id="xtick_7">
     <g id="text_7">
      <!-- rna2hla -->
      <g style="fill: #262626" transform="translate(306.642237 404.537362) rotate(-45) scale(0.18 -0.18)">
       <use xlink:href="#DejaVuSans-72"/>
       <use xlink:href="#DejaVuSans-6e" transform="translate(39.363281 0)"/>
       <use xlink:href="#DejaVuSans-61" transform="translate(102.742188 0)"/>
       <use xlink:href="#DejaVuSans-32" transform="translate(164.021484 0)"/>
       <use xlink:href="#DejaVuSans-68" transform="translate(227.644531 0)"/>
       <use xlink:href="#DejaVuSans-6c" transform="translate(291.023438 0)"/>
       <use xlink:href="#DejaVuSans-61" transform="translate(318.806641 0)"/>
      </g>
     </g>
    </g>
    <g id="xtick_8">
     <g id="text_8">
      <!-- arcas -->
      <g style="fill: #262626" transform="translate(363.245352 390.335785) rotate(-45) scale(0.18 -0.18)">
       <defs>
        <path id="DejaVuSans-63" d="M 3122 3366 
L 3122 2828 
Q 2878 2963 2633 3030 
Q 2388 3097 2138 3097 
Q 1578 3097 1268 2742 
Q 959 2388 959 1747 
Q 959 1106 1268 751 
Q 1578 397 2138 397 
Q 2388 397 2633 464 
Q 2878 531 3122 666 
L 3122 134 
Q 2881 22 2623 -34 
Q 2366 -91 2075 -91 
Q 1284 -91 818 406 
Q 353 903 353 1747 
Q 353 2603 823 3093 
Q 1294 3584 2113 3584 
Q 2378 3584 2631 3529 
Q 2884 3475 3122 3366 
z
" transform="scale(0.015625)"/>
       </defs>
       <use xlink:href="#DejaVuSans-61"/>
       <use xlink:href="#DejaVuSans-72" transform="translate(61.279297 0)"/>
       <use xlink:href="#DejaVuSans-63" transform="translate(100.142578 0)"/>
       <use xlink:href="#DejaVuSans-61" transform="translate(155.123047 0)"/>
       <use xlink:href="#DejaVuSans-73" transform="translate(216.402344 0)"/>
      </g>
     </g>
    </g>
    <g id="xtick_9">
     <g id="text_9">
      <!-- hisat -->
      <g style="fill: #262626" transform="translate(408.79904 387.183635) rotate(-45) scale(0.18 -0.18)">
       <use xlink:href="#DejaVuSans-68"/>
       <use xlink:href="#DejaVuSans-69" transform="translate(63.378906 0)"/>
       <use xlink:href="#DejaVuSans-73" transform="translate(91.162109 0)"/>
       <use xlink:href="#DejaVuSans-61" transform="translate(143.261719 0)"/>
       <use xlink:href="#DejaVuSans-74" transform="translate(204.541016 0)"/>
      </g>
     </g>
    </g>
    <g id="xtick_10">
     <g id="text_10">
      <!-- hlahd -->
      <g style="fill: #262626" transform="translate(446.674211 391.710003) rotate(-45) scale(0.18 -0.18)">
       <defs>
        <path id="DejaVuSans-64" d="M 2906 2969 
L 2906 4863 
L 3481 4863 
L 3481 0 
L 2906 0 
L 2906 525 
Q 2725 213 2448 61 
Q 2172 -91 1784 -91 
Q 1150 -91 751 415 
Q 353 922 353 1747 
Q 353 2572 751 3078 
Q 1150 3584 1784 3584 
Q 2172 3584 2448 3432 
Q 2725 3281 2906 2969 
z
M 947 1747 
Q 947 1113 1208 752 
Q 1469 391 1925 391 
Q 2381 391 2643 752 
Q 2906 1113 2906 1747 
Q 2906 2381 2643 2742 
Q 2381 3103 1925 3103 
Q 1469 3103 1208 2742 
Q 947 2381 947 1747 
z
" transform="scale(0.015625)"/>
       </defs>
       <use xlink:href="#DejaVuSans-68"/>
       <use xlink:href="#DejaVuSans-6c" transform="translate(63.378906 0)"/>
       <use xlink:href="#DejaVuSans-61" transform="translate(91.162109 0)"/>
       <use xlink:href="#DejaVuSans-68" transform="translate(152.441406 0)"/>
       <use xlink:href="#DejaVuSans-64" transform="translate(215.820312 0)"/>
      </g>
     </g>
    </g>
    <g id="xtick_11">
     <g id="text_11">
      <!-- hlapers -->
      <g style="fill: #262626" transform="translate(477.447599 403.338153) rotate(-45) scale(0.18 -0.18)">
       <use xlink:href="#DejaVuSans-68"/>
       <use xlink:href="#DejaVuSans-6c" transform="translate(63.378906 0)"/>
       <use xlink:href="#DejaVuSans-61" transform="translate(91.162109 0)"/>
       <use xlink:href="#DejaVuSans-70" transform="translate(152.441406 0)"/>
       <use xlink:href="#DejaVuSans-65" transform="translate(215.917969 0)"/>
       <use xlink:href="#DejaVuSans-72" transform="translate(277.441406 0)"/>
       <use xlink:href="#DejaVuSans-73" transform="translate(318.554688 0)"/>
      </g>
     </g>
    </g>
    <g id="xtick_12">
     <g id="text_12">
      <!-- T1K -->
      <g style="fill: #262626" transform="translate(542.807127 380.380163) rotate(-45) scale(0.18 -0.18)">
       <defs>
        <path id="DejaVuSans-54" d="M -19 4666 
L 3928 4666 
L 3928 4134 
L 2272 4134 
L 2272 0 
L 1638 0 
L 1638 4134 
L -19 4134 
L -19 4666 
z
" transform="scale(0.015625)"/>
        <path id="DejaVuSans-31" d="M 794 531 
L 1825 531 
L 1825 4091 
L 703 3866 
L 703 4441 
L 1819 4666 
L 2450 4666 
L 2450 531 
L 3481 531 
L 3481 0 
L 794 0 
L 794 531 
z
" transform="scale(0.015625)"/>
        <path id="DejaVuSans-4b" d="M 628 4666 
L 1259 4666 
L 1259 2694 
L 3353 4666 
L 4166 4666 
L 1850 2491 
L 4331 0 
L 3500 0 
L 1259 2247 
L 1259 0 
L 628 0 
L 628 4666 
z
" transform="scale(0.015625)"/>
       </defs>
       <use xlink:href="#DejaVuSans-54"/>
       <use xlink:href="#DejaVuSans-31" transform="translate(61.083984 0)"/>
       <use xlink:href="#DejaVuSans-4b" transform="translate(124.707031 0)"/>
      </g>
     </g>
    </g>
   </g>
   <g id="matplotlib.axis_2">
    <g id="ytick_1">
     <g id="text_13">
      <!-- 0.0 -->
      <g style="fill: #262626" transform="translate(26.685 345.028676) scale(0.18 -0.18)">
       <defs>
        <path id="DejaVuSans-30" d="M 2034 4250 
Q 1547 4250 1301 3770 
Q 1056 3291 1056 2328 
Q 1056 1369 1301 889 
Q 1547 409 2034 409 
Q 2525 409 2770 889 
Q 3016 1369 3016 2328 
Q 3016 3291 2770 3770 
Q 2525 4250 2034 4250 
z
M 2034 4750 
Q 2819 4750 3233 4129 
Q 3647 3509 3647 2328 
Q 3647 1150 3233 529 
Q 2819 -91 2034 -91 
Q 1250 -91 836 529 
Q 422 1150 422 2328 
Q 422 3509 836 4129 
Q 1250 4750 2034 4750 
z
" transform="scale(0.015625)"/>
        <path id="DejaVuSans-2e" d="M 684 794 
L 1344 794 
L 1344 0 
L 684 0 
L 684 794 
z
" transform="scale(0.015625)"/>
       </defs>
       <use xlink:href="#DejaVuSans-30"/>
       <use xlink:href="#DejaVuSans-2e" transform="translate(63.623047 0)"/>
       <use xlink:href="#DejaVuSans-30" transform="translate(95.410156 0)"/>
      </g>
     </g>
    </g>
    <g id="ytick_2">
     <g id="text_14">
      <!-- 0.2 -->
      <g style="fill: #262626" transform="translate(26.685 285.730982) scale(0.18 -0.18)">
       <use xlink:href="#DejaVuSans-30"/>
       <use xlink:href="#DejaVuSans-2e" transform="translate(63.623047 0)"/>
       <use xlink:href="#DejaVuSans-32" transform="translate(95.410156 0)"/>
      </g>
     </g>
    </g>
    <g id="ytick_3">
     <g id="text_15">
      <!-- 0.4 -->
      <g style="fill: #262626" transform="translate(26.685 226.433287) scale(0.18 -0.18)">
       <defs>
        <path id="DejaVuSans-34" d="M 2419 4116 
L 825 1625 
L 2419 1625 
L 2419 4116 
z
M 2253 4666 
L 3047 4666 
L 3047 1625 
L 3713 1625 
L 3713 1100 
L 3047 1100 
L 3047 0 
L 2419 0 
L 2419 1100 
L 313 1100 
L 313 1709 
L 2253 4666 
z
" transform="scale(0.015625)"/>
       </defs>
       <use xlink:href="#DejaVuSans-30"/>
       <use xlink:href="#DejaVuSans-2e" transform="translate(63.623047 0)"/>
       <use xlink:href="#DejaVuSans-34" transform="translate(95.410156 0)"/>
      </g>
     </g>
    </g>
    <g id="ytick_4">
     <g id="text_16">
      <!-- 0.6 -->
      <g style="fill: #262626" transform="translate(26.685 167.135593) scale(0.18 -0.18)">
       <defs>
        <path id="DejaVuSans-36" d="M 2113 2584 
Q 1688 2584 1439 2293 
Q 1191 2003 1191 1497 
Q 1191 994 1439 701 
Q 1688 409 2113 409 
Q 2538 409 2786 701 
Q 3034 994 3034 1497 
Q 3034 2003 2786 2293 
Q 2538 2584 2113 2584 
z
M 3366 4563 
L 3366 3988 
Q 3128 4100 2886 4159 
Q 2644 4219 2406 4219 
Q 1781 4219 1451 3797 
Q 1122 3375 1075 2522 
Q 1259 2794 1537 2939 
Q 1816 3084 2150 3084 
Q 2853 3084 3261 2657 
Q 3669 2231 3669 1497 
Q 3669 778 3244 343 
Q 2819 -91 2113 -91 
Q 1303 -91 875 529 
Q 447 1150 447 2328 
Q 447 3434 972 4092 
Q 1497 4750 2381 4750 
Q 2619 4750 2861 4703 
Q 3103 4656 3366 4563 
z
" transform="scale(0.015625)"/>
       </defs>
       <use xlink:href="#DejaVuSans-30"/>
       <use xlink:href="#DejaVuSans-2e" transform="translate(63.623047 0)"/>
       <use xlink:href="#DejaVuSans-36" transform="translate(95.410156 0)"/>
      </g>
     </g>
    </g>
    <g id="ytick_5">
     <g id="text_17">
      <!-- 0.8 -->
      <g style="fill: #262626" transform="translate(26.685 107.837899) scale(0.18 -0.18)">
       <defs>
        <path id="DejaVuSans-38" d="M 2034 2216 
Q 1584 2216 1326 1975 
Q 1069 1734 1069 1313 
Q 1069 891 1326 650 
Q 1584 409 2034 409 
Q 2484 409 2743 651 
Q 3003 894 3003 1313 
Q 3003 1734 2745 1975 
Q 2488 2216 2034 2216 
z
M 1403 2484 
Q 997 2584 770 2862 
Q 544 3141 544 3541 
Q 544 4100 942 4425 
Q 1341 4750 2034 4750 
Q 2731 4750 3128 4425 
Q 3525 4100 3525 3541 
Q 3525 3141 3298 2862 
Q 3072 2584 2669 2484 
Q 3125 2378 3379 2068 
Q 3634 1759 3634 1313 
Q 3634 634 3220 271 
Q 2806 -91 2034 -91 
Q 1263 -91 848 271 
Q 434 634 434 1313 
Q 434 1759 690 2068 
Q 947 2378 1403 2484 
z
M 1172 3481 
Q 1172 3119 1398 2916 
Q 1625 2713 2034 2713 
Q 2441 2713 2670 2916 
Q 2900 3119 2900 3481 
Q 2900 3844 2670 4047 
Q 2441 4250 2034 4250 
Q 1625 4250 1398 4047 
Q 1172 3844 1172 3481 
z
" transform="scale(0.015625)"/>
       </defs>
       <use xlink:href="#DejaVuSans-30"/>
       <use xlink:href="#DejaVuSans-2e" transform="translate(63.623047 0)"/>
       <use xlink:href="#DejaVuSans-38" transform="translate(95.410156 0)"/>
      </g>
     </g>
    </g>
    <g id="ytick_6">
     <g id="text_18">
      <!-- 1.0 -->
      <g style="fill: #262626" transform="translate(26.685 48.540205) scale(0.18 -0.18)">
       <use xlink:href="#DejaVuSans-31"/>
       <use xlink:href="#DejaVuSans-2e" transform="translate(63.623047 0)"/>
       <use xlink:href="#DejaVuSans-30" transform="translate(95.410156 0)"/>
      </g>
     </g>
    </g>
    <g id="text_19">
     <!-- Accuracy -->
     <g style="fill: #262626" transform="translate(19.3575 219.058635) rotate(-90) scale(0.16 -0.16)">
      <defs>
       <path id="DejaVuSans-41" d="M 2188 4044 
L 1331 1722 
L 3047 1722 
L 2188 4044 
z
M 1831 4666 
L 2547 4666 
L 4325 0 
L 3669 0 
L 3244 1197 
L 1141 1197 
L 716 0 
L 50 0 
L 1831 4666 
z
" transform="scale(0.015625)"/>
       <path id="DejaVuSans-75" d="M 544 1381 
L 544 3500 
L 1119 3500 
L 1119 1403 
Q 1119 906 1312 657 
Q 1506 409 1894 409 
Q 2359 409 2629 706 
Q 2900 1003 2900 1516 
L 2900 3500 
L 3475 3500 
L 3475 0 
L 2900 0 
L 2900 538 
Q 2691 219 2414 64 
Q 2138 -91 1772 -91 
Q 1169 -91 856 284 
Q 544 659 544 1381 
z
M 1991 3584 
L 1991 3584 
z
" transform="scale(0.015625)"/>
      </defs>
      <use xlink:href="#DejaVuSans-41"/>
      <use xlink:href="#DejaVuSans-63" transform="translate(66.658203 0)"/>
      <use xlink:href="#DejaVuSans-63" transform="translate(121.638672 0)"/>
      <use xlink:href="#DejaVuSans-75" transform="translate(176.619141 0)"/>
      <use xlink:href="#DejaVuSans-72" transform="translate(239.998047 0)"/>
      <use xlink:href="#DejaVuSans-61" transform="translate(281.111328 0)"/>
      <use xlink:href="#DejaVuSans-63" transform="translate(342.390625 0)"/>
      <use xlink:href="#DejaVuSans-79" transform="translate(397.371094 0)"/>
     </g>
    </g>
   </g>
   <g id="patch_3">
    <path d="M 88.415525 338.190082 
L 103.256063 338.190082 
L 103.256063 263.055674 
L 88.415525 263.055674 
z
" clip-path="url(#pf8803b8328)" style="fill: #8fd19e; stroke: #000000; stroke-width: 0.5; stroke-linejoin: miter"/>
   </g>
   <g id="patch_4">
    <path d="M 130.817063 338.190082 
L 145.657602 338.190082 
L 145.657602 160.778561 
L 130.817063 160.778561 
z
" clip-path="url(#pf8803b8328)" style="fill: #8fd19e; stroke: #000000; stroke-width: 0.5; stroke-linejoin: miter"/>
   </g>
   <g id="patch_5">
    <path d="M 173.218602 338.190082 
L 188.05914 338.190082 
L 188.05914 62.844056 
L 173.218602 62.844056 
z
" clip-path="url(#pf8803b8328)" style="fill: #8fd19e; stroke: #000000; stroke-width: 0.5; stroke-linejoin: miter"/>
   </g>
   <g id="patch_6">
    <path d="M 215.62014 338.190082 
L 230.460679 338.190082 
L 230.460679 50.592972 
L 215.62014 50.592972 
z
" clip-path="url(#pf8803b8328)" style="fill: #8fd19e; stroke: #000000; stroke-width: 0.5; stroke-linejoin: miter"/>
   </g>
   <g id="patch_7">
    <path d="M 258.021679 338.190082 
L 272.862217 338.190082 
L 272.862217 44.820239 
L 258.021679 44.820239 
z
" clip-path="url(#pf8803b8328)" style="fill: #8fd19e; stroke: #000000; stroke-width: 0.5; stroke-linejoin: miter"/>
   </g>
   <g id="patch_8">
    <path d="M 300.423217 338.190082 
L 315.263756 338.190082 
L 315.263756 49.27293 
L 300.423217 49.27293 
z
" clip-path="url(#pf8803b8328)" style="fill: #8fd19e; stroke: #000000; stroke-width: 0.5; stroke-linejoin: miter"/>
   </g>
   <g id="patch_9">
    <path d="M 342.824756 338.190082 
L 357.665294 338.190082 
L 357.665294 47.019544 
L 342.824756 47.019544 
z
" clip-path="url(#pf8803b8328)" style="fill: #8fd19e; stroke: #000000; stroke-width: 0.5; stroke-linejoin: miter"/>
   </g>
   <g id="patch_10">
    <path d="M 385.226294 338.190082 
L 400.066833 338.190082 
L 400.066833 44.380065 
L 385.226294 44.380065 
z
" clip-path="url(#pf8803b8328)" style="fill: #8fd19e; stroke: #000000; stroke-width: 0.5; stroke-linejoin: miter"/>
   </g>
   <g id="patch_11">
    <path d="M 427.627833 338.190082 
L 442.468371 338.190082 
L 442.468371 44.544576 
L 427.627833 44.544576 
z
" clip-path="url(#pf8803b8328)" style="fill: #8fd19e; stroke: #000000; stroke-width: 0.5; stroke-linejoin: miter"/>
   </g>
   <g id="patch_12">
    <path d="M 470.029371 338.190082 
L 484.86991 338.190082 
L 484.86991 45.530092 
L 470.029371 45.530092 
z
" clip-path="url(#pf8803b8328)" style="fill: #8fd19e; stroke: #000000; stroke-width: 0.5; stroke-linejoin: miter"/>
   </g>
   <g id="patch_13">
    <path d="M 512.43091 338.190082 
L 527.271448 338.190082 
L 527.271448 70.617983 
L 512.43091 70.617983 
z
" clip-path="url(#pf8803b8328)" style="fill: #8fd19e; stroke: #000000; stroke-width: 0.5; stroke-linejoin: miter"/>
   </g>
   <g id="patch_14">
    <path d="M 554.832448 338.190082 
L 569.672987 338.190082 
L 569.672987 43.286819 
L 554.832448 43.286819 
z
" clip-path="url(#pf8803b8328)" style="fill: #8fd19e; stroke: #000000; stroke-width: 0.5; stroke-linejoin: miter"/>
   </g>
   <g id="patch_15">
    <path d="M 103.256063 338.190082 
L 118.096602 338.190082 
L 118.096602 286.886242 
L 103.256063 286.886242 
z
" clip-path="url(#pf8803b8328)" style="fill: #2e8b57; stroke: #000000; stroke-width: 0.5; stroke-linejoin: miter"/>
   </g>
   <g id="patch_16">
    <path d="M 145.657602 338.190082 
L 160.49814 338.190082 
L 160.49814 162.30616 
L 145.657602 162.30616 
z
" clip-path="url(#pf8803b8328)" style="fill: #2e8b57; stroke: #000000; stroke-width: 0.5; stroke-linejoin: miter"/>
   </g>
   <g id="patch_17">
    <path d="M 188.05914 338.190082 
L 202.899679 338.190082 
L 202.899679 73.006393 
L 188.05914 73.006393 
z
" clip-path="url(#pf8803b8328)" style="fill: #2e8b57; stroke: #000000; stroke-width: 0.5; stroke-linejoin: miter"/>
   </g>
   <g id="patch_18">
    <path d="M 230.460679 338.190082 
L 245.301217 338.190082 
L 245.301217 65.990859 
L 230.460679 65.990859 
z
" clip-path="url(#pf8803b8328)" style="fill: #2e8b57; stroke: #000000; stroke-width: 0.5; stroke-linejoin: miter"/>
   </g>
   <g id="patch_19">
    <path d="M 272.862217 338.190082 
L 287.702756 338.190082 
L 287.702756 62.641407 
L 272.862217 62.641407 
z
" clip-path="url(#pf8803b8328)" style="fill: #2e8b57; stroke: #000000; stroke-width: 0.5; stroke-linejoin: miter"/>
   </g>
   <g id="patch_20">
    <path d="M 315.263756 338.190082 
L 330.104294 338.190082 
L 330.104294 51.134531 
L 315.263756 51.134531 
z
" clip-path="url(#pf8803b8328)" style="fill: #2e8b57; stroke: #000000; stroke-width: 0.5; stroke-linejoin: miter"/>
   </g>
   <g id="patch_21">
    <path d="M 357.665294 338.190082 
L 372.505833 338.190082 
L 372.505833 51.125729 
L 357.665294 51.125729 
z
" clip-path="url(#pf8803b8328)" style="fill: #2e8b57; stroke: #000000; stroke-width: 0.5; stroke-linejoin: miter"/>
   </g>
   <g id="patch_22">
    <path d="M 400.066833 338.190082 
L 414.907371 338.190082 
L 414.907371 50.991965 
L 400.066833 50.991965 
z
" clip-path="url(#pf8803b8328)" style="fill: #2e8b57; stroke: #000000; stroke-width: 0.5; stroke-linejoin: miter"/>
   </g>
   <g id="patch_23">
    <path d="M 442.468371 338.190082 
L 457.30891 338.190082 
L 457.30891 50.551172 
L 442.468371 50.551172 
z
" clip-path="url(#pf8803b8328)" style="fill: #2e8b57; stroke: #000000; stroke-width: 0.5; stroke-linejoin: miter"/>
   </g>
   <g id="patch_24">
    <path d="M 484.86991 338.190082 
L 499.710448 338.190082 
L 499.710448 50.283125 
L 484.86991 50.283125 
z
" clip-path="url(#pf8803b8328)" style="fill: #2e8b57; stroke: #000000; stroke-width: 0.5; stroke-linejoin: miter"/>
   </g>
   <g id="patch_25">
    <path d="M 527.271448 338.190082 
L 542.111987 338.190082 
L 542.111987 50.211303 
L 527.271448 50.211303 
z
" clip-path="url(#pf8803b8328)" style="fill: #2e8b57; stroke: #000000; stroke-width: 0.5; stroke-linejoin: miter"/>
   </g>
   <g id="patch_26">
    <path d="M 569.672987 338.190082 
L 584.513525 338.190082 
L 584.513525 49.299582 
L 569.672987 49.299582 
z
" clip-path="url(#pf8803b8328)" style="fill: #2e8b57; stroke: #000000; stroke-width: 0.5; stroke-linejoin: miter"/>
   </g>
   <g id="patch_27">
    <path d="M 63.610625 338.190082 
L 63.610625 26.877187 
" style="fill: none; stroke: #262626; stroke-linejoin: miter; stroke-linecap: square"/>
   </g>
   <g id="patch_28">
    <path d="M 609.318425 338.190082 
L 609.318425 26.877187 
" style="fill: none; stroke: #262626; stroke-linejoin: miter; stroke-linecap: square"/>
   </g>
   <g id="patch_29">
    <path d="M 63.610625 338.190082 
L 609.318425 338.190082 
" style="fill: none; stroke: #262626; stroke-linejoin: miter; stroke-linecap: square"/>
   </g>
   <g id="patch_30">
    <path d="M 63.610625 26.877187 
L 609.318425 26.877187 
" style="fill: none; stroke: #262626; stroke-linejoin: miter; stroke-linecap: square"/>
   </g>
   <g id="text_20">
    <!-- Filtered bulk accuracy -->
    <g style="fill: #262626" transform="translate(223.704369 20.877187) scale(0.18 -0.18)">
     <defs>
      <path id="DejaVuSans-Bold-46" d="M 588 4666 
L 3834 4666 
L 3834 3756 
L 1791 3756 
L 1791 2888 
L 3713 2888 
L 3713 1978 
L 1791 1978 
L 1791 0 
L 588 0 
L 588 4666 
z
" transform="scale(0.015625)"/>
      <path id="DejaVuSans-Bold-69" d="M 538 3500 
L 1656 3500 
L 1656 0 
L 538 0 
L 538 3500 
z
M 538 4863 
L 1656 4863 
L 1656 3950 
L 538 3950 
L 538 4863 
z
" transform="scale(0.015625)"/>
      <path id="DejaVuSans-Bold-6c" d="M 538 4863 
L 1656 4863 
L 1656 0 
L 538 0 
L 538 4863 
z
" transform="scale(0.015625)"/>
      <path id="DejaVuSans-Bold-74" d="M 1759 4494 
L 1759 3500 
L 2913 3500 
L 2913 2700 
L 1759 2700 
L 1759 1216 
Q 1759 972 1856 886 
Q 1953 800 2241 800 
L 2816 800 
L 2816 0 
L 1856 0 
Q 1194 0 917 276 
Q 641 553 641 1216 
L 641 2700 
L 84 2700 
L 84 3500 
L 641 3500 
L 641 4494 
L 1759 4494 
z
" transform="scale(0.015625)"/>
      <path id="DejaVuSans-Bold-65" d="M 4031 1759 
L 4031 1441 
L 1416 1441 
Q 1456 1047 1700 850 
Q 1944 653 2381 653 
Q 2734 653 3104 758 
Q 3475 863 3866 1075 
L 3866 213 
Q 3469 63 3072 -14 
Q 2675 -91 2278 -91 
Q 1328 -91 801 392 
Q 275 875 275 1747 
Q 275 2603 792 3093 
Q 1309 3584 2216 3584 
Q 3041 3584 3536 3087 
Q 4031 2591 4031 1759 
z
M 2881 2131 
Q 2881 2450 2695 2645 
Q 2509 2841 2209 2841 
Q 1884 2841 1681 2658 
Q 1478 2475 1428 2131 
L 2881 2131 
z
" transform="scale(0.015625)"/>
      <path id="DejaVuSans-Bold-72" d="M 3138 2547 
Q 2991 2616 2845 2648 
Q 2700 2681 2553 2681 
Q 2122 2681 1889 2404 
Q 1656 2128 1656 1613 
L 1656 0 
L 538 0 
L 538 3500 
L 1656 3500 
L 1656 2925 
Q 1872 3269 2151 3426 
Q 2431 3584 2822 3584 
Q 2878 3584 2943 3579 
Q 3009 3575 3134 3559 
L 3138 2547 
z
" transform="scale(0.015625)"/>
      <path id="DejaVuSans-Bold-64" d="M 2919 2988 
L 2919 4863 
L 4044 4863 
L 4044 0 
L 2919 0 
L 2919 506 
Q 2688 197 2409 53 
Q 2131 -91 1766 -91 
Q 1119 -91 703 423 
Q 288 938 288 1747 
Q 288 2556 703 3070 
Q 1119 3584 1766 3584 
Q 2128 3584 2408 3439 
Q 2688 3294 2919 2988 
z
M 2181 722 
Q 2541 722 2730 984 
Q 2919 1247 2919 1747 
Q 2919 2247 2730 2509 
Q 2541 2772 2181 2772 
Q 1825 2772 1636 2509 
Q 1447 2247 1447 1747 
Q 1447 1247 1636 984 
Q 1825 722 2181 722 
z
" transform="scale(0.015625)"/>
      <path id="DejaVuSans-Bold-20" transform="scale(0.015625)"/>
      <path id="DejaVuSans-Bold-62" d="M 2400 722 
Q 2759 722 2948 984 
Q 3138 1247 3138 1747 
Q 3138 2247 2948 2509 
Q 2759 2772 2400 2772 
Q 2041 2772 1848 2508 
Q 1656 2244 1656 1747 
Q 1656 1250 1848 986 
Q 2041 722 2400 722 
z
M 1656 2988 
Q 1888 3294 2169 3439 
Q 2450 3584 2816 3584 
Q 3463 3584 3878 3070 
Q 4294 2556 4294 1747 
Q 4294 938 3878 423 
Q 3463 -91 2816 -91 
Q 2450 -91 2169 54 
Q 1888 200 1656 506 
L 1656 0 
L 538 0 
L 538 4863 
L 1656 4863 
L 1656 2988 
z
" transform="scale(0.015625)"/>
      <path id="DejaVuSans-Bold-75" d="M 500 1363 
L 500 3500 
L 1625 3500 
L 1625 3150 
Q 1625 2866 1622 2436 
Q 1619 2006 1619 1863 
Q 1619 1441 1641 1255 
Q 1663 1069 1716 984 
Q 1784 875 1895 815 
Q 2006 756 2150 756 
Q 2500 756 2700 1025 
Q 2900 1294 2900 1772 
L 2900 3500 
L 4019 3500 
L 4019 0 
L 2900 0 
L 2900 506 
Q 2647 200 2364 54 
Q 2081 -91 1741 -91 
Q 1134 -91 817 281 
Q 500 653 500 1363 
z
" transform="scale(0.015625)"/>
      <path id="DejaVuSans-Bold-6b" d="M 538 4863 
L 1656 4863 
L 1656 2216 
L 2944 3500 
L 4244 3500 
L 2534 1894 
L 4378 0 
L 3022 0 
L 1656 1459 
L 1656 0 
L 538 0 
L 538 4863 
z
" transform="scale(0.015625)"/>
      <path id="DejaVuSans-Bold-61" d="M 2106 1575 
Q 1756 1575 1579 1456 
Q 1403 1338 1403 1106 
Q 1403 894 1545 773 
Q 1688 653 1941 653 
Q 2256 653 2472 879 
Q 2688 1106 2688 1447 
L 2688 1575 
L 2106 1575 
z
M 3816 1997 
L 3816 0 
L 2688 0 
L 2688 519 
Q 2463 200 2181 54 
Q 1900 -91 1497 -91 
Q 953 -91 614 226 
Q 275 544 275 1050 
Q 275 1666 698 1953 
Q 1122 2241 2028 2241 
L 2688 2241 
L 2688 2328 
Q 2688 2594 2478 2717 
Q 2269 2841 1825 2841 
Q 1466 2841 1156 2769 
Q 847 2697 581 2553 
L 581 3406 
Q 941 3494 1303 3539 
Q 1666 3584 2028 3584 
Q 2975 3584 3395 3211 
Q 3816 2838 3816 1997 
z
" transform="scale(0.015625)"/>
      <path id="DejaVuSans-Bold-63" d="M 3366 3391 
L 3366 2478 
Q 3138 2634 2908 2709 
Q 2678 2784 2431 2784 
Q 1963 2784 1702 2511 
Q 1441 2238 1441 1747 
Q 1441 1256 1702 982 
Q 1963 709 2431 709 
Q 2694 709 2930 787 
Q 3166 866 3366 1019 
L 3366 103 
Q 3103 6 2833 -42 
Q 2563 -91 2291 -91 
Q 1344 -91 809 395 
Q 275 881 275 1747 
Q 275 2613 809 3098 
Q 1344 3584 2291 3584 
Q 2566 3584 2833 3536 
Q 3100 3488 3366 3391 
z
" transform="scale(0.015625)"/>
      <path id="DejaVuSans-Bold-79" d="M 78 3500 
L 1197 3500 
L 2138 1125 
L 2938 3500 
L 4056 3500 
L 2584 -331 
Q 2363 -916 2067 -1148 
Q 1772 -1381 1288 -1381 
L 641 -1381 
L 641 -647 
L 991 -647 
Q 1275 -647 1404 -556 
Q 1534 -466 1606 -231 
L 1638 -134 
L 78 3500 
z
" transform="scale(0.015625)"/>
     </defs>
     <use xlink:href="#DejaVuSans-Bold-46"/>
     <use xlink:href="#DejaVuSans-Bold-69" transform="translate(68.310547 0)"/>
     <use xlink:href="#DejaVuSans-Bold-6c" transform="translate(102.587891 0)"/>
     <use xlink:href="#DejaVuSans-Bold-74" transform="translate(136.865234 0)"/>
     <use xlink:href="#DejaVuSans-Bold-65" transform="translate(184.667969 0)"/>
     <use xlink:href="#DejaVuSans-Bold-72" transform="translate(252.490234 0)"/>
     <use xlink:href="#DejaVuSans-Bold-65" transform="translate(301.806641 0)"/>
     <use xlink:href="#DejaVuSans-Bold-64" transform="translate(369.628906 0)"/>
     <use xlink:href="#DejaVuSans-Bold-20" transform="translate(441.210938 0)"/>
     <use xlink:href="#DejaVuSans-Bold-62" transform="translate(476.025391 0)"/>
     <use xlink:href="#DejaVuSans-Bold-75" transform="translate(547.607422 0)"/>
     <use xlink:href="#DejaVuSans-Bold-6c" transform="translate(618.798828 0)"/>
     <use xlink:href="#DejaVuSans-Bold-6b" transform="translate(653.076172 0)"/>
     <use xlink:href="#DejaVuSans-Bold-20" transform="translate(719.580078 0)"/>
     <use xlink:href="#DejaVuSans-Bold-61" transform="translate(754.394531 0)"/>
     <use xlink:href="#DejaVuSans-Bold-63" transform="translate(821.875 0)"/>
     <use xlink:href="#DejaVuSans-Bold-63" transform="translate(881.152344 0)"/>
     <use xlink:href="#DejaVuSans-Bold-75" transform="translate(940.429688 0)"/>
     <use xlink:href="#DejaVuSans-Bold-72" transform="translate(1011.621094 0)"/>
     <use xlink:href="#DejaVuSans-Bold-61" transform="translate(1060.9375 0)"/>
     <use xlink:href="#DejaVuSans-Bold-63" transform="translate(1128.417969 0)"/>
     <use xlink:href="#DejaVuSans-Bold-79" transform="translate(1187.695312 0)"/>
    </g>
   </g>
   <g id="legend_1">
    <g id="patch_31">
     <path d="M 76.210625 94.118437 
L 190.597813 94.118437 
Q 194.197812 94.118437 194.197812 90.518437 
L 194.197812 39.477188 
Q 194.197812 35.877187 190.597813 35.877187 
L 76.210625 35.877187 
Q 72.610625 35.877187 72.610625 39.477188 
L 72.610625 90.518437 
Q 72.610625 94.118437 76.210625 94.118437 
z
" style="fill: #ffffff; opacity: 0.8; stroke: #cccccc; stroke-width: 0.8; stroke-linejoin: miter"/>
    </g>
    <g id="patch_32">
     <path d="M 79.810625 56.754375 
L 115.810625 56.754375 
L 115.810625 44.154375 
L 79.810625 44.154375 
z
" style="fill: #8fd19e; stroke: #000000; stroke-width: 0.5; stroke-linejoin: miter"/>
    </g>
    <g id="text_21">
     <!-- 1-field -->
     <g style="fill: #262626" transform="translate(130.210625 56.754375) scale(0.18 -0.18)">
      <defs>
       <path id="DejaVuSans-2d" d="M 313 2009 
L 1997 2009 
L 1997 1497 
L 313 1497 
L 313 2009 
z
" transform="scale(0.015625)"/>
      </defs>
      <use xlink:href="#DejaVuSans-31"/>
      <use xlink:href="#DejaVuSans-2d" transform="translate(63.623047 0)"/>
      <use xlink:href="#DejaVuSans-66" transform="translate(99.707031 0)"/>
      <use xlink:href="#DejaVuSans-69" transform="translate(134.912109 0)"/>
      <use xlink:href="#DejaVuSans-65" transform="translate(162.695312 0)"/>
      <use xlink:href="#DejaVuSans-6c" transform="translate(224.21875 0)"/>
      <use xlink:href="#DejaVuSans-64" transform="translate(252.001953 0)"/>
     </g>
    </g>
    <g id="patch_33">
     <path d="M 79.810625 83.175 
L 115.810625 83.175 
L 115.810625 70.575 
L 79.810625 70.575 
z
" style="fill: #2e8b57; stroke: #000000; stroke-width: 0.5; stroke-linejoin: miter"/>
    </g>
    <g id="text_22">
     <!-- 2-field -->
     <g style="fill: #262626" transform="translate(130.210625 83.175) scale(0.18 -0.18)">
      <use xlink:href="#DejaVuSans-32"/>
      <use xlink:href="#DejaVuSans-2d" transform="translate(63.623047 0)"/>
      <use xlink:href="#DejaVuSans-66" transform="translate(99.707031 0)"/>
      <use xlink:href="#DejaVuSans-69" transform="translate(134.912109 0)"/>
      <use xlink:href="#DejaVuSans-65" transform="translate(162.695312 0)"/>
      <use xlink:href="#DejaVuSans-6c" transform="translate(224.21875 0)"/>
      <use xlink:href="#DejaVuSans-64" transform="translate(252.001953 0)"/>
     </g>
    </g>
   </g>
  </g>
  <g id="axes_2">
   <g id="patch_34">
    <path d="M 677.513225 338.190082 
L 1223.221025 338.190082 
L 1223.221025 26.877187 
L 677.513225 26.877187 
z
" style="fill: #ffffff"/>
   </g>
   <g id="matplotlib.axis_3">
    <g id="xtick_13">
     <g id="text_23">
      <!-- hlaminer -->
      <g style="fill: #262626" transform="translate(658.04542 412.627547) rotate(-45) scale(0.18 -0.18)">
       <use xlink:href="#DejaVuSans-68"/>
       <use xlink:href="#DejaVuSans-6c" transform="translate(63.378906 0)"/>
       <use xlink:href="#DejaVuSans-61" transform="translate(91.162109 0)"/>
       <use xlink:href="#DejaVuSans-6d" transform="translate(152.441406 0)"/>
       <use xlink:href="#DejaVuSans-69" transform="translate(249.853516 0)"/>
       <use xlink:href="#DejaVuSans-6e" transform="translate(277.636719 0)"/>
       <use xlink:href="#DejaVuSans-65" transform="translate(341.015625 0)"/>
       <use xlink:href="#DejaVuSans-72" transform="translate(402.539062 0)"/>
      </g>
     </g>
    </g>
    <g id="xtick_14">
     <g id="text_24">
      <!-- optitype -->
      <g style="fill: #262626" transform="translate(704.08436 408.990146) rotate(-45) scale(0.18 -0.18)">
       <use xlink:href="#DejaVuSans-6f"/>
       <use xlink:href="#DejaVuSans-70" transform="translate(61.181641 0)"/>
       <use xlink:href="#DejaVuSans-74" transform="translate(124.658203 0)"/>
       <use xlink:href="#DejaVuSans-69" transform="translate(163.867188 0)"/>
       <use xlink:href="#DejaVuSans-74" transform="translate(191.650391 0)"/>
       <use xlink:href="#DejaVuSans-79" transform="translate(230.859375 0)"/>
       <use xlink:href="#DejaVuSans-70" transform="translate(290.039062 0)"/>
       <use xlink:href="#DejaVuSans-65" transform="translate(353.515625 0)"/>
      </g>
     </g>
    </g>
    <g id="xtick_15">
     <g id="text_25">
      <!-- phlat -->
      <g style="fill: #262626" transform="translate(766.842619 388.633425) rotate(-45) scale(0.18 -0.18)">
       <use xlink:href="#DejaVuSans-70"/>
       <use xlink:href="#DejaVuSans-68" transform="translate(63.476562 0)"/>
       <use xlink:href="#DejaVuSans-6c" transform="translate(126.855469 0)"/>
       <use xlink:href="#DejaVuSans-61" transform="translate(154.638672 0)"/>
       <use xlink:href="#DejaVuSans-74" transform="translate(215.917969 0)"/>
      </g>
     </g>
    </g>
    <g id="xtick_16">
     <g id="text_26">
      <!-- hlavbseq -->
      <g style="fill: #262626" transform="translate(784.158219 413.719364) rotate(-45) scale(0.18 -0.18)">
       <use xlink:href="#DejaVuSans-68"/>
       <use xlink:href="#DejaVuSans-6c" transform="translate(63.378906 0)"/>
       <use xlink:href="#DejaVuSans-61" transform="translate(91.162109 0)"/>
       <use xlink:href="#DejaVuSans-76" transform="translate(152.441406 0)"/>
       <use xlink:href="#DejaVuSans-62" transform="translate(211.621094 0)"/>
       <use xlink:href="#DejaVuSans-73" transform="translate(275.097656 0)"/>
       <use xlink:href="#DejaVuSans-65" transform="translate(327.197266 0)"/>
       <use xlink:href="#DejaVuSans-71" transform="translate(388.720703 0)"/>
      </g>
     </g>
    </g>
    <g id="xtick_17">
     <g id="text_27">
      <!-- hlaforest -->
      <g style="fill: #262626" transform="translate(828.049322 412.2298) rotate(-45) scale(0.18 -0.18)">
       <use xlink:href="#DejaVuSans-68"/>
       <use xlink:href="#DejaVuSans-6c" transform="translate(63.378906 0)"/>
       <use xlink:href="#DejaVuSans-61" transform="translate(91.162109 0)"/>
       <use xlink:href="#DejaVuSans-66" transform="translate(152.441406 0)"/>
       <use xlink:href="#DejaVuSans-6f" transform="translate(187.646484 0)"/>
       <use xlink:href="#DejaVuSans-72" transform="translate(248.828125 0)"/>
       <use xlink:href="#DejaVuSans-65" transform="translate(287.691406 0)"/>
       <use xlink:href="#DejaVuSans-73" transform="translate(349.214844 0)"/>
       <use xlink:href="#DejaVuSans-74" transform="translate(401.314453 0)"/>
      </g>
     </g>
    </g>
    <g id="xtick_18">
     <g id="text_28">
      <!-- seq2hla -->
      <g style="fill: #262626" transform="translate(876.476736 406.203924) rotate(-45) scale(0.18 -0.18)">
       <use xlink:href="#DejaVuSans-73"/>
       <use xlink:href="#DejaVuSans-65" transform="translate(52.099609 0)"/>
       <use xlink:href="#DejaVuSans-71" transform="translate(113.623047 0)"/>
       <use xlink:href="#DejaVuSans-32" transform="translate(177.099609 0)"/>
       <use xlink:href="#DejaVuSans-68" transform="translate(240.722656 0)"/>
       <use xlink:href="#DejaVuSans-6c" transform="translate(304.101562 0)"/>
       <use xlink:href="#DejaVuSans-61" transform="translate(331.884766 0)"/>
      </g>
     </g>
    </g>
    <g id="xtick_19">
     <g id="text_29">
      <!-- rna2hla -->
      <g style="fill: #262626" transform="translate(920.544837 404.537362) rotate(-45) scale(0.18 -0.18)">
       <use xlink:href="#DejaVuSans-72"/>
       <use xlink:href="#DejaVuSans-6e" transform="translate(39.363281 0)"/>
       <use xlink:href="#DejaVuSans-61" transform="translate(102.742188 0)"/>
       <use xlink:href="#DejaVuSans-32" transform="translate(164.021484 0)"/>
       <use xlink:href="#DejaVuSans-68" transform="translate(227.644531 0)"/>
       <use xlink:href="#DejaVuSans-6c" transform="translate(291.023438 0)"/>
       <use xlink:href="#DejaVuSans-61" transform="translate(318.806641 0)"/>
      </g>
     </g>
    </g>
    <g id="xtick_20">
     <g id="text_30">
      <!-- arcas -->
      <g style="fill: #262626" transform="translate(977.147952 390.335785) rotate(-45) scale(0.18 -0.18)">
       <use xlink:href="#DejaVuSans-61"/>
       <use xlink:href="#DejaVuSans-72" transform="translate(61.279297 0)"/>
       <use xlink:href="#DejaVuSans-63" transform="translate(100.142578 0)"/>
       <use xlink:href="#DejaVuSans-61" transform="translate(155.123047 0)"/>
       <use xlink:href="#DejaVuSans-73" transform="translate(216.402344 0)"/>
      </g>
     </g>
    </g>
    <g id="xtick_21">
     <g id="text_31">
      <!-- hisat -->
      <g style="fill: #262626" transform="translate(1022.70164 387.183635) rotate(-45) scale(0.18 -0.18)">
       <use xlink:href="#DejaVuSans-68"/>
       <use xlink:href="#DejaVuSans-69" transform="translate(63.378906 0)"/>
       <use xlink:href="#DejaVuSans-73" transform="translate(91.162109 0)"/>
       <use xlink:href="#DejaVuSans-61" transform="translate(143.261719 0)"/>
       <use xlink:href="#DejaVuSans-74" transform="translate(204.541016 0)"/>
      </g>
     </g>
    </g>
    <g id="xtick_22">
     <g id="text_32">
      <!-- hlahd -->
      <g style="fill: #262626" transform="translate(1060.576811 391.710003) rotate(-45) scale(0.18 -0.18)">
       <use xlink:href="#DejaVuSans-68"/>
       <use xlink:href="#DejaVuSans-6c" transform="translate(63.378906 0)"/>
       <use xlink:href="#DejaVuSans-61" transform="translate(91.162109 0)"/>
       <use xlink:href="#DejaVuSans-68" transform="translate(152.441406 0)"/>
       <use xlink:href="#DejaVuSans-64" transform="translate(215.820312 0)"/>
      </g>
     </g>
    </g>
    <g id="xtick_23">
     <g id="text_33">
      <!-- hlapers -->
      <g style="fill: #262626" transform="translate(1091.350199 403.338153) rotate(-45) scale(0.18 -0.18)">
       <use xlink:href="#DejaVuSans-68"/>
       <use xlink:href="#DejaVuSans-6c" transform="translate(63.378906 0)"/>
       <use xlink:href="#DejaVuSans-61" transform="translate(91.162109 0)"/>
       <use xlink:href="#DejaVuSans-70" transform="translate(152.441406 0)"/>
       <use xlink:href="#DejaVuSans-65" transform="translate(215.917969 0)"/>
       <use xlink:href="#DejaVuSans-72" transform="translate(277.441406 0)"/>
       <use xlink:href="#DejaVuSans-73" transform="translate(318.554688 0)"/>
      </g>
     </g>
    </g>
    <g id="xtick_24">
     <g id="text_34">
      <!-- T1K -->
      <g style="fill: #262626" transform="translate(1156.709727 380.380163) rotate(-45) scale(0.18 -0.18)">
       <use xlink:href="#DejaVuSans-54"/>
       <use xlink:href="#DejaVuSans-31" transform="translate(61.083984 0)"/>
       <use xlink:href="#DejaVuSans-4b" transform="translate(124.707031 0)"/>
      </g>
     </g>
    </g>
   </g>
   <g id="matplotlib.axis_4">
    <g id="ytick_7">
     <g id="line2d_1">
      <defs>
       <path id="me9185ecc67" d="M 0 0 
L -4.8 0 
" style="stroke: #262626"/>
      </defs>
      <g>
       <use xlink:href="#me9185ecc67" x="677.513225" y="338.190082" style="fill: #262626; stroke: #262626"/>
      </g>
     </g>
     <g id="text_35">
      <!-- 0.0 -->
      <g style="fill: #262626" transform="translate(640.5876 345.028676) scale(0.18 -0.18)">
       <use xlink:href="#DejaVuSans-30"/>
       <use xlink:href="#DejaVuSans-2e" transform="translate(63.623047 0)"/>
       <use xlink:href="#DejaVuSans-30" transform="translate(95.410156 0)"/>
      </g>
     </g>
    </g>
    <g id="ytick_8">
     <g id="line2d_2">
      <g>
       <use xlink:href="#me9185ecc67" x="677.513225" y="278.892388" style="fill: #262626; stroke: #262626"/>
      </g>
     </g>
     <g id="text_36">
      <!-- 0.2 -->
      <g style="fill: #262626" transform="translate(640.5876 285.730982) scale(0.18 -0.18)">
       <use xlink:href="#DejaVuSans-30"/>
       <use xlink:href="#DejaVuSans-2e" transform="translate(63.623047 0)"/>
       <use xlink:href="#DejaVuSans-32" transform="translate(95.410156 0)"/>
      </g>
     </g>
    </g>
    <g id="ytick_9">
     <g id="line2d_3">
      <g>
       <use xlink:href="#me9185ecc67" x="677.513225" y="219.594694" style="fill: #262626; stroke: #262626"/>
      </g>
     </g>
     <g id="text_37">
      <!-- 0.4 -->
      <g style="fill: #262626" transform="translate(640.5876 226.433287) scale(0.18 -0.18)">
       <use xlink:href="#DejaVuSans-30"/>
       <use xlink:href="#DejaVuSans-2e" transform="translate(63.623047 0)"/>
       <use xlink:href="#DejaVuSans-34" transform="translate(95.410156 0)"/>
      </g>
     </g>
    </g>
    <g id="ytick_10">
     <g id="line2d_4">
      <g>
       <use xlink:href="#me9185ecc67" x="677.513225" y="160.297" style="fill: #262626; stroke: #262626"/>
      </g>
     </g>
     <g id="text_38">
      <!-- 0.6 -->
      <g style="fill: #262626" transform="translate(640.5876 167.135593) scale(0.18 -0.18)">
       <use xlink:href="#DejaVuSans-30"/>
       <use xlink:href="#DejaVuSans-2e" transform="translate(63.623047 0)"/>
       <use xlink:href="#DejaVuSans-36" transform="translate(95.410156 0)"/>
      </g>
     </g>
    </g>
    <g id="ytick_11">
     <g id="line2d_5">
      <g>
       <use xlink:href="#me9185ecc67" x="677.513225" y="100.999305" style="fill: #262626; stroke: #262626"/>
      </g>
     </g>
     <g id="text_39">
      <!-- 0.8 -->
      <g style="fill: #262626" transform="translate(640.5876 107.837899) scale(0.18 -0.18)">
       <use xlink:href="#DejaVuSans-30"/>
       <use xlink:href="#DejaVuSans-2e" transform="translate(63.623047 0)"/>
       <use xlink:href="#DejaVuSans-38" transform="translate(95.410156 0)"/>
      </g>
     </g>
    </g>
    <g id="ytick_12">
     <g id="line2d_6">
      <g>
       <use xlink:href="#me9185ecc67" x="677.513225" y="41.701611" style="fill: #262626; stroke: #262626"/>
      </g>
     </g>
     <g id="text_40">
      <!-- 1.0 -->
      <g style="fill: #262626" transform="translate(640.5876 48.540205) scale(0.18 -0.18)">
       <use xlink:href="#DejaVuSans-31"/>
       <use xlink:href="#DejaVuSans-2e" transform="translate(63.623047 0)"/>
       <use xlink:href="#DejaVuSans-30" transform="translate(95.410156 0)"/>
      </g>
     </g>
    </g>
    <g id="text_41">
     <!-- Accuracy -->
     <g style="fill: #262626" transform="translate(633.2601 219.058635) rotate(-90) scale(0.16 -0.16)">
      <use xlink:href="#DejaVuSans-41"/>
      <use xlink:href="#DejaVuSans-63" transform="translate(66.658203 0)"/>
      <use xlink:href="#DejaVuSans-63" transform="translate(121.638672 0)"/>
      <use xlink:href="#DejaVuSans-75" transform="translate(176.619141 0)"/>
      <use xlink:href="#DejaVuSans-72" transform="translate(239.998047 0)"/>
      <use xlink:href="#DejaVuSans-61" transform="translate(281.111328 0)"/>
      <use xlink:href="#DejaVuSans-63" transform="translate(342.390625 0)"/>
      <use xlink:href="#DejaVuSans-79" transform="translate(397.371094 0)"/>
     </g>
    </g>
   </g>
   <g id="patch_35">
    <path d="M 702.318125 338.190082 
L 717.158663 338.190082 
L 717.158663 263.055674 
L 702.318125 263.055674 
z
" clip-path="url(#pffe407e940)" style="fill: #8fd19e; stroke: #000000; stroke-width: 0.5; stroke-linejoin: miter"/>
   </g>
   <g id="patch_36">
    <path d="M 744.719663 338.190082 
L 759.560202 338.190082 
L 759.560202 160.778561 
L 744.719663 160.778561 
z
" clip-path="url(#pffe407e940)" style="fill: #8fd19e; stroke: #000000; stroke-width: 0.5; stroke-linejoin: miter"/>
   </g>
   <g id="patch_37">
    <path d="M 787.121202 338.190082 
L 801.96174 338.190082 
L 801.96174 62.844056 
L 787.121202 62.844056 
z
" clip-path="url(#pffe407e940)" style="fill: #8fd19e; stroke: #000000; stroke-width: 0.5; stroke-linejoin: miter"/>
   </g>
   <g id="patch_38">
    <path d="M 829.52274 338.190082 
L 844.363279 338.190082 
L 844.363279 50.592972 
L 829.52274 50.592972 
z
" clip-path="url(#pffe407e940)" style="fill: #8fd19e; stroke: #000000; stroke-width: 0.5; stroke-linejoin: miter"/>
   </g>
   <g id="patch_39">
    <path d="M 871.924279 338.190082 
L 886.764817 338.190082 
L 886.764817 44.820239 
L 871.924279 44.820239 
z
" clip-path="url(#pffe407e940)" style="fill: #8fd19e; stroke: #000000; stroke-width: 0.5; stroke-linejoin: miter"/>
   </g>
   <g id="patch_40">
    <path d="M 914.325817 338.190082 
L 929.166356 338.190082 
L 929.166356 49.27293 
L 914.325817 49.27293 
z
" clip-path="url(#pffe407e940)" style="fill: #8fd19e; stroke: #000000; stroke-width: 0.5; stroke-linejoin: miter"/>
   </g>
   <g id="patch_41">
    <path d="M 956.727356 338.190082 
L 971.567894 338.190082 
L 971.567894 47.019544 
L 956.727356 47.019544 
z
" clip-path="url(#pffe407e940)" style="fill: #8fd19e; stroke: #000000; stroke-width: 0.5; stroke-linejoin: miter"/>
   </g>
   <g id="patch_42">
    <path d="M 999.128894 338.190082 
L 1013.969433 338.190082 
L 1013.969433 44.380065 
L 999.128894 44.380065 
z
" clip-path="url(#pffe407e940)" style="fill: #8fd19e; stroke: #000000; stroke-width: 0.5; stroke-linejoin: miter"/>
   </g>
   <g id="patch_43">
    <path d="M 1041.530433 338.190082 
L 1056.370971 338.190082 
L 1056.370971 44.544576 
L 1041.530433 44.544576 
z
" clip-path="url(#pffe407e940)" style="fill: #8fd19e; stroke: #000000; stroke-width: 0.5; stroke-linejoin: miter"/>
   </g>
   <g id="patch_44">
    <path d="M 1083.931971 338.190082 
L 1098.77251 338.190082 
L 1098.77251 45.530092 
L 1083.931971 45.530092 
z
" clip-path="url(#pffe407e940)" style="fill: #8fd19e; stroke: #000000; stroke-width: 0.5; stroke-linejoin: miter"/>
   </g>
   <g id="patch_45">
    <path d="M 1126.33351 338.190082 
L 1141.174048 338.190082 
L 1141.174048 70.617983 
L 1126.33351 70.617983 
z
" clip-path="url(#pffe407e940)" style="fill: #8fd19e; stroke: #000000; stroke-width: 0.5; stroke-linejoin: miter"/>
   </g>
   <g id="patch_46">
    <path d="M 1168.735048 338.190082 
L 1183.575587 338.190082 
L 1183.575587 43.286819 
L 1168.735048 43.286819 
z
" clip-path="url(#pffe407e940)" style="fill: #8fd19e; stroke: #000000; stroke-width: 0.5; stroke-linejoin: miter"/>
   </g>
   <g id="patch_47">
    <path d="M 717.158663 338.190082 
L 731.999202 338.190082 
L 731.999202 286.886242 
L 717.158663 286.886242 
z
" clip-path="url(#pffe407e940)" style="fill: #2e8b57; stroke: #000000; stroke-width: 0.5; stroke-linejoin: miter"/>
   </g>
   <g id="patch_48">
    <path d="M 759.560202 338.190082 
L 774.40074 338.190082 
L 774.40074 162.30616 
L 759.560202 162.30616 
z
" clip-path="url(#pffe407e940)" style="fill: #2e8b57; stroke: #000000; stroke-width: 0.5; stroke-linejoin: miter"/>
   </g>
   <g id="patch_49">
    <path d="M 801.96174 338.190082 
L 816.802279 338.190082 
L 816.802279 73.006393 
L 801.96174 73.006393 
z
" clip-path="url(#pffe407e940)" style="fill: #2e8b57; stroke: #000000; stroke-width: 0.5; stroke-linejoin: miter"/>
   </g>
   <g id="patch_50">
    <path d="M 844.363279 338.190082 
L 859.203817 338.190082 
L 859.203817 65.990859 
L 844.363279 65.990859 
z
" clip-path="url(#pffe407e940)" style="fill: #2e8b57; stroke: #000000; stroke-width: 0.5; stroke-linejoin: miter"/>
   </g>
   <g id="patch_51">
    <path d="M 886.764817 338.190082 
L 901.605356 338.190082 
L 901.605356 62.641407 
L 886.764817 62.641407 
z
" clip-path="url(#pffe407e940)" style="fill: #2e8b57; stroke: #000000; stroke-width: 0.5; stroke-linejoin: miter"/>
   </g>
   <g id="patch_52">
    <path d="M 929.166356 338.190082 
L 944.006894 338.190082 
L 944.006894 51.134531 
L 929.166356 51.134531 
z
" clip-path="url(#pffe407e940)" style="fill: #2e8b57; stroke: #000000; stroke-width: 0.5; stroke-linejoin: miter"/>
   </g>
   <g id="patch_53">
    <path d="M 971.567894 338.190082 
L 986.408433 338.190082 
L 986.408433 51.125729 
L 971.567894 51.125729 
z
" clip-path="url(#pffe407e940)" style="fill: #2e8b57; stroke: #000000; stroke-width: 0.5; stroke-linejoin: miter"/>
   </g>
   <g id="patch_54">
    <path d="M 1013.969433 338.190082 
L 1028.809971 338.190082 
L 1028.809971 50.991965 
L 1013.969433 50.991965 
z
" clip-path="url(#pffe407e940)" style="fill: #2e8b57; stroke: #000000; stroke-width: 0.5; stroke-linejoin: miter"/>
   </g>
   <g id="patch_55">
    <path d="M 1056.370971 338.190082 
L 1071.21151 338.190082 
L 1071.21151 50.551172 
L 1056.370971 50.551172 
z
" clip-path="url(#pffe407e940)" style="fill: #2e8b57; stroke: #000000; stroke-width: 0.5; stroke-linejoin: miter"/>
   </g>
   <g id="patch_56">
    <path d="M 1098.77251 338.190082 
L 1113.613048 338.190082 
L 1113.613048 50.283125 
L 1098.77251 50.283125 
z
" clip-path="url(#pffe407e940)" style="fill: #2e8b57; stroke: #000000; stroke-width: 0.5; stroke-linejoin: miter"/>
   </g>
   <g id="patch_57">
    <path d="M 1141.174048 338.190082 
L 1156.014587 338.190082 
L 1156.014587 50.211303 
L 1141.174048 50.211303 
z
" clip-path="url(#pffe407e940)" style="fill: #2e8b57; stroke: #000000; stroke-width: 0.5; stroke-linejoin: miter"/>
   </g>
   <g id="patch_58">
    <path d="M 1183.575587 338.190082 
L 1198.416125 338.190082 
L 1198.416125 49.299582 
L 1183.575587 49.299582 
z
" clip-path="url(#pffe407e940)" style="fill: #2e8b57; stroke: #000000; stroke-width: 0.5; stroke-linejoin: miter"/>
   </g>
   <g id="patch_59">
    <path d="M 677.513225 338.190082 
L 677.513225 26.877187 
" style="fill: none; stroke: #262626; stroke-linejoin: miter; stroke-linecap: square"/>
   </g>
   <g id="patch_60">
    <path d="M 1223.221025 338.190082 
L 1223.221025 26.877187 
" style="fill: none; stroke: #262626; stroke-linejoin: miter; stroke-linecap: square"/>
   </g>
   <g id="patch_61">
    <path d="M 677.513225 338.190082 
L 1223.221025 338.190082 
" style="fill: none; stroke: #262626; stroke-linejoin: miter; stroke-linecap: square"/>
   </g>
   <g id="patch_62">
    <path d="M 677.513225 26.877187 
L 1223.221025 26.877187 
" style="fill: none; stroke: #262626; stroke-linejoin: miter; stroke-linecap: square"/>
   </g>
   <g id="text_42">
    <!-- Filtered bulk + no-call rate -->
    <g style="fill: #262626" transform="translate(813.841344 20.877187) scale(0.18 -0.18)">
     <defs>
      <path id="DejaVuSans-Bold-2b" d="M 3053 4013 
L 3053 2375 
L 4684 2375 
L 4684 1638 
L 3053 1638 
L 3053 0 
L 2309 0 
L 2309 1638 
L 678 1638 
L 678 2375 
L 2309 2375 
L 2309 4013 
L 3053 4013 
z
" transform="scale(0.015625)"/>
      <path id="DejaVuSans-Bold-6e" d="M 4056 2131 
L 4056 0 
L 2931 0 
L 2931 347 
L 2931 1631 
Q 2931 2084 2911 2256 
Q 2891 2428 2841 2509 
Q 2775 2619 2662 2680 
Q 2550 2741 2406 2741 
Q 2056 2741 1856 2470 
Q 1656 2200 1656 1722 
L 1656 0 
L 538 0 
L 538 3500 
L 1656 3500 
L 1656 2988 
Q 1909 3294 2193 3439 
Q 2478 3584 2822 3584 
Q 3428 3584 3742 3212 
Q 4056 2841 4056 2131 
z
" transform="scale(0.015625)"/>
      <path id="DejaVuSans-Bold-6f" d="M 2203 2784 
Q 1831 2784 1636 2517 
Q 1441 2250 1441 1747 
Q 1441 1244 1636 976 
Q 1831 709 2203 709 
Q 2569 709 2762 976 
Q 2956 1244 2956 1747 
Q 2956 2250 2762 2517 
Q 2569 2784 2203 2784 
z
M 2203 3584 
Q 3106 3584 3614 3096 
Q 4122 2609 4122 1747 
Q 4122 884 3614 396 
Q 3106 -91 2203 -91 
Q 1297 -91 786 396 
Q 275 884 275 1747 
Q 275 2609 786 3096 
Q 1297 3584 2203 3584 
z
" transform="scale(0.015625)"/>
      <path id="DejaVuSans-Bold-2d" d="M 347 2297 
L 2309 2297 
L 2309 1388 
L 347 1388 
L 347 2297 
z
" transform="scale(0.015625)"/>
     </defs>
     <use xlink:href="#DejaVuSans-Bold-46"/>
     <use xlink:href="#DejaVuSans-Bold-69" transform="translate(68.310547 0)"/>
     <use xlink:href="#DejaVuSans-Bold-6c" transform="translate(102.587891 0)"/>
     <use xlink:href="#DejaVuSans-Bold-74" transform="translate(136.865234 0)"/>
     <use xlink:href="#DejaVuSans-Bold-65" transform="translate(184.667969 0)"/>
     <use xlink:href="#DejaVuSans-Bold-72" transform="translate(252.490234 0)"/>
     <use xlink:href="#DejaVuSans-Bold-65" transform="translate(301.806641 0)"/>
     <use xlink:href="#DejaVuSans-Bold-64" transform="translate(369.628906 0)"/>
     <use xlink:href="#DejaVuSans-Bold-20" transform="translate(441.210938 0)"/>
     <use xlink:href="#DejaVuSans-Bold-62" transform="translate(476.025391 0)"/>
     <use xlink:href="#DejaVuSans-Bold-75" transform="translate(547.607422 0)"/>
     <use xlink:href="#DejaVuSans-Bold-6c" transform="translate(618.798828 0)"/>
     <use xlink:href="#DejaVuSans-Bold-6b" transform="translate(653.076172 0)"/>
     <use xlink:href="#DejaVuSans-Bold-20" transform="translate(719.580078 0)"/>
     <use xlink:href="#DejaVuSans-Bold-2b" transform="translate(754.394531 0)"/>
     <use xlink:href="#DejaVuSans-Bold-20" transform="translate(838.183594 0)"/>
     <use xlink:href="#DejaVuSans-Bold-6e" transform="translate(872.998047 0)"/>
     <use xlink:href="#DejaVuSans-Bold-6f" transform="translate(944.189453 0)"/>
     <use xlink:href="#DejaVuSans-Bold-2d" transform="translate(1012.890625 0)"/>
     <use xlink:href="#DejaVuSans-Bold-63" transform="translate(1054.394531 0)"/>
     <use xlink:href="#DejaVuSans-Bold-61" transform="translate(1113.671875 0)"/>
     <use xlink:href="#DejaVuSans-Bold-6c" transform="translate(1181.152344 0)"/>
     <use xlink:href="#DejaVuSans-Bold-6c" transform="translate(1215.429688 0)"/>
     <use xlink:href="#DejaVuSans-Bold-20" transform="translate(1249.707031 0)"/>
     <use xlink:href="#DejaVuSans-Bold-72" transform="translate(1284.521484 0)"/>
     <use xlink:href="#DejaVuSans-Bold-61" transform="translate(1333.837891 0)"/>
     <use xlink:href="#DejaVuSans-Bold-74" transform="translate(1401.318359 0)"/>
     <use xlink:href="#DejaVuSans-Bold-65" transform="translate(1449.121094 0)"/>
    </g>
   </g>
   <g id="legend_2">
    <g id="patch_63">
     <path d="M 690.113225 94.118437 
L 804.500413 94.118437 
Q 808.100413 94.118437 808.100413 90.518437 
L 808.100413 39.477188 
Q 808.100413 35.877187 804.500413 35.877187 
L 690.113225 35.877187 
Q 686.513225 35.877187 686.513225 39.477188 
L 686.513225 90.518437 
Q 686.513225 94.118437 690.113225 94.118437 
z
" style="fill: #ffffff; opacity: 0.8; stroke: #cccccc; stroke-width: 0.8; stroke-linejoin: miter"/>
    </g>
    <g id="patch_64">
     <path d="M 693.713225 56.754375 
L 729.713225 56.754375 
L 729.713225 44.154375 
L 693.713225 44.154375 
z
" style="fill: #8fd19e; stroke: #000000; stroke-width: 0.5; stroke-linejoin: miter"/>
    </g>
    <g id="text_43">
     <!-- 1-field -->
     <g style="fill: #262626" transform="translate(744.113225 56.754375) scale(0.18 -0.18)">
      <use xlink:href="#DejaVuSans-31"/>
      <use xlink:href="#DejaVuSans-2d" transform="translate(63.623047 0)"/>
      <use xlink:href="#DejaVuSans-66" transform="translate(99.707031 0)"/>
      <use xlink:href="#DejaVuSans-69" transform="translate(134.912109 0)"/>
      <use xlink:href="#DejaVuSans-65" transform="translate(162.695312 0)"/>
      <use xlink:href="#DejaVuSans-6c" transform="translate(224.21875 0)"/>
      <use xlink:href="#DejaVuSans-64" transform="translate(252.001953 0)"/>
     </g>
    </g>
    <g id="patch_65">
     <path d="M 693.713225 83.175 
L 729.713225 83.175 
L 729.713225 70.575 
L 693.713225 70.575 
z
" style="fill: #2e8b57; stroke: #000000; stroke-width: 0.5; stroke-linejoin: miter"/>
    </g>
    <g id="text_44">
     <!-- 2-field -->
     <g style="fill: #262626" transform="translate(744.113225 83.175) scale(0.18 -0.18)">
      <use xlink:href="#DejaVuSans-32"/>
      <use xlink:href="#DejaVuSans-2d" transform="translate(63.623047 0)"/>
      <use xlink:href="#DejaVuSans-66" transform="translate(99.707031 0)"/>
      <use xlink:href="#DejaVuSans-69" transform="translate(134.912109 0)"/>
      <use xlink:href="#DejaVuSans-65" transform="translate(162.695312 0)"/>
      <use xlink:href="#DejaVuSans-6c" transform="translate(224.21875 0)"/>
      <use xlink:href="#DejaVuSans-64" transform="translate(252.001953 0)"/>
     </g>
    </g>
   </g>
  </g>
  <g id="axes_3">
   <g id="matplotlib.axis_5">
    <g id="ytick_13">
     <g id="line2d_7">
      <defs>
       <path id="mea97065b9e" d="M 0 0 
L 4.8 0 
" style="stroke: #ff0000"/>
      </defs>
      <g>
       <use xlink:href="#mea97065b9e" x="1223.221025" y="338.190082" style="fill: #ff0000; stroke: #ff0000"/>
      </g>
     </g>
     <g id="text_45">
      <!-- 0.0 -->
      <g style="fill: #ff0000" transform="translate(1231.521025 345.028676) scale(0.18 -0.18)">
       <use xlink:href="#DejaVuSans-30"/>
       <use xlink:href="#DejaVuSans-2e" transform="translate(63.623047 0)"/>
       <use xlink:href="#DejaVuSans-30" transform="translate(95.410156 0)"/>
      </g>
     </g>
    </g>
    <g id="ytick_14">
     <g id="line2d_8">
      <g>
       <use xlink:href="#mea97065b9e" x="1223.221025" y="275.927503" style="fill: #ff0000; stroke: #ff0000"/>
      </g>
     </g>
     <g id="text_46">
      <!-- 0.1 -->
      <g style="fill: #ff0000" transform="translate(1231.521025 282.766097) scale(0.18 -0.18)">
       <use xlink:href="#DejaVuSans-30"/>
       <use xlink:href="#DejaVuSans-2e" transform="translate(63.623047 0)"/>
       <use xlink:href="#DejaVuSans-31" transform="translate(95.410156 0)"/>
      </g>
     </g>
    </g>
    <g id="ytick_15">
     <g id="line2d_9">
      <g>
       <use xlink:href="#mea97065b9e" x="1223.221025" y="213.664924" style="fill: #ff0000; stroke: #ff0000"/>
      </g>
     </g>
     <g id="text_47">
      <!-- 0.2 -->
      <g style="fill: #ff0000" transform="translate(1231.521025 220.503518) scale(0.18 -0.18)">
       <use xlink:href="#DejaVuSans-30"/>
       <use xlink:href="#DejaVuSans-2e" transform="translate(63.623047 0)"/>
       <use xlink:href="#DejaVuSans-32" transform="translate(95.410156 0)"/>
      </g>
     </g>
    </g>
    <g id="ytick_16">
     <g id="line2d_10">
      <g>
       <use xlink:href="#mea97065b9e" x="1223.221025" y="151.402345" style="fill: #ff0000; stroke: #ff0000"/>
      </g>
     </g>
     <g id="text_48">
      <!-- 0.3 -->
      <g style="fill: #ff0000" transform="translate(1231.521025 158.240939) scale(0.18 -0.18)">
       <defs>
        <path id="DejaVuSans-33" d="M 2597 2516 
Q 3050 2419 3304 2112 
Q 3559 1806 3559 1356 
Q 3559 666 3084 287 
Q 2609 -91 1734 -91 
Q 1441 -91 1130 -33 
Q 819 25 488 141 
L 488 750 
Q 750 597 1062 519 
Q 1375 441 1716 441 
Q 2309 441 2620 675 
Q 2931 909 2931 1356 
Q 2931 1769 2642 2001 
Q 2353 2234 1838 2234 
L 1294 2234 
L 1294 2753 
L 1863 2753 
Q 2328 2753 2575 2939 
Q 2822 3125 2822 3475 
Q 2822 3834 2567 4026 
Q 2313 4219 1838 4219 
Q 1578 4219 1281 4162 
Q 984 4106 628 3988 
L 628 4550 
Q 988 4650 1302 4700 
Q 1616 4750 1894 4750 
Q 2613 4750 3031 4423 
Q 3450 4097 3450 3541 
Q 3450 3153 3228 2886 
Q 3006 2619 2597 2516 
z
" transform="scale(0.015625)"/>
       </defs>
       <use xlink:href="#DejaVuSans-30"/>
       <use xlink:href="#DejaVuSans-2e" transform="translate(63.623047 0)"/>
       <use xlink:href="#DejaVuSans-33" transform="translate(95.410156 0)"/>
      </g>
     </g>
    </g>
    <g id="ytick_17">
     <g id="line2d_11">
      <g>
       <use xlink:href="#mea97065b9e" x="1223.221025" y="89.139766" style="fill: #ff0000; stroke: #ff0000"/>
      </g>
     </g>
     <g id="text_49">
      <!-- 0.4 -->
      <g style="fill: #ff0000" transform="translate(1231.521025 95.97836) scale(0.18 -0.18)">
       <use xlink:href="#DejaVuSans-30"/>
       <use xlink:href="#DejaVuSans-2e" transform="translate(63.623047 0)"/>
       <use xlink:href="#DejaVuSans-34" transform="translate(95.410156 0)"/>
      </g>
     </g>
    </g>
    <g id="ytick_18">
     <g id="line2d_12">
      <g>
       <use xlink:href="#mea97065b9e" x="1223.221025" y="26.877187" style="fill: #ff0000; stroke: #ff0000"/>
      </g>
     </g>
     <g id="text_50">
      <!-- 0.5 -->
      <g style="fill: #ff0000" transform="translate(1231.521025 33.715781) scale(0.18 -0.18)">
       <defs>
        <path id="DejaVuSans-35" d="M 691 4666 
L 3169 4666 
L 3169 4134 
L 1269 4134 
L 1269 2991 
Q 1406 3038 1543 3061 
Q 1681 3084 1819 3084 
Q 2600 3084 3056 2656 
Q 3513 2228 3513 1497 
Q 3513 744 3044 326 
Q 2575 -91 1722 -91 
Q 1428 -91 1123 -41 
Q 819 9 494 109 
L 494 744 
Q 775 591 1075 516 
Q 1375 441 1709 441 
Q 2250 441 2565 725 
Q 2881 1009 2881 1497 
Q 2881 1984 2565 2268 
Q 2250 2553 1709 2553 
Q 1456 2553 1204 2497 
Q 953 2441 691 2322 
L 691 4666 
z
" transform="scale(0.015625)"/>
       </defs>
       <use xlink:href="#DejaVuSans-30"/>
       <use xlink:href="#DejaVuSans-2e" transform="translate(63.623047 0)"/>
       <use xlink:href="#DejaVuSans-35" transform="translate(95.410156 0)"/>
      </g>
     </g>
    </g>
    <g id="text_51">
     <!-- No-call rate -->
     <g style="fill: #ff0000" transform="translate(1276.30415 228.988635) rotate(-90) scale(0.16 -0.16)">
      <defs>
       <path id="DejaVuSans-4e" d="M 628 4666 
L 1478 4666 
L 3547 763 
L 3547 4666 
L 4159 4666 
L 4159 0 
L 3309 0 
L 1241 3903 
L 1241 0 
L 628 0 
L 628 4666 
z
" transform="scale(0.015625)"/>
       <path id="DejaVuSans-20" transform="scale(0.015625)"/>
      </defs>
      <use xlink:href="#DejaVuSans-4e"/>
      <use xlink:href="#DejaVuSans-6f" transform="translate(74.804688 0)"/>
      <use xlink:href="#DejaVuSans-2d" transform="translate(137.861328 0)"/>
      <use xlink:href="#DejaVuSans-63" transform="translate(173.945312 0)"/>
      <use xlink:href="#DejaVuSans-61" transform="translate(228.925781 0)"/>
      <use xlink:href="#DejaVuSans-6c" transform="translate(290.205078 0)"/>
      <use xlink:href="#DejaVuSans-6c" transform="translate(317.988281 0)"/>
      <use xlink:href="#DejaVuSans-20" transform="translate(345.771484 0)"/>
      <use xlink:href="#DejaVuSans-72" transform="translate(377.558594 0)"/>
      <use xlink:href="#DejaVuSans-61" transform="translate(418.671875 0)"/>
      <use xlink:href="#DejaVuSans-74" transform="translate(479.951172 0)"/>
      <use xlink:href="#DejaVuSans-65" transform="translate(519.160156 0)"/>
     </g>
    </g>
   </g>
   <g id="line2d_13">
    <path d="M 717.158663 329.006811 
L 759.560202 90.241759 
L 801.96174 338.190082 
L 844.363279 337.960331 
L 886.764817 338.190082 
L 929.166356 338.190082 
L 971.567894 338.190082 
L 1013.969433 335.435101 
L 1056.370971 337.271755 
L 1098.77251 337.042173 
L 1141.174048 338.190082 
L 1183.575587 338.190082 
" clip-path="url(#pffe407e940)" style="fill: none; stroke-dasharray: 7.4,3.2; stroke-dashoffset: 0; stroke: #ff0000; stroke-width: 2"/>
    <defs>
     <path id="mf28ed0f259" d="M 0 2 
C 0.530406 2 1.03916 1.789267 1.414214 1.414214 
C 1.789267 1.03916 2 0.530406 2 0 
C 2 -0.530406 1.789267 -1.03916 1.414214 -1.414214 
C 1.03916 -1.789267 0.530406 -2 0 -2 
C -0.530406 -2 -1.03916 -1.789267 -1.414214 -1.414214 
C -1.789267 -1.03916 -2 -0.530406 -2 0 
C -2 0.530406 -1.789267 1.03916 -1.414214 1.414214 
C -1.03916 1.789267 -0.530406 2 0 2 
z
" style="stroke: #ff0000"/>
    </defs>
    <g clip-path="url(#pffe407e940)">
     <use xlink:href="#mf28ed0f259" x="717.158663" y="329.006811" style="fill: #ff0000; stroke: #ff0000"/>
     <use xlink:href="#mf28ed0f259" x="759.560202" y="90.241759" style="fill: #ff0000; stroke: #ff0000"/>
     <use xlink:href="#mf28ed0f259" x="801.96174" y="338.190082" style="fill: #ff0000; stroke: #ff0000"/>
     <use xlink:href="#mf28ed0f259" x="844.363279" y="337.960331" style="fill: #ff0000; stroke: #ff0000"/>
     <use xlink:href="#mf28ed0f259" x="886.764817" y="338.190082" style="fill: #ff0000; stroke: #ff0000"/>
     <use xlink:href="#mf28ed0f259" x="929.166356" y="338.190082" style="fill: #ff0000; stroke: #ff0000"/>
     <use xlink:href="#mf28ed0f259" x="971.567894" y="338.190082" style="fill: #ff0000; stroke: #ff0000"/>
     <use xlink:href="#mf28ed0f259" x="1013.969433" y="335.435101" style="fill: #ff0000; stroke: #ff0000"/>
     <use xlink:href="#mf28ed0f259" x="1056.370971" y="337.271755" style="fill: #ff0000; stroke: #ff0000"/>
     <use xlink:href="#mf28ed0f259" x="1098.77251" y="337.042173" style="fill: #ff0000; stroke: #ff0000"/>
     <use xlink:href="#mf28ed0f259" x="1141.174048" y="338.190082" style="fill: #ff0000; stroke: #ff0000"/>
     <use xlink:href="#mf28ed0f259" x="1183.575587" y="338.190082" style="fill: #ff0000; stroke: #ff0000"/>
    </g>
   </g>
   <g id="patch_66">
    <path d="M 677.513225 338.190082 
L 677.513225 26.877187 
" style="fill: none; stroke: #262626; stroke-linejoin: miter; stroke-linecap: square"/>
   </g>
   <g id="patch_67">
    <path d="M 1223.221025 338.190082 
L 1223.221025 26.877187 
" style="fill: none; stroke: #262626; stroke-linejoin: miter; stroke-linecap: square"/>
   </g>
   <g id="patch_68">
    <path d="M 677.513225 338.190082 
L 1223.221025 338.190082 
" style="fill: none; stroke: #262626; stroke-linejoin: miter; stroke-linecap: square"/>
   </g>
   <g id="patch_69">
    <path d="M 677.513225 26.877187 
L 1223.221025 26.877187 
" style="fill: none; stroke: #262626; stroke-linejoin: miter; stroke-linecap: square"/>
   </g>
   <g id="legend_3">
    <g id="patch_70">
     <path d="M 1048.497275 67.697812 
L 1210.621025 67.697812 
Q 1214.221025 67.697812 1214.221025 64.097812 
L 1214.221025 39.477188 
Q 1214.221025 35.877187 1210.621025 35.877187 
L 1048.497275 35.877187 
Q 1044.897275 35.877187 1044.897275 39.477188 
L 1044.897275 64.097812 
Q 1044.897275 67.697812 1048.497275 67.697812 
z
" style="fill: #ffffff; opacity: 0.8; stroke: #cccccc; stroke-width: 0.8; stroke-linejoin: miter"/>
    </g>
    <g id="line2d_14">
     <path d="M 1052.097275 50.454375 
L 1070.097275 50.454375 
L 1088.097275 50.454375 
" style="fill: none; stroke-dasharray: 7.4,3.2; stroke-dashoffset: 0; stroke: #ff0000; stroke-width: 2"/>
     <g>
      <use xlink:href="#mf28ed0f259" x="1070.097275" y="50.454375" style="fill: #ff0000; stroke: #ff0000"/>
     </g>
    </g>
    <g id="text_52">
     <!-- No-call rate -->
     <g style="fill: #262626" transform="translate(1102.497275 56.754375) scale(0.18 -0.18)">
      <use xlink:href="#DejaVuSans-4e"/>
      <use xlink:href="#DejaVuSans-6f" transform="translate(74.804688 0)"/>
      <use xlink:href="#DejaVuSans-2d" transform="translate(137.861328 0)"/>
      <use xlink:href="#DejaVuSans-63" transform="translate(173.945312 0)"/>
      <use xlink:href="#DejaVuSans-61" transform="translate(228.925781 0)"/>
      <use xlink:href="#DejaVuSans-6c" transform="translate(290.205078 0)"/>
      <use xlink:href="#DejaVuSans-6c" transform="translate(317.988281 0)"/>
      <use xlink:href="#DejaVuSans-20" transform="translate(345.771484 0)"/>
      <use xlink:href="#DejaVuSans-72" transform="translate(377.558594 0)"/>
      <use xlink:href="#DejaVuSans-61" transform="translate(418.671875 0)"/>
      <use xlink:href="#DejaVuSans-74" transform="translate(479.951172 0)"/>
      <use xlink:href="#DejaVuSans-65" transform="translate(519.160156 0)"/>
     </g>
    </g>
   </g>
  </g>
 </g>
 <defs>
  <clipPath id="pf8803b8328">
   <rect x="63.610625" y="26.877187" width="545.7078" height="311.312895"/>
  </clipPath>
  <clipPath id="pffe407e940">
   <rect x="677.513225" y="26.877187" width="545.7078" height="311.312895"/>
  </clipPath>
 </defs>
</svg>
